STARTFONT 2.1
COMMENT $XFree86$
COMMENT ISO10646-1 extension by Markus Kuhn <mkuhn@acm.org>, 2001-03-20
COMMENT  (c) Copyright Bigelow & Holmes 1986, 1985. Lucida is a registered
COMMENT  trademark of Bigelow & Holmes. See LEGAL NOTICE file for terms 
COMMENT  of the license. 
FONT -B&H-LucidaBright-DemiBold-I-Normal--26-190-100-100-P-156-ISO10646-1
SIZE 19 100 100
FONTBOUNDINGBOX 49 40 -17 -11
STARTPROPERTIES 22
COMMENT Begin LogicalFontDescription
FONTNAME_REGISTRY ""
FOUNDRY "B&H"
FAMILY_NAME "LucidaBright"
WEIGHT_NAME "DemiBold"
SLANT "I"
SETWIDTH_NAME "Normal"
ADD_STYLE_NAME ""
PIXEL_SIZE 26
POINT_SIZE 190
RESOLUTION_X 100
RESOLUTION_Y 100
SPACING "P"
AVERAGE_WIDTH 156
CHARSET_REGISTRY "ISO10646"
CHARSET_ENCODING "1"
COMMENT END LogicalFontDescription
COPYRIGHT "Copyright Bigelow & Holmes 1986, 1985."
FONT_ASCENT 24
FONT_DESCENT 6
DEFAULT_CHAR 0
FACE_NAME "Lucida Bright Demibold Italic"
X_HEIGHT 14
CAP_HEIGHT 19
ENDPROPERTIES
CHARS 723
STARTCHAR char0
ENCODING 0
SWIDTH 827 0
DWIDTH 22 0
BBX 23 19 1 0
BITMAP
AAAAAA
000000
800002
000000
800002
000000
800002
000000
800002
000000
800002
000000
800002
000000
800002
000000
800002
000000
AAAAAA
ENDCHAR
STARTCHAR space
ENCODING 32
SWIDTH 333 0
DWIDTH 8 0
BBX 1 1 0 0
BITMAP
00
ENDCHAR
STARTCHAR exclam
ENCODING 33
SWIDTH 265 0
DWIDTH 7 0
BBX 8 19 1 0
BITMAP
0F
0F
1E
1E
1E
1E
1C
1C
1C
18
38
38
38
30
00
00
78
F0
F0
ENDCHAR
STARTCHAR quotedbl
ENCODING 34
SWIDTH 451 0
DWIDTH 12 0
BBX 9 8 5 12
BITMAP
F380
F380
E380
6380
6380
6380
6100
6100
ENDCHAR
STARTCHAR numbersign
ENCODING 35
SWIDTH 636 0
DWIDTH 17 0
BBX 16 19 2 0
BITMAP
0063
00C2
00C6
0084
018C
0108
7FFF
0210
0630
0420
0C60
0C60
FFFE
1080
3180
2180
6300
6300
C600
ENDCHAR
STARTCHAR dollar
ENCODING 36
SWIDTH 636 0
DWIDTH 17 0
BBX 14 24 3 -3
BITMAP
0040
0040
07FC
0E9C
1C8C
1C88
1C80
1C80
1F80
1F00
0F80
07C0
03E0
03F0
02F0
0270
0270
4670
C4E0
E5C0
FF80
0400
0C00
0C00
ENDCHAR
STARTCHAR percent
ENCODING 37
SWIDTH 772 0
DWIDTH 20 0
BBX 21 19 1 0
BITMAP
0F0038
398060
31C0C0
71C180
61C300
E1C700
618E00
639C00
733800
3E7000
00E3E0
01C670
038E30
071C30
0E1C30
1C1C70
381C70
700CE0
E00780
ENDCHAR
STARTCHAR ampersand
ENCODING 38
SWIDTH 773 0
DWIDTH 20 0
BBX 20 19 1 0
BITMAP
007C00
01C700
03C700
038700
038700
038E00
03CE00
03F800
07E000
1DE3F0
39E0E0
70F0C0
F0F1C0
F07980
F07B00
F03E00
701E00
3C3F00
1FCFC0
ENDCHAR
STARTCHAR quotesingle
ENCODING 39
SWIDTH 247 0
DWIDTH 6 0
BBX 4 8 4 12
BITMAP
F0
F0
F0
60
60
60
60
60
ENDCHAR
STARTCHAR parenleft
ENCODING 40
SWIDTH 336 0
DWIDTH 9 0
BBX 9 25 2 -5
BITMAP
0080
0180
0300
0600
0E00
1C00
1C00
3800
3800
7800
7000
F000
F000
F000
F000
F000
F000
F000
E000
6000
7000
7000
3000
1800
0800
ENDCHAR
STARTCHAR parenright
ENCODING 41
SWIDTH 336 0
DWIDTH 9 0
BBX 9 25 0 -5
BITMAP
0400
0600
0600
0300
0380
0380
0380
0380
0380
0380
0380
0380
0380
0780
0780
0700
0700
0E00
0E00
1C00
1800
3000
6000
4000
8000
ENDCHAR
STARTCHAR asterisk
ENCODING 42
SWIDTH 434 0
DWIDTH 12 0
BBX 10 10 4 9
BITMAP
0E00
0600
4440
65C0
F3C0
0000
1600
F700
6700
2400
ENDCHAR
STARTCHAR plus
ENCODING 43
SWIDTH 636 0
DWIDTH 16 0
BBX 15 16 2 0
BITMAP
00C0
00C0
0080
0180
0180
0180
0180
0180
FFFE
0300
0300
0300
0300
0200
0600
0600
ENDCHAR
STARTCHAR comma
ENCODING 44
SWIDTH 265 0
DWIDTH 7 0
BBX 6 10 0 -5
BITMAP
3C
7C
7C
78
78
38
38
30
E0
C0
ENDCHAR
STARTCHAR hyphen
ENCODING 45
SWIDTH 289 0
DWIDTH 8 0
BBX 6 1 2 9
BITMAP
FC
ENDCHAR
STARTCHAR period
ENCODING 46
SWIDTH 265 0
DWIDTH 7 0
BBX 5 4 1 0
BITMAP
78
78
F0
F0
ENDCHAR
STARTCHAR slash
ENCODING 47
SWIDTH 515 0
DWIDTH 13 0
BBX 16 24 -1 -4
BITMAP
0001
0003
0002
0004
000C
0008
0010
0030
0020
0040
00C0
0080
0100
0300
0200
0400
0C00
0800
1000
3000
2000
4000
C000
8000
ENDCHAR
STARTCHAR zero
ENCODING 48
SWIDTH 623 0
DWIDTH 17 0
BBX 15 19 3 0
BITMAP
01F0
0738
0E1C
1C1E
3C1E
381E
781E
781E
701E
F01E
F01E
F01C
F03C
F03C
F038
F070
70E0
39C0
1F00
ENDCHAR
STARTCHAR one
ENCODING 49
SWIDTH 636 0
DWIDTH 17 0
BBX 11 19 3 0
BITMAP
1FE0
01E0
01E0
03C0
03C0
03C0
03C0
03C0
0780
0780
0780
0780
0780
0F00
0F00
0F00
0F00
1F00
FFE0
ENDCHAR
STARTCHAR two
ENCODING 50
SWIDTH 636 0
DWIDTH 17 0
BBX 16 19 2 0
BITMAP
01F8
0E1E
0C0F
0C0F
180F
000F
001E
001C
0038
0060
0180
0200
0400
0800
3000
7000
7FFC
FFF8
FFF8
ENDCHAR
STARTCHAR three
ENCODING 51
SWIDTH 636 0
DWIDTH 17 0
BBX 15 19 3 0
BITMAP
0FF0
0C3C
083C
181C
001E
003C
0038
00F0
1FC0
00E0
0070
0078
0078
0078
0078
4078
C0F0
E1E0
7F00
ENDCHAR
STARTCHAR four
ENCODING 52
SWIDTH 636 0
DWIDTH 17 0
BBX 15 19 2 0
BITMAP
001E
003C
003C
005C
009C
013C
0238
0438
0838
1038
2078
7FFE
FFFE
FFFE
0070
00F0
00F0
01E0
07FC
ENDCHAR
STARTCHAR five
ENCODING 53
SWIDTH 636 0
DWIDTH 17 0
BBX 15 19 3 0
BITMAP
0FFE
0FFE
0FFE
1800
1800
1000
1000
1F00
03E0
00F0
0078
0078
0078
0078
0078
4070
C0E0
E1C0
FF00
ENDCHAR
STARTCHAR six
ENCODING 54
SWIDTH 636 0
DWIDTH 17 0
BBX 15 19 3 0
BITMAP
00FC
0386
0E06
1C06
3C06
3800
7800
7BF0
7C78
F83C
F03C
F03C
F03C
F03C
F038
7078
7070
38E0
0F80
ENDCHAR
STARTCHAR seven
ENCODING 55
SWIDTH 636 0
DWIDTH 17 0
BBX 14 19 5 0
BITMAP
3FFC
7FFC
7FF8
0018
0030
0060
00C0
0180
0180
0300
0600
0E00
1C00
3C00
3800
7800
7000
F000
F000
ENDCHAR
STARTCHAR eight
ENCODING 56
SWIDTH 636 0
DWIDTH 17 0
BBX 15 19 2 0
BITMAP
01F8
071C
0E0E
1E0E
1E0E
1E1E
1F1C
0FB8
07E0
0FF0
38F8
787C
703C
F01C
F01C
F018
F038
7860
1F80
ENDCHAR
STARTCHAR nine
ENCODING 57
SWIDTH 636 0
DWIDTH 17 0
BBX 15 19 2 0
BITMAP
03F0
0638
1C1C
1C1E
381E
380E
780E
781E
781E
381E
3C7E
0F9E
003C
003C
4038
4070
C0E0
E1C0
7F00
ENDCHAR
STARTCHAR colon
ENCODING 58
SWIDTH 265 0
DWIDTH 7 0
BBX 7 14 1 0
BITMAP
1E
1E
3C
3C
00
00
00
00
00
00
78
78
F0
F0
ENDCHAR
STARTCHAR semicolon
ENCODING 59
SWIDTH 265 0
DWIDTH 7 0
BBX 7 19 1 -5
BITMAP
1E
1E
1E
1C
00
00
00
00
00
00
00
78
78
78
38
30
30
60
C0
ENDCHAR
STARTCHAR less
ENCODING 60
SWIDTH 636 0
DWIDTH 16 0
BBX 17 16 2 0
BITMAP
000080
000380
000F00
003C00
00E000
038000
0E0000
F80000
780000
1E0000
0F8000
03C000
00F000
003C00
001C00
000400
ENDCHAR
STARTCHAR equal
ENCODING 61
SWIDTH 636 0
DWIDTH 16 0
BBX 16 7 2 4
BITMAP
7FFF
0000
0000
0000
0000
0000
FFFE
ENDCHAR
STARTCHAR greater
ENCODING 62
SWIDTH 636 0
DWIDTH 16 0
BBX 17 16 0 0
BITMAP
100000
1C0000
1E0000
078000
01E000
00F800
003C00
000F00
000F80
003800
00E000
038000
1E0000
780000
E00000
800000
ENDCHAR
STARTCHAR question
ENCODING 63
SWIDTH 493 0
DWIDTH 13 0
BBX 11 19 4 0
BITMAP
3F80
63C0
41E0
C1E0
01E0
01C0
0180
0300
0600
0C00
1800
3800
7800
7800
0000
0000
F000
F000
F000
ENDCHAR
STARTCHAR at
ENCODING 64
SWIDTH 861 0
DWIDTH 22 0
BBX 20 19 3 0
BITMAP
00FE00
030380
0400C0
180040
107020
218E20
430C30
460C30
C60C30
861C20
8C3820
8C2860
8C7840
8ED880
471F00
400000
200000
181000
07E000
ENDCHAR
STARTCHAR A
ENCODING 65
SWIDTH 765 0
DWIDTH 20 0
BBX 20 19 0 0
BITMAP
000E00
000E00
001E00
003E00
002F00
006F00
004F00
00CF00
018700
010780
030780
020780
07FF80
0C03C0
0803C0
1803C0
1003C0
3003E0
F80FF0
ENDCHAR
STARTCHAR B
ENCODING 66
SWIDTH 651 0
DWIDTH 17 0
BBX 17 19 1 0
BITMAP
0FFE00
078F00
078780
078780
070780
070780
070700
0F0E00
0F1C00
0FF000
0E3C00
0E1E00
1E0F00
1E0F00
1E0F00
1C0F00
3C1E00
3C3C00
FFF000
ENDCHAR
STARTCHAR C
ENCODING 67
SWIDTH 740 0
DWIDTH 19 0
BBX 18 19 3 0
BITMAP
007F80
0383C0
0701C0
0E0180
1C0180
3C0000
380000
780000
780000
F00000
F00000
F00000
F00000
F00000
F80000
780000
7C0000
3E0600
0FF800
ENDCHAR
STARTCHAR D
ENCODING 68
SWIDTH 822 0
DWIDTH 21 0
BBX 21 19 1 0
BITMAP
1FFF80
0783E0
0780F0
0780F0
078078
078078
0F0078
0F0078
0F0078
0F0078
0F00F0
0E00F0
1E00F0
1E01E0
1E01E0
1E03C0
3E0780
3E1E00
FFF800
ENDCHAR
STARTCHAR E
ENCODING 69
SWIDTH 630 0
DWIDTH 16 0
BBX 18 19 1 0
BITMAP
0FFFC0
07C0C0
078180
078000
078000
078000
078000
0F8000
0F0600
0FFC00
0F0400
0F0C00
1E0000
1E0000
1E0000
1E0000
1E0600
3E0600
FFFE00
ENDCHAR
STARTCHAR F
ENCODING 70
SWIDTH 602 0
DWIDTH 16 0
BBX 17 19 1 0
BITMAP
1FFF80
078180
078300
078000
078000
070000
0F0000
0F0000
0F0C00
0FF800
0E0800
1E0000
1E0000
1E0000
1E0000
1C0000
3C0000
3C0000
FF0000
ENDCHAR
STARTCHAR G
ENCODING 71
SWIDTH 780 0
DWIDTH 20 0
BBX 18 19 3 0
BITMAP
00FF80
03C3C0
0701C0
0E0180
1C0180
3C0000
380000
780000
780000
F00000
F03FC0
F00F00
F00F00
F00E00
F01E00
781E00
781E00
3E1E00
0FF000
ENDCHAR
STARTCHAR H
ENCODING 72
SWIDTH 827 0
DWIDTH 22 0
BBX 23 19 1 0
BITMAP
1FF1FE
07C078
078078
0780F0
0780F0
0780F0
0F00F0
0F00F0
0F00E0
0FFFE0
0F01E0
1E01E0
1E01E0
1E01C0
1E03C0
1E03C0
3C03C0
3C07C0
FF1FF0
ENDCHAR
STARTCHAR I
ENCODING 73
SWIDTH 372 0
DWIDTH 10 0
BBX 12 19 1 0
BITMAP
0FF0
07C0
0780
0780
0780
0780
0780
0F00
0F00
0F00
0F00
0F00
1E00
1E00
1E00
1E00
1E00
3E00
FF00
ENDCHAR
STARTCHAR J
ENCODING 74
SWIDTH 478 0
DWIDTH 12 0
BBX 16 23 0 -4
BITMAP
00FF
007C
007C
0078
0078
0078
0078
00F0
00F0
00F0
00F0
00F0
00E0
01E0
01E0
01E0
01E0
01C0
03C0
63C0
C380
E700
FC00
ENDCHAR
STARTCHAR K
ENCODING 75
SWIDTH 746 0
DWIDTH 19 0
BBX 20 19 1 0
BITMAP
1FE1F0
07C0C0
078180
078300
078400
070800
0F3000
0F6000
0FE000
0FF000
0EF000
0E7800
1E7C00
1E3C00
1E3E00
1C1F00
3C0F00
3C0F80
FF1FE0
ENDCHAR
STARTCHAR L
ENCODING 76
SWIDTH 611 0
DWIDTH 16 0
BBX 15 19 1 0
BITMAP
1FF0
07C0
0780
0780
0780
0780
0F00
0F00
0F00
0F00
0F00
1E00
1E00
1E00
1E00
1E06
3C06
3C0C
FFFC
ENDCHAR
STARTCHAR M
ENCODING 77
SWIDTH 926 0
DWIDTH 24 0
BBX 26 19 1 0
BITMAP
0F800FC0
07801F00
07C01F00
07C02E00
07C03E00
07C05E00
04E0DE00
0CE09C00
0CE11C00
0CE31C00
0C723C00
08763C00
18743C00
18783800
18383800
18307800
30207800
30007800
FC01FC00
ENDCHAR
STARTCHAR N
ENCODING 78
SWIDTH 797 0
DWIDTH 21 0
BBX 23 19 1 0
BITMAP
0F807E
078038
07C030
07C030
07E030
07F030
06F030
0C7860
0C7860
0C3C60
0C3C60
0C1E60
181E40
180FC0
180FC0
1807C0
1803C0
380380
FC0180
ENDCHAR
STARTCHAR O
ENCODING 79
SWIDTH 831 0
DWIDTH 22 0
BBX 20 19 3 0
BITMAP
007E00
01C380
0701C0
0E01E0
1C01E0
3C00F0
7800F0
7800F0
7800F0
F801E0
F001E0
F001E0
F001C0
F003C0
F00780
780700
780E00
3C3800
0FE000
ENDCHAR
STARTCHAR P
ENCODING 80
SWIDTH 628 0
DWIDTH 16 0
BBX 18 19 1 0
BITMAP
0FFF00
07C780
0783C0
0783C0
0783C0
0783C0
078380
0F0780
0F0F00
0F1E00
0FF000
0E0000
1E0000
1E0000
1E0000
1E0000
1E0000
3E0000
FF8000
ENDCHAR
STARTCHAR Q
ENCODING 81
SWIDTH 835 0
DWIDTH 22 0
BBX 22 24 3 -5
BITMAP
007E00
018380
0701C0
0E01E0
1C01E0
3C00F0
7800F0
7800F0
7800F0
F001F0
F001E0
F001E0
F001E0
F003C0
F007C0
780780
780F00
3C3E00
0FFC00
007800
002000
001800
000700
0001FC
ENDCHAR
STARTCHAR R
ENCODING 82
SWIDTH 711 0
DWIDTH 18 0
BBX 18 19 1 0
BITMAP
0FFF00
078780
0783C0
0783C0
0783C0
0783C0
070780
0F0780
0F1F00
0FFC00
0F7800
0E3C00
1E3C00
1E1E00
1E1E00
1E0F00
1C0F00
3C0F80
FF07C0
ENDCHAR
STARTCHAR S
ENCODING 83
SWIDTH 587 0
DWIDTH 15 0
BBX 15 19 2 0
BITMAP
01FC
070E
0E06
1E0C
1E00
1E00
1F00
1F80
0FC0
07E0
03F0
00F8
0078
0078
0078
6078
C0F0
E1E0
7F80
ENDCHAR
STARTCHAR T
ENCODING 84
SWIDTH 716 0
DWIDTH 19 0
BBX 18 19 4 0
BITMAP
7FFFC0
E1E0C0
C1E080
C1E180
01C000
03C000
03C000
03C000
03C000
03C000
078000
078000
078000
078000
078000
0F0000
0F0000
0F0000
7FC000
ENDCHAR
STARTCHAR U
ENCODING 85
SWIDTH 775 0
DWIDTH 20 0
BBX 19 19 4 0
BITMAP
FF07E0
3E0180
3C0180
3C0100
3C0100
780100
780300
780200
780200
780200
F00200
F00600
F00400
F00400
F00400
F00800
701800
383000
1FC000
ENDCHAR
STARTCHAR V
ENCODING 86
SWIDTH 741 0
DWIDTH 19 0
BBX 20 19 3 0
BITMAP
FF01F0
7C00C0
3C0080
3C0080
3C0100
1E0300
1E0200
1E0400
1E0C00
1E0800
0F1000
0F1000
0F2000
0F6000
0F4000
078000
078000
070000
060000
ENDCHAR
STARTCHAR W
ENCODING 87
SWIDTH 922 0
DWIDTH 24 0
BBX 24 19 4 0
BITMAP
FE0C1F
781C06
781C0C
383C08
383C18
387C10
385C30
38DC20
389C60
399C40
3D1EC0
3D1E80
3E1F80
3E1F00
3C1F00
3C0E00
3C0E00
380C00
380C00
ENDCHAR
STARTCHAR X
ENCODING 88
SWIDTH 672 0
DWIDTH 17 0
BBX 20 19 0 0
BITMAP
0FE1F0
07C0C0
03C180
03C100
01E300
01E600
01EC00
00F800
00F000
007800
00F800
01F800
033C00
063C00
0C1E00
081E00
101E00
300F00
F83F80
ENDCHAR
STARTCHAR Y
ENCODING 89
SWIDTH 669 0
DWIDTH 17 0
BBX 18 19 3 0
BITMAP
FF07C0
7C0300
3C0200
3C0600
1E0C00
1E1800
1E3000
0F2000
0F6000
07C000
078000
078000
078000
0F0000
0F0000
0F0000
0F0000
1F0000
7FC000
ENDCHAR
STARTCHAR Z
ENCODING 90
SWIDTH 684 0
DWIDTH 18 0
BBX 18 19 2 0
BITMAP
0FFFC0
0C0780
0C0F80
001F00
001E00
003C00
007C00
00F800
01F000
01E000
03C000
07C000
0F8000
0F0000
1E0000
3E0000
7C0600
F80E00
FFFE00
ENDCHAR
STARTCHAR bracketleft
ENCODING 91
SWIDTH 336 0
DWIDTH 9 0
BBX 11 24 1 -4
BITMAP
07E0
0700
0F00
0F00
0E00
0E00
0E00
1E00
1E00
1C00
1C00
1C00
3C00
3C00
3800
3800
3800
7800
7800
7000
7000
7000
F000
FC00
ENDCHAR
STARTCHAR backslash
ENCODING 92
SWIDTH 515 0
DWIDTH 13 0
BBX 8 24 4 -4
BITMAP
C0
40
40
40
20
20
20
20
10
10
10
10
08
08
08
08
04
04
04
04
02
02
02
03
ENDCHAR
STARTCHAR bracketright
ENCODING 93
SWIDTH 336 0
DWIDTH 9 0
BBX 11 24 0 -4
BITMAP
07E0
01E0
01C0
01C0
01C0
03C0
03C0
0380
0380
0380
0780
0780
0700
0700
0700
0F00
0F00
0E00
0E00
0E00
1E00
1E00
1C00
FC00
ENDCHAR
STARTCHAR asciicircum
ENCODING 94
SWIDTH 636 0
DWIDTH 16 0
BBX 15 16 1 3
BITMAP
0020
0020
0060
00E0
00F0
01B0
0330
0318
0618
0C18
0C18
180C
300C
300C
6006
C006
ENDCHAR
STARTCHAR underscore
ENCODING 95
SWIDTH 500 0
DWIDTH 13 0
BBX 11 1 1 -3
BITMAP
FFE0
ENDCHAR
STARTCHAR grave
ENCODING 96
SWIDTH 599 0
DWIDTH 16 0
BBX 5 4 9 16
BITMAP
E0
70
30
18
ENDCHAR
STARTCHAR a
ENCODING 97
SWIDTH 634 0
DWIDTH 16 0
BBX 15 14 2 0
BITMAP
01FE
063E
0C1E
181C
383C
783C
707C
707C
F0B8
F1F8
F378
FE78
FC78
787C
ENDCHAR
STARTCHAR b
ENCODING 98
SWIDTH 633 0
DWIDTH 16 0
BBX 15 20 2 0
BITMAP
3F00
1E00
1E00
1E00
1E00
1E00
1C3C
3C7E
3CFE
3D9E
3F1E
3A1E
7C1C
781C
783C
7838
7030
F060
F8C0
FF00
ENDCHAR
STARTCHAR c
ENCODING 99
SWIDTH 524 0
DWIDTH 14 0
BBX 13 14 2 0
BITMAP
01F8
0638
1C18
3818
3800
7800
7000
F000
F000
F000
F000
F000
7820
1FC0
ENDCHAR
STARTCHAR d
ENCODING 100
SWIDTH 634 0
DWIDTH 16 0
BBX 16 20 2 0
BITMAP
003F
000F
000F
000E
001E
001E
01FE
063E
0C1C
183C
383C
783C
703C
7078
F0B8
F1F8
F378
FE78
FC78
78FC
ENDCHAR
STARTCHAR e
ENCODING 101
SWIDTH 548 0
DWIDTH 14 0
BBX 13 14 2 0
BITMAP
03E0
0470
1C78
3878
3870
7070
70E0
F3C0
FF00
F000
F000
F010
7870
1F80
ENDCHAR
STARTCHAR f
ENCODING 102
SWIDTH 415 0
DWIDTH 11 0
BBX 14 25 2 -5
BITMAP
00FC
038C
070C
0708
0F00
0F00
3FE0
1E00
1E00
1E00
1E00
1C00
3C00
3C00
3C00
3C00
3800
7800
7800
7800
7800
7000
F000
F000
F000
ENDCHAR
STARTCHAR g
ENCODING 103
SWIDTH 628 0
DWIDTH 16 0
BBX 16 19 1 -5
BITMAP
00FF
031F
060F
0C0E
1C0E
3C1E
383E
783E
785C
78FC
79BC
7F3C
7E38
3C38
0078
8070
C070
70C0
7F00
ENDCHAR
STARTCHAR h
ENCODING 104
SWIDTH 656 0
DWIDTH 17 0
BBX 15 20 2 0
BITMAP
3F00
1F00
0E00
1E00
1E00
1E00
1E1C
1C7E
3CFE
3D9E
3F1E
3E1C
3C1C
7C3C
783C
783C
7838
7078
F078
F07E
ENDCHAR
STARTCHAR i
ENCODING 105
SWIDTH 319 0
DWIDTH 8 0
BBX 8 19 2 0
BITMAP
0F
0F
1E
00
00
7E
3C
3C
3C
3C
3C
38
78
78
78
78
70
F8
FC
ENDCHAR
STARTCHAR j
ENCODING 106
SWIDTH 381 0
DWIDTH 10 0
BBX 14 24 -1 -5
BITMAP
003C
003C
0038
0000
0000
01F8
0078
0070
00F0
00F0
00F0
00E0
00E0
01E0
01E0
01E0
01C0
01C0
03C0
03C0
4380
C300
C600
FC00
ENDCHAR
STARTCHAR k
ENCODING 107
SWIDTH 626 0
DWIDTH 16 0
BBX 14 20 2 0
BITMAP
3F00
1E00
1E00
1E00
1E00
1C00
1C3C
3C3C
3C38
3C70
3CE0
3B80
7F80
7B80
7BC0
79E0
71E0
F0F0
F0F8
F07C
ENDCHAR
STARTCHAR l
ENCODING 108
SWIDTH 319 0
DWIDTH 8 0
BBX 8 20 2 0
BITMAP
3F
0F
0E
1E
1E
1E
1E
1C
3C
3C
3C
3C
38
78
78
78
78
70
F0
FC
ENDCHAR
STARTCHAR m
ENCODING 109
SWIDTH 969 0
DWIDTH 25 0
BBX 23 14 2 0
BITMAP
7E381C
3C7C7E
3CFCFE
3D9D9E
3F3D1E
3E3E1C
7C3E1C
783C3C
78383C
70783C
707838
F07838
F07078
F0707E
ENDCHAR
STARTCHAR n
ENCODING 110
SWIDTH 656 0
DWIDTH 17 0
BBX 15 14 2 0
BITMAP
7E1C
3C7E
3CFE
3D9E
3D1E
3E1C
3C1C
7C3C
783C
783C
7838
7078
F078
F07E
ENDCHAR
STARTCHAR o
ENCODING 111
SWIDTH 599 0
DWIDTH 16 0
BBX 14 14 2 0
BITMAP
01F0
0638
1C3C
3C3C
383C
783C
703C
F03C
F038
F038
F070
F060
78C0
3F00
ENDCHAR
STARTCHAR p
ENCODING 112
SWIDTH 639 0
DWIDTH 17 0
BBX 16 19 1 -5
BITMAP
7E1E
1E3F
1E7F
1ECF
1F8F
1D0F
3E0F
3C0E
3C1E
3C1C
3818
7830
7C60
7F80
7800
7000
F000
F000
F000
ENDCHAR
STARTCHAR q
ENCODING 113
SWIDTH 630 0
DWIDTH 16 0
BBX 15 19 2 -5
BITMAP
01FE
063E
0C1E
181C
383C
783C
703C
707C
F0B8
F1F8
F378
FE78
FC78
7870
00F0
00F0
00F0
00F0
00E0
ENDCHAR
STARTCHAR r
ENCODING 114
SWIDTH 496 0
DWIDTH 13 0
BBX 13 14 2 0
BITMAP
7C38
3C70
3CF0
3D90
3F00
3A00
7C00
7800
7800
7800
7000
F000
F000
F000
ENDCHAR
STARTCHAR s
ENCODING 115
SWIDTH 479 0
DWIDTH 12 0
BBX 12 14 1 0
BITMAP
07F0
0C30
1C30
1C30
1C00
1E00
0F80
07C0
03C0
01E0
41E0
C1C0
E380
7F00
ENDCHAR
STARTCHAR t
ENCODING 116
SWIDTH 375 0
DWIDTH 10 0
BBX 9 18 3 0
BITMAP
0C00
1C00
3C00
3C00
FF80
3C00
3800
7800
7800
7800
7800
7000
F000
F000
F000
F000
7200
3C00
ENDCHAR
STARTCHAR u
ENCODING 117
SWIDTH 655 0
DWIDTH 17 0
BBX 15 14 3 0
BITMAP
FC7E
3C1E
3C1C
383C
783C
783C
787C
7078
70F8
F1F8
F378
FE78
FC78
70FC
ENDCHAR
STARTCHAR v
ENCODING 118
SWIDTH 584 0
DWIDTH 15 0
BBX 15 14 2 0
BITMAP
F83E
7C1E
3C0E
3C0C
3C1C
1E18
1E30
1E60
1EC0
0E80
0F80
0F00
0E00
0C00
ENDCHAR
STARTCHAR w
ENCODING 119
SWIDTH 822 0
DWIDTH 21 0
BBX 21 14 2 0
BITMAP
F81078
783078
383830
3C3830
3C7860
1C7840
1CFCC0
1C9C80
1F1D00
1F1F00
1E1E00
1C1C00
0C1800
081800
ENDCHAR
STARTCHAR x
ENCODING 120
SWIDTH 534 0
DWIDTH 14 0
BBX 14 14 1 0
BITMAP
3E3C
1E1C
0E1C
0F18
0730
07E0
0780
07C0
0FC0
19E0
71E0
60F0
E0F0
E078
ENDCHAR
STARTCHAR y
ENCODING 121
SWIDTH 586 0
DWIDTH 15 0
BBX 18 19 0 -5
BITMAP
1F07C0
0F03C0
0781C0
078180
078380
038300
03C600
03CC00
03D800
03F000
01E000
01E000
01C000
018000
030000
060000
0C0000
1C0000
F80000
ENDCHAR
STARTCHAR z
ENCODING 122
SWIDTH 567 0
DWIDTH 15 0
BBX 15 14 1 0
BITMAP
1FFE
183C
1878
3078
00F0
01E0
03C0
0780
0F00
1E00
3E00
7C08
7818
FFF8
ENDCHAR
STARTCHAR braceleft
ENCODING 123
SWIDTH 361 0
DWIDTH 9 0
BBX 9 24 3 -4
BITMAP
0780
0E00
1E00
1E00
1E00
1E00
1E00
1E00
1C00
1C00
3800
F000
2000
3800
3800
3800
7800
7800
7000
F000
F000
E000
7000
3800
ENDCHAR
STARTCHAR bar
ENCODING 124
SWIDTH 253 0
DWIDTH 7 0
BBX 7 24 1 -4
BITMAP
06
06
0C
0C
0C
0C
0C
18
18
18
18
18
30
30
30
30
30
60
60
60
60
60
C0
C0
ENDCHAR
STARTCHAR braceright
ENCODING 125
SWIDTH 361 0
DWIDTH 9 0
BBX 9 24 1 -4
BITMAP
0E00
0700
0380
0380
0780
0780
0F00
0F00
0E00
0E00
0600
0200
0780
0E00
1C00
1C00
3C00
3C00
3C00
3C00
3C00
3C00
3800
F000
ENDCHAR
STARTCHAR asciitilde
ENCODING 126
SWIDTH 636 0
DWIDTH 16 0
BBX 16 6 2 5
BITMAP
1E01
2703
4382
41C2
80E4
8078
ENDCHAR
STARTCHAR space
ENCODING 160
SWIDTH 333 0
DWIDTH 8 0
BBX 1 1 0 0
BITMAP
00
ENDCHAR
STARTCHAR exclamdown
ENCODING 161
SWIDTH 265 0
DWIDTH 7 0
BBX 8 19 0 -5
BITMAP
0F
0F
1E
00
00
0C
1C
1C
1C
18
38
38
38
78
78
78
78
F0
F0
ENDCHAR
STARTCHAR cent
ENCODING 162
SWIDTH 636 0
DWIDTH 17 0
BBX 13 19 3 0
BITMAP
0040
00C0
01F8
0698
1C98
3898
3998
7900
7100
F100
F100
F100
F300
F200
7A30
3FC0
0600
0400
0400
ENDCHAR
STARTCHAR sterling
ENCODING 163
SWIDTH 636 0
DWIDTH 17 0
BBX 15 19 3 0
BITMAP
007C
01CE
0386
0384
0780
0780
0700
0F00
3FE0
0F00
0F00
0E00
1E00
1C00
1C00
3000
FFF0
FFF0
FFE0
ENDCHAR
STARTCHAR currency
ENCODING 164
SWIDTH 636 0
DWIDTH 17 0
BBX 19 17 1 1
BITMAP
100020
0800E0
0C0180
07FB00
030E00
060600
0C0600
0C0600
0C0600
0C0600
0C0C00
0C0C00
0E3800
1BFC00
300600
400200
800100
ENDCHAR
STARTCHAR yen
ENCODING 165
SWIDTH 636 0
DWIDTH 17 0
BBX 18 19 3 0
BITMAP
FE07C0
7C0300
3C0200
3C0400
1E0C00
1E1800
0F1000
0F2000
07C000
078000
3FF000
078000
070000
7FF000
0F0000
0F0000
0F0000
1F0000
7F8000
ENDCHAR
STARTCHAR brokenbar
ENCODING 166
SWIDTH 253 0
DWIDTH 7 0
BBX 7 24 1 -4
BITMAP
06
06
0C
0C
0C
0C
0C
18
18
18
18
00
00
30
30
30
30
60
60
60
60
60
C0
C0
ENDCHAR
STARTCHAR section
ENCODING 167
SWIDTH 636 0
DWIDTH 17 0
BBX 15 24 2 -5
BITMAP
01FC
070E
0E06
0E04
1E00
1E00
1F80
0FE0
07F0
09F8
187C
383C
3818
3C18
3F30
1FE0
07F0
01F0
00F0
0070
4070
C060
E1C0
7F00
ENDCHAR
STARTCHAR dieresis
ENCODING 168
SWIDTH 599 0
DWIDTH 16 0
BBX 8 3 8 16
BITMAP
E7
E7
E7
ENDCHAR
STARTCHAR copyright
ENCODING 169
SWIDTH 853 0
DWIDTH 22 0
BBX 20 19 3 0
BITMAP
01F800
060600
180100
300080
20FC40
418660
430420
C60030
860030
8E0030
8E0030
CE0030
460020
470860
21F040
300080
180100
060600
01F800
ENDCHAR
STARTCHAR ordfeminine
ENCODING 170
SWIDTH 468 0
DWIDTH 12 0
BBX 11 11 3 8
BITMAP
0FE0
18E0
31E0
71C0
71C0
E3C0
E7C0
EDC0
F9C0
F3C0
63E0
ENDCHAR
STARTCHAR guillemotleft
ENCODING 171
SWIDTH 527 0
DWIDTH 14 0
BBX 13 12 2 1
BITMAP
0210
0738
0E70
1CE0
39C0
77C0
F380
73C0
39C0
38C0
18E0
0C40
ENDCHAR
STARTCHAR logicalnot
ENCODING 172
SWIDTH 636 0
DWIDTH 16 0
BBX 15 7 3 4
BITMAP
FFFE
0006
0006
000C
000C
000C
000C
ENDCHAR
STARTCHAR hyphen
ENCODING 173
SWIDTH 289 0
DWIDTH 8 0
BBX 6 1 2 9
BITMAP
FC
ENDCHAR
STARTCHAR registered
ENCODING 174
SWIDTH 636 0
DWIDTH 17 0
BBX 11 13 5 6
BITMAP
1F00
3080
4040
4FA0
89A0
89A0
8F20
8A20
9B20
5B20
4040
3080
1F00
ENDCHAR
STARTCHAR macron
ENCODING 175
SWIDTH 599 0
DWIDTH 16 0
BBX 8 1 8 18
BITMAP
FF
ENDCHAR
STARTCHAR degree
ENCODING 176
SWIDTH 259 0
DWIDTH 7 0
BBX 4 5 5 14
BITMAP
60
90
90
90
60
ENDCHAR
STARTCHAR plusminus
ENCODING 177
SWIDTH 636 0
DWIDTH 16 0
BBX 17 16 1 0
BITMAP
006000
006000
006000
006000
006000
006000
3FFF80
00C000
00C000
00C000
00C000
008000
018000
000000
000000
FFFE00
ENDCHAR
STARTCHAR twosuperior
ENCODING 178
SWIDTH 381 0
DWIDTH 10 0
BBX 9 11 -16 8
BITMAP
1F00
2380
2180
0380
0300
0E00
1800
2000
4000
FF00
FE00
ENDCHAR
STARTCHAR threesuperior
ENCODING 179
SWIDTH 381 0
DWIDTH 10 0
BBX 9 11 -16 8
BITMAP
3F00
3380
2380
0300
0600
3E00
0700
0300
8700
8600
FC00
ENDCHAR
STARTCHAR acute
ENCODING 180
SWIDTH 599 0
DWIDTH 16 0
BBX 7 4 9 16
BITMAP
1E
38
70
C0
ENDCHAR
STARTCHAR mu
ENCODING 181
SWIDTH 687 0
DWIDTH 18 0
BBX 16 18 2 -4
BITMAP
7E3F
1E0F
1E0F
1E0E
1C1E
3C1E
3C1E
3C3E
3C7C
38FC
79BC
7FBC
7F3C
7E7E
7000
F000
F000
F000
ENDCHAR
STARTCHAR paragraph
ENCODING 182
SWIDTH 636 0
DWIDTH 17 0
BBX 11 23 4 -4
BITMAP
3FE0
7E20
FE20
FE60
FC60
FC40
FC40
7C40
3CC0
08C0
0880
0880
0880
1980
1180
1100
1100
1100
3100
3300
2200
2200
2200
ENDCHAR
STARTCHAR periodcentered
ENCODING 183
SWIDTH 636 0
DWIDTH 16 0
BBX 4 3 8 7
BITMAP
70
F0
E0
ENDCHAR
STARTCHAR cedilla
ENCODING 184
SWIDTH 599 0
DWIDTH 16 0
BBX 5 6 4 -5
BITMAP
30
60
38
18
18
F0
ENDCHAR
STARTCHAR onesuperior
ENCODING 185
SWIDTH 381 0
DWIDTH 10 0
BBX 6 11 -17 8
BITMAP
3C
0C
1C
18
18
18
18
38
30
30
FC
ENDCHAR
STARTCHAR ordmasculine
ENCODING 186
SWIDTH 468 0
DWIDTH 12 0
BBX 12 11 3 8
BITMAP
07C0
1CE0
38E0
70F0
70F0
E0E0
E0E0
E0C0
E180
7300
3C00
ENDCHAR
STARTCHAR guillemotright
ENCODING 187
SWIDTH 527 0
DWIDTH 14 0
BBX 13 12 1 1
BITMAP
1180
38C0
18E0
1CE0
1E70
0E78
1F70
1CE0
39C0
7380
E700
4200
ENDCHAR
STARTCHAR onequarter
ENCODING 188
SWIDTH 818 0
DWIDTH 21 0
BBX 21 19 4 0
BITMAP
3C0038
0C0060
1C00C0
180180
180300
180600
180C00
381800
303860
3070E0
FCE1C0
00C6C0
018CC0
0318C0
0630C0
0C3FE0
180180
300180
E007C0
ENDCHAR
STARTCHAR onehalf
ENCODING 189
SWIDTH 818 0
DWIDTH 21 0
BBX 21 19 4 0
BITMAP
3C0038
0C0060
1C00C0
180180
180300
180600
180C00
381800
303FC0
3078E0
FCE860
00C0E0
0180C0
030380
060600
0C0800
181000
303FC0
E03F80
ENDCHAR
STARTCHAR threequarters
ENCODING 190
SWIDTH 818 0
DWIDTH 21 0
BBX 22 19 5 0
BITMAP
3F001C
338030
238060
0300C0
060180
3E0300
070600
030C00
871C30
863870
FC70E0
006360
00C660
018C60
031860
061FF0
0C00C0
1800C0
7003E0
ENDCHAR
STARTCHAR questiondown
ENCODING 191
SWIDTH 493 0
DWIDTH 13 0
BBX 11 19 1 -5
BITMAP
01E0
01E0
01E0
0000
0000
03C0
03C0
0380
0300
0600
0C00
1800
3000
7000
F000
F060
F040
78C0
3F80
ENDCHAR
STARTCHAR Agrave
ENCODING 192
SWIDTH 765 0
DWIDTH 20 0
BBX 20 24 0 0
BITMAP
001C00
000E00
000600
000300
000000
000E00
000E00
001E00
003E00
002F00
006F00
004F00
00CF00
018700
010780
030780
020780
07FF80
0C03C0
0803C0
1803C0
1003C0
3003E0
F80FF0
ENDCHAR
STARTCHAR Aacute
ENCODING 193
SWIDTH 765 0
DWIDTH 20 0
BBX 20 24 0 0
BITMAP
0001E0
000380
000700
000C00
000000
000E00
000E00
001E00
003E00
002F00
006F00
004F00
00CF00
018700
010780
030780
020780
07FF80
0C03C0
0803C0
1803C0
1003C0
3003E0
F80FF0
ENDCHAR
STARTCHAR Acircumflex
ENCODING 194
SWIDTH 765 0
DWIDTH 20 0
BBX 20 24 0 0
BITMAP
000F00
001F80
003980
0060C0
000000
000E00
000E00
001E00
003E00
002F00
006F00
004F00
00CF00
018700
010780
030780
020780
07FF80
0C03C0
0803C0
1803C0
1003C0
3003E0
F80FF0
ENDCHAR
STARTCHAR Atilde
ENCODING 195
SWIDTH 765 0
DWIDTH 20 0
BBX 20 23 0 0
BITMAP
000E20
001FC0
002380
000000
000E00
000E00
001E00
003E00
002F00
006F00
004F00
00CF00
018700
010780
030780
020780
07FF80
0C03C0
0803C0
1803C0
1003C0
3003E0
F80FF0
ENDCHAR
STARTCHAR Adieresis
ENCODING 196
SWIDTH 765 0
DWIDTH 20 0
BBX 20 23 0 0
BITMAP
0039C0
0039C0
0039C0
000000
000E00
000E00
001E00
003E00
002F00
006F00
004F00
00CF00
018700
010780
030780
020780
07FF80
0C03C0
0803C0
1803C0
1003C0
3003E0
F80FF0
ENDCHAR
STARTCHAR Aring
ENCODING 197
SWIDTH 765 0
DWIDTH 20 0
BBX 20 24 0 0
BITMAP
000600
000900
000900
000600
000000
000E00
000E00
001E00
003E00
002F00
006F00
004F00
00CF00
018700
010780
030780
020780
07FF80
0C03C0
0803C0
1803C0
1003C0
3003E0
F80FF0
ENDCHAR
STARTCHAR AE
ENCODING 198
SWIDTH 958 0
DWIDTH 25 0
BBX 27 19 0 0
BITMAP
0001FFE0
0003E060
0007E0C0
000DC000
000BC000
0013C000
0033C000
0063C300
0043FF00
00878300
01878300
03078000
03FF8000
06070000
0C0F0000
180F0000
380F0300
700F0300
F87FFF00
ENDCHAR
STARTCHAR Ccedilla
ENCODING 199
SWIDTH 740 0
DWIDTH 19 0
BBX 18 24 3 -5
BITMAP
007F80
0383C0
0701C0
0E0180
1C0180
3C0000
380000
780000
780000
F00000
F00000
F00000
F00000
F00000
F80000
780000
7C0000
3E0600
0FF800
040000
070000
030000
030000
1E0000
ENDCHAR
STARTCHAR Egrave
ENCODING 200
SWIDTH 630 0
DWIDTH 16 0
BBX 18 24 1 0
BITMAP
007000
003800
001800
000C00
000000
0FFFC0
07C0C0
078180
078000
078000
078000
078000
0F8000
0F0600
0FFC00
0F0400
0F0C00
1E0000
1E0000
1E0000
1E0000
1E0600
3E0600
FFFE00
ENDCHAR
STARTCHAR Eacute
ENCODING 201
SWIDTH 630 0
DWIDTH 16 0
BBX 18 24 1 0
BITMAP
000F00
001C00
003800
006000
000000
0FFFC0
07C0C0
078180
078000
078000
078000
078000
0F8000
0F0600
0FFC00
0F0400
0F0C00
1E0000
1E0000
1E0000
1E0000
1E0600
3E0600
FFFE00
ENDCHAR
STARTCHAR Ecircumflex
ENCODING 202
SWIDTH 630 0
DWIDTH 16 0
BBX 18 24 1 0
BITMAP
003C00
007E00
00E600
018300
000000
0FFFC0
07C0C0
078180
078000
078000
078000
078000
0F8000
0F0600
0FFC00
0F0400
0F0C00
1E0000
1E0000
1E0000
1E0000
1E0600
3E0600
FFFE00
ENDCHAR
STARTCHAR Edieresis
ENCODING 203
SWIDTH 630 0
DWIDTH 16 0
BBX 18 23 1 0
BITMAP
00E700
00E700
00E700
000000
0FFFC0
07C0C0
078180
078000
078000
078000
078000
0F8000
0F0600
0FFC00
0F0400
0F0C00
1E0000
1E0000
1E0000
1E0000
1E0600
3E0600
FFFE00
ENDCHAR
STARTCHAR Igrave
ENCODING 204
SWIDTH 372 0
DWIDTH 10 0
BBX 12 24 1 0
BITMAP
0700
0380
0180
00C0
0000
0FF0
07C0
0780
0780
0780
0780
0780
0F00
0F00
0F00
0F00
0F00
1E00
1E00
1E00
1E00
1E00
3E00
FF00
ENDCHAR
STARTCHAR Iacute
ENCODING 205
SWIDTH 372 0
DWIDTH 10 0
BBX 13 24 1 0
BITMAP
0078
00E0
01C0
0300
0000
0FF0
07C0
0780
0780
0780
0780
0780
0F00
0F00
0F00
0F00
0F00
1E00
1E00
1E00
1E00
1E00
3E00
FF00
ENDCHAR
STARTCHAR Icircumflex
ENCODING 206
SWIDTH 372 0
DWIDTH 10 0
BBX 13 24 1 0
BITMAP
01E0
03F0
0730
0C18
0000
0FF0
07C0
0780
0780
0780
0780
0780
0F00
0F00
0F00
0F00
0F00
1E00
1E00
1E00
1E00
1E00
3E00
FF00
ENDCHAR
STARTCHAR Idieresis
ENCODING 207
SWIDTH 372 0
DWIDTH 10 0
BBX 12 23 1 0
BITMAP
0E70
0E70
0E70
0000
0FF0
07C0
0780
0780
0780
0780
0780
0F00
0F00
0F00
0F00
0F00
1E00
1E00
1E00
1E00
1E00
3E00
FF00
ENDCHAR
STARTCHAR Eth
ENCODING 208
SWIDTH 822 0
DWIDTH 21 0
BBX 21 19 1 0
BITMAP
1FFF80
0783E0
0780F0
0780F0
078078
078078
0F0078
0F0078
0F0078
7FF078
0F00F0
1E00F0
1E00F0
1E01E0
1E01E0
1E03C0
3E0780
3E1E00
FFF800
ENDCHAR
STARTCHAR Ntilde
ENCODING 209
SWIDTH 797 0
DWIDTH 21 0
BBX 23 23 1 0
BITMAP
000E20
001FC0
002380
000000
0F807E
078038
07C030
07C030
07E030
07F030
06F030
0C7860
0C7860
0C3C60
0C3C60
0C1E60
181E40
180FC0
180FC0
1807C0
1803C0
380380
FC0180
ENDCHAR
STARTCHAR Ograve
ENCODING 210
SWIDTH 831 0
DWIDTH 22 0
BBX 20 24 3 0
BITMAP
007000
003800
001800
000C00
000000
007E00
01C380
0701C0
0E01E0
1C01E0
3C00F0
7800F0
7800F0
7800F0
F801E0
F001E0
F001E0
F001C0
F003C0
F00780
780700
780E00
3C3800
0FE000
ENDCHAR
STARTCHAR Oacute
ENCODING 211
SWIDTH 831 0
DWIDTH 22 0
BBX 20 24 3 0
BITMAP
000780
000E00
001C00
003000
000000
007E00
01C380
0701C0
0E01E0
1C01E0
3C00F0
7800F0
7800F0
7800F0
F801E0
F001E0
F001E0
F001C0
F003C0
F00780
780700
780E00
3C3800
0FE000
ENDCHAR
STARTCHAR Ocircumflex
ENCODING 212
SWIDTH 831 0
DWIDTH 22 0
BBX 20 24 3 0
BITMAP
003C00
007E00
00E600
018300
000000
007E00
01C380
0701C0
0E01E0
1C01E0
3C00F0
7800F0
7800F0
7800F0
F801E0
F001E0
F001E0
F001C0
F003C0
F00780
780700
780E00
3C3800
0FE000
ENDCHAR
STARTCHAR Otilde
ENCODING 213
SWIDTH 831 0
DWIDTH 22 0
BBX 20 23 3 0
BITMAP
003880
007F00
008E00
000000
007E00
01C380
0701C0
0E01E0
1C01E0
3C00F0
7800F0
7800F0
7800F0
F801E0
F001E0
F001E0
F001C0
F003C0
F00780
780700
780E00
3C3800
0FE000
ENDCHAR
STARTCHAR Odieresis
ENCODING 214
SWIDTH 831 0
DWIDTH 22 0
BBX 20 23 3 0
BITMAP
00E700
00E700
00E700
000000
007E00
01C380
0701C0
0E01E0
1C01E0
3C00F0
7800F0
7800F0
7800F0
F801E0
F001E0
F001E0
F001C0
F003C0
F00780
780700
780E00
3C3800
0FE000
ENDCHAR
STARTCHAR multiply
ENCODING 215
SWIDTH 636 0
DWIDTH 16 0
BBX 18 16 1 0
BITMAP
080080
1801C0
1C0380
0E0700
070C00
031800
01B000
01E000
01E000
036000
063000
0C3800
381C00
700E00
E00600
400400
ENDCHAR
STARTCHAR Oslash
ENCODING 216
SWIDTH 831 0
DWIDTH 22 0
BBX 23 19 1 0
BITMAP
001F86
00E1E8
0180F0
078078
0700F8
0E01F8
1E0378
1C0478
3C0878
3C1078
3C2078
3C4070
3C80F0
3F00E0
3E01E0
3C03C0
1E0700
3F0E00
E3F000
ENDCHAR
STARTCHAR Ugrave
ENCODING 217
SWIDTH 775 0
DWIDTH 20 0
BBX 19 24 4 0
BITMAP
01C000
00E000
006000
003000
000000
FF07E0
3E0180
3C0180
3C0100
3C0100
780100
780300
780200
780200
780200
F00200
F00600
F00400
F00400
F00400
F00800
701800
383000
1FC000
ENDCHAR
STARTCHAR Uacute
ENCODING 218
SWIDTH 775 0
DWIDTH 20 0
BBX 19 24 4 0
BITMAP
001E00
003800
007000
00C000
000000
FF07E0
3E0180
3C0180
3C0100
3C0100
780100
780300
780200
780200
780200
F00200
F00600
F00400
F00400
F00400
F00800
701800
383000
1FC000
ENDCHAR
STARTCHAR Ucircumflex
ENCODING 219
SWIDTH 775 0
DWIDTH 20 0
BBX 19 24 4 0
BITMAP
007800
00FC00
01CC00
030600
000000
FF07E0
3E0180
3C0180
3C0100
3C0100
780100
780300
780200
780200
780200
F00200
F00600
F00400
F00400
F00400
F00800
701800
383000
1FC000
ENDCHAR
STARTCHAR Udieresis
ENCODING 220
SWIDTH 775 0
DWIDTH 20 0
BBX 19 23 4 0
BITMAP
039C00
039C00
039C00
000000
FF07E0
3E0180
3C0180
3C0100
3C0100
780100
780300
780200
780200
780200
F00200
F00600
F00400
F00400
F00400
F00800
701800
383000
1FC000
ENDCHAR
STARTCHAR Yacute
ENCODING 221
SWIDTH 669 0
DWIDTH 17 0
BBX 18 24 3 0
BITMAP
003C00
007000
00E000
018000
000000
FF07C0
7C0300
3C0200
3C0600
1E0C00
1E1800
1E3000
0F2000
0F6000
07C000
078000
078000
078000
0F0000
0F0000
0F0000
0F0000
1F0000
7FC000
ENDCHAR
STARTCHAR Thorn
ENCODING 222
SWIDTH 628 0
DWIDTH 16 0
BBX 17 19 1 0
BITMAP
0FF000
07C000
078000
078000
07FE00
078F00
070780
0F0780
0F0780
0F0780
0F0700
0E0F00
1E0E00
1E3C00
1FF000
1E0000
3C0000
3C0000
FF0000
ENDCHAR
STARTCHAR germandbls
ENCODING 223
SWIDTH 656 0
DWIDTH 17 0
BBX 16 25 1 -5
BITMAP
00FC
039E
078E
070E
0F0E
0F1C
0F18
0E30
1E60
1E70
1EF8
1E7C
1C3E
3C1E
3C0F
3C07
3C07
3987
798E
79F8
7800
7800
7000
F000
F000
ENDCHAR
STARTCHAR agrave
ENCODING 224
SWIDTH 634 0
DWIDTH 16 0
BBX 15 19 2 0
BITMAP
01C0
00E0
0060
0030
0000
01FE
063E
0C1E
181C
383C
783C
707C
707C
F0B8
F1F8
F378
FE78
FC78
787C
ENDCHAR
STARTCHAR aacute
ENCODING 225
SWIDTH 634 0
DWIDTH 16 0
BBX 15 19 2 0
BITMAP
001E
0038
0070
00C0
0000
01FE
063E
0C1E
181C
383C
783C
707C
707C
F0B8
F1F8
F378
FE78
FC78
787C
ENDCHAR
STARTCHAR acircumflex
ENCODING 226
SWIDTH 634 0
DWIDTH 16 0
BBX 15 19 2 0
BITMAP
0078
00FC
01CC
0306
0000
01FE
063E
0C1E
181C
383C
783C
707C
707C
F0B8
F1F8
F378
FE78
FC78
787C
ENDCHAR
STARTCHAR atilde
ENCODING 227
SWIDTH 634 0
DWIDTH 16 0
BBX 15 18 2 0
BITMAP
00E2
01FC
0238
0000
01FE
063E
0C1E
181C
383C
783C
707C
707C
F0B8
F1F8
F378
FE78
FC78
787C
ENDCHAR
STARTCHAR adieresis
ENCODING 228
SWIDTH 634 0
DWIDTH 16 0
BBX 15 18 2 0
BITMAP
039C
039C
039C
0000
01FE
063E
0C1E
181C
383C
783C
707C
707C
F0B8
F1F8
F378
FE78
FC78
787C
ENDCHAR
STARTCHAR aring
ENCODING 229
SWIDTH 634 0
DWIDTH 16 0
BBX 15 19 2 0
BITMAP
0030
0048
0048
0030
0000
01FE
063E
0C1E
181C
383C
783C
707C
707C
F0B8
F1F8
F378
FE78
FC78
787C
ENDCHAR
STARTCHAR ae
ENCODING 230
SWIDTH 905 0
DWIDTH 24 0
BBX 22 14 2 0
BITMAP
01FEF8
063F3C
0C1E3C
181C1C
383C3C
783C38
703C78
707CE0
F0FF80
F1B800
F33800
FE3C04
FC1E1C
780FE0
ENDCHAR
STARTCHAR ccedilla
ENCODING 231
SWIDTH 524 0
DWIDTH 14 0
BBX 13 19 2 -5
BITMAP
01F8
0638
1C18
3818
3800
7800
7000
F000
F000
F000
F000
F000
7820
1FC0
3000
1C00
0C00
0C00
7800
ENDCHAR
STARTCHAR egrave
ENCODING 232
SWIDTH 548 0
DWIDTH 14 0
BBX 13 19 2 0
BITMAP
0380
01C0
00C0
0060
0000
03E0
0470
1C78
3878
3870
7070
70E0
F3C0
FF00
F000
F000
F010
7870
1F80
ENDCHAR
STARTCHAR eacute
ENCODING 233
SWIDTH 548 0
DWIDTH 14 0
BBX 14 19 2 0
BITMAP
003C
0070
00E0
0180
0000
03E0
0470
1C78
3878
3870
7070
70E0
F3C0
FF00
F000
F000
F010
7870
1F80
ENDCHAR
STARTCHAR ecircumflex
ENCODING 234
SWIDTH 548 0
DWIDTH 14 0
BBX 13 19 2 0
BITMAP
01E0
03F0
0730
0C18
0000
03E0
0470
1C78
3878
3870
7070
70E0
F3C0
FF00
F000
F000
F010
7870
1F80
ENDCHAR
STARTCHAR edieresis
ENCODING 235
SWIDTH 548 0
DWIDTH 14 0
BBX 13 18 2 0
BITMAP
0738
0738
0738
0000
03E0
0470
1C78
3878
3870
7070
70E0
F3C0
FF00
F000
F000
F010
7870
1F80
ENDCHAR
STARTCHAR igrave
ENCODING 236
SWIDTH 319 0
DWIDTH 8 0
BBX 8 19 2 0
BITMAP
1C
0E
06
03
00
7E
3E
3C
3C
3C
3C
38
38
78
78
78
78
F8
FC
ENDCHAR
STARTCHAR iacute
ENCODING 237
SWIDTH 319 0
DWIDTH 8 0
BBX 11 19 2 0
BITMAP
01E0
0380
0700
0C00
0000
7E00
3E00
3C00
3C00
3C00
3C00
3800
3800
7800
7800
7800
7800
F800
FC00
ENDCHAR
STARTCHAR icircumflex
ENCODING 238
SWIDTH 319 0
DWIDTH 8 0
BBX 10 19 2 0
BITMAP
0F00
1F80
3980
60C0
0000
7E00
3E00
3C00
3C00
3C00
3C00
3800
3800
7800
7800
7800
7800
F800
FC00
ENDCHAR
STARTCHAR idieresis
ENCODING 239
SWIDTH 319 0
DWIDTH 8 0
BBX 10 18 2 0
BITMAP
39C0
39C0
39C0
0000
7E00
3E00
3C00
3C00
3C00
3C00
3800
3800
7800
7800
7800
7800
F800
FC00
ENDCHAR
STARTCHAR eth
ENCODING 240
SWIDTH 617 0
DWIDTH 16 0
BBX 14 20 2 0
BITMAP
1F08
07F0
01E0
0370
0670
0038
03FC
063C
1C3C
383C
383C
703C
703C
F03C
F038
F038
F070
F860
78C0
1F00
ENDCHAR
STARTCHAR ntilde
ENCODING 241
SWIDTH 656 0
DWIDTH 17 0
BBX 15 18 2 0
BITMAP
00E2
01FC
0238
0000
7E1C
3C7E
3CFE
3D9E
3D1E
3E1C
3C1C
7C3C
783C
783C
7838
7078
F078
F07E
ENDCHAR
STARTCHAR ograve
ENCODING 242
SWIDTH 599 0
DWIDTH 16 0
BBX 14 19 2 0
BITMAP
01C0
00E0
0060
0030
0000
01F0
0638
1C3C
3C3C
383C
783C
703C
F03C
F038
F038
F070
F060
78C0
3F00
ENDCHAR
STARTCHAR oacute
ENCODING 243
SWIDTH 599 0
DWIDTH 16 0
BBX 14 19 2 0
BITMAP
003C
0070
00E0
0180
0000
01F0
0638
1C3C
3C3C
383C
783C
703C
F03C
F038
F038
F070
F060
78C0
3F00
ENDCHAR
STARTCHAR ocircumflex
ENCODING 244
SWIDTH 599 0
DWIDTH 16 0
BBX 14 19 2 0
BITMAP
00F0
01F8
0398
060C
0000
01F0
0638
1C3C
3C3C
383C
783C
703C
F03C
F038
F038
F070
F060
78C0
3F00
ENDCHAR
STARTCHAR otilde
ENCODING 245
SWIDTH 599 0
DWIDTH 16 0
BBX 14 18 2 0
BITMAP
01C4
03F8
0470
0000
01F0
0638
1C3C
3C3C
383C
783C
703C
F03C
F038
F038
F070
F060
78C0
3F00
ENDCHAR
STARTCHAR odieresis
ENCODING 246
SWIDTH 599 0
DWIDTH 16 0
BBX 14 18 2 0
BITMAP
039C
039C
039C
0000
01F0
0638
1C3C
3C3C
383C
783C
703C
F03C
F038
F038
F070
F060
78C0
3F00
ENDCHAR
STARTCHAR divide
ENCODING 247
SWIDTH 636 0
DWIDTH 16 0
BBX 15 14 2 0
BITMAP
01C0
01C0
01C0
0000
0000
0000
0000
FFFE
0000
0000
0000
0700
0700
0700
ENDCHAR
STARTCHAR oslash
ENCODING 248
SWIDTH 599 0
DWIDTH 16 0
BBX 17 14 1 0
BITMAP
00FB80
031E00
0E1E00
1C1F00
1C3F00
3C6F00
38CE00
798E00
7B1E00
7E1C00
7C3800
783000
3C6000
DF8000
ENDCHAR
STARTCHAR ugrave
ENCODING 249
SWIDTH 655 0
DWIDTH 17 0
BBX 15 19 3 0
BITMAP
01C0
00E0
0060
0030
0000
FC7E
3C1E
3C1C
383C
783C
783C
787C
7078
70F8
F1F8
F378
FE78
FC78
70FC
ENDCHAR
STARTCHAR uacute
ENCODING 250
SWIDTH 655 0
DWIDTH 17 0
BBX 15 19 3 0
BITMAP
003C
0070
00E0
0180
0000
FC7E
3C1E
3C1C
383C
783C
783C
787C
7078
70F8
F1F8
F378
FE78
FC78
70FC
ENDCHAR
STARTCHAR ucircumflex
ENCODING 251
SWIDTH 655 0
DWIDTH 17 0
BBX 15 19 3 0
BITMAP
00F0
01F8
0398
060C
0000
FC7E
3C1E
3C1C
383C
783C
783C
787C
7078
70F8
F1F8
F378
FE78
FC78
70FC
ENDCHAR
STARTCHAR udieresis
ENCODING 252
SWIDTH 655 0
DWIDTH 17 0
BBX 15 18 3 0
BITMAP
039C
039C
039C
0000
FC7E
3C1E
3C1C
383C
783C
783C
787C
7078
70F8
F1F8
F378
FE78
FC78
70FC
ENDCHAR
STARTCHAR yacute
ENCODING 253
SWIDTH 586 0
DWIDTH 15 0
BBX 18 24 0 -5
BITMAP
000780
000E00
001C00
003000
000000
1F07C0
0F03C0
0781C0
078180
078380
038300
03C600
03CC00
03D800
03F000
01E000
01E000
01C000
018000
030000
060000
0C0000
1C0000
F80000
ENDCHAR
STARTCHAR thorn
ENCODING 254
SWIDTH 639 0
DWIDTH 17 0
BBX 16 23 1 -5
BITMAP
3F00
1F00
0F00
0E00
0E1E
1E3F
1E7F
1ECF
1F8F
1D0F
3E0F
3C0E
3C1E
3C1C
3818
7830
7C60
7F80
7800
7000
F000
F000
F000
ENDCHAR
STARTCHAR ydieresis
ENCODING 255
SWIDTH 586 0
DWIDTH 15 0
BBX 18 23 0 -5
BITMAP
00E700
00E700
00E700
000000
1F07C0
0F03C0
0781C0
078180
078380
038300
03C600
03CC00
03D800
03F000
01E000
01E000
01C000
018000
030000
060000
0C0000
1C0000
F80000
ENDCHAR
STARTCHAR Amacron
ENCODING 256
SWIDTH 765 0
DWIDTH 20 0
BBX 20 21 0 0
BITMAP
00FF00
000000
000E00
000E00
001E00
003E00
002F00
006F00
004F00
00CF00
018700
010780
030780
020780
07FF80
0C03C0
0803C0
1803C0
1003C0
3003E0
F80FF0
ENDCHAR
STARTCHAR amacron
ENCODING 257
SWIDTH 634 0
DWIDTH 16 0
BBX 15 16 2 0
BITMAP
07F8
0000
01FE
063E
0C1E
181C
383C
783C
707C
707C
F0B8
F1F8
F378
FE78
FC78
787C
ENDCHAR
STARTCHAR Abreve
ENCODING 258
SWIDTH 765 0
DWIDTH 20 0
BBX 20 24 0 0
BITMAP
008180
00E300
007E00
003C00
000000
000E00
000E00
001E00
003E00
002F00
006F00
004F00
00CF00
018700
010780
030780
020780
07FF80
0C03C0
0803C0
1803C0
1003C0
3003E0
F80FF0
ENDCHAR
STARTCHAR abreve
ENCODING 259
SWIDTH 634 0
DWIDTH 16 0
BBX 15 19 2 0
BITMAP
040C
0718
03F0
01E0
0000
01FE
063E
0C1E
181C
383C
783C
707C
707C
F0B8
F1F8
F378
FE78
FC78
787C
ENDCHAR
STARTCHAR Aogonek
ENCODING 260
SWIDTH 765 0
DWIDTH 20 0
BBX 20 23 0 -4
BITMAP
000E00
000E00
001E00
003E00
002F00
006F00
004F00
00CF00
018700
010780
030780
020780
07FF80
0C03C0
0803C0
1803C0
1003C0
3003E0
F80FF0
003800
007000
007400
003C00
ENDCHAR
STARTCHAR aogonek
ENCODING 261
SWIDTH 634 0
DWIDTH 16 0
BBX 15 18 2 -4
BITMAP
01FE
063E
0C1E
181C
383C
783C
707C
707C
F0B8
F1F8
F378
FE78
FC78
787C
0380
0700
0740
03C0
ENDCHAR
STARTCHAR Cacute
ENCODING 262
SWIDTH 740 0
DWIDTH 19 0
BBX 18 24 3 0
BITMAP
001E00
003800
007000
00C000
000000
007F80
0383C0
0701C0
0E0180
1C0180
3C0000
380000
780000
780000
F00000
F00000
F00000
F00000
F00000
F80000
780000
7C0000
3E0600
0FF800
ENDCHAR
STARTCHAR cacute
ENCODING 263
SWIDTH 524 0
DWIDTH 14 0
BBX 13 19 2 0
BITMAP
00F0
01C0
0380
0600
0000
01F8
0638
1C18
3818
3800
7800
7000
F000
F000
F000
F000
F000
7820
1FC0
ENDCHAR
STARTCHAR Ccircumflex
ENCODING 264
SWIDTH 740 0
DWIDTH 19 0
BBX 18 24 3 0
BITMAP
007800
00FC00
01CC00
030600
000000
007F80
0383C0
0701C0
0E0180
1C0180
3C0000
380000
780000
780000
F00000
F00000
F00000
F00000
F00000
F80000
780000
7C0000
3E0600
0FF800
ENDCHAR
STARTCHAR ccircumflex
ENCODING 265
SWIDTH 524 0
DWIDTH 14 0
BBX 13 19 2 0
BITMAP
03C0
07E0
0E60
1830
0000
01F8
0638
1C18
3818
3800
7800
7000
F000
F000
F000
F000
F000
7820
1FC0
ENDCHAR
STARTCHAR Cdotaccent
ENCODING 266
SWIDTH 740 0
DWIDTH 19 0
BBX 18 23 3 0
BITMAP
003800
007800
007000
000000
007F80
0383C0
0701C0
0E0180
1C0180
3C0000
380000
780000
780000
F00000
F00000
F00000
F00000
F00000
F80000
780000
7C0000
3E0600
0FF800
ENDCHAR
STARTCHAR cdotaccent
ENCODING 267
SWIDTH 524 0
DWIDTH 14 0
BBX 13 18 2 0
BITMAP
01C0
03C0
0380
0000
01F8
0638
1C18
3818
3800
7800
7000
F000
F000
F000
F000
F000
7820
1FC0
ENDCHAR
STARTCHAR Ccaron
ENCODING 268
SWIDTH 740 0
DWIDTH 19 0
BBX 18 24 3 0
BITMAP
030600
019C00
01F800
00F000
000000
007F80
0383C0
0701C0
0E0180
1C0180
3C0000
380000
780000
780000
F00000
F00000
F00000
F00000
F00000
F80000
780000
7C0000
3E0600
0FF800
ENDCHAR
STARTCHAR ccaron
ENCODING 269
SWIDTH 524 0
DWIDTH 14 0
BBX 13 19 2 0
BITMAP
0C18
0670
07E0
03C0
0000
01F8
0638
1C18
3818
3800
7800
7000
F000
F000
F000
F000
F000
7820
1FC0
ENDCHAR
STARTCHAR Dcaron
ENCODING 270
SWIDTH 822 0
DWIDTH 21 0
BBX 21 24 1 0
BITMAP
018300
00CE00
00FC00
007800
000000
1FFF80
0783E0
0780F0
0780F0
078078
078078
0F0078
0F0078
0F0078
0F0078
0F00F0
0E00F0
1E00F0
1E01E0
1E01E0
1E03C0
3E0780
3E1E00
FFF800
ENDCHAR
STARTCHAR dcaron
ENCODING 271
SWIDTH 867 0
DWIDTH 22 0
BBX 23 20 2 0
BITMAP
003F1E
000F3E
000F3C
000E3C
001E1C
001E1C
01FE38
063E78
0C1C60
183C00
383C00
783C00
703C00
707800
F0B800
F1F800
F37800
FE7800
FC7800
78FC00
ENDCHAR
STARTCHAR Dcroat
ENCODING 272
SWIDTH 822 0
DWIDTH 21 0
BBX 21 19 1 0
BITMAP
1FFF80
0783E0
0780F0
0780F0
078078
078078
0F0078
0F0078
0F0078
7FF078
0F00F0
1E00F0
1E00F0
1E01E0
1E01E0
1E03C0
3E0780
3E1E00
FFF800
ENDCHAR
STARTCHAR dcroat
ENCODING 273
SWIDTH 634 0
DWIDTH 16 0
BBX 18 20 2 0
BITMAP
003F00
000F00
000F00
000E00
03FFC0
001E00
01FE00
063E00
0C1C00
183C00
383C00
783C00
703C00
707800
F0B800
F1F800
F37800
FE7800
FC7800
78FC00
ENDCHAR
STARTCHAR Emacron
ENCODING 274
SWIDTH 630 0
DWIDTH 16 0
BBX 18 21 1 0
BITMAP
03FC00
000000
0FFFC0
07C0C0
078180
078000
078000
078000
078000
0F8000
0F0600
0FFC00
0F0400
0F0C00
1E0000
1E0000
1E0000
1E0000
1E0600
3E0600
FFFE00
ENDCHAR
STARTCHAR emacron
ENCODING 275
SWIDTH 548 0
DWIDTH 14 0
BBX 13 16 2 0
BITMAP
0FF0
0000
03E0
0470
1C78
3878
3870
7070
70E0
F3C0
FF00
F000
F000
F010
7870
1F80
ENDCHAR
STARTCHAR Ebreve
ENCODING 276
SWIDTH 630 0
DWIDTH 16 0
BBX 18 24 1 0
BITMAP
040C00
071800
03F000
01E000
000000
0FFFC0
07C0C0
078180
078000
078000
078000
078000
0F8000
0F0600
0FFC00
0F0400
0F0C00
1E0000
1E0000
1E0000
1E0000
1E0600
3E0600
FFFE00
ENDCHAR
STARTCHAR ebreve
ENCODING 277
SWIDTH 548 0
DWIDTH 14 0
BBX 13 19 2 0
BITMAP
0818
0E30
07E0
03C0
0000
03E0
0470
1C78
3878
3870
7070
70E0
F3C0
FF00
F000
F000
F010
7870
1F80
ENDCHAR
STARTCHAR Edotaccent
ENCODING 278
SWIDTH 630 0
DWIDTH 16 0
BBX 18 23 1 0
BITMAP
007000
00F000
00E000
000000
0FFFC0
07C0C0
078180
078000
078000
078000
078000
0F8000
0F0600
0FFC00
0F0400
0F0C00
1E0000
1E0000
1E0000
1E0000
1E0600
3E0600
FFFE00
ENDCHAR
STARTCHAR edotaccent
ENCODING 279
SWIDTH 548 0
DWIDTH 14 0
BBX 13 18 2 0
BITMAP
01C0
03C0
0380
0000
03E0
0470
1C78
3878
3870
7070
70E0
F3C0
FF00
F000
F000
F010
7870
1F80
ENDCHAR
STARTCHAR Eogonek
ENCODING 280
SWIDTH 630 0
DWIDTH 16 0
BBX 18 23 1 -4
BITMAP
0FFFC0
07C0C0
078180
078000
078000
078000
078000
0F8000
0F0600
0FFC00
0F0400
0F0C00
1E0000
1E0000
1E0000
1E0000
1E0600
3E0600
FFFE00
038000
070000
074000
03C000
ENDCHAR
STARTCHAR eogonek
ENCODING 281
SWIDTH 548 0
DWIDTH 14 0
BBX 13 18 2 -4
BITMAP
03E0
0470
1C78
3878
3870
7070
70E0
F3C0
FF00
F000
F000
F010
7870
1F80
0E00
1C00
1D00
0F00
ENDCHAR
STARTCHAR Ecaron
ENCODING 282
SWIDTH 630 0
DWIDTH 16 0
BBX 18 24 1 0
BITMAP
060C00
033800
03F000
01E000
000000
0FFFC0
07C0C0
078180
078000
078000
078000
078000
0F8000
0F0600
0FFC00
0F0400
0F0C00
1E0000
1E0000
1E0000
1E0000
1E0600
3E0600
FFFE00
ENDCHAR
STARTCHAR ecaron
ENCODING 283
SWIDTH 548 0
DWIDTH 14 0
BBX 13 19 2 0
BITMAP
0C18
0670
07E0
03C0
0000
03E0
0470
1C78
3878
3870
7070
70E0
F3C0
FF00
F000
F000
F010
7870
1F80
ENDCHAR
STARTCHAR Gcircumflex
ENCODING 284
SWIDTH 780 0
DWIDTH 20 0
BBX 18 24 3 0
BITMAP
007800
00FC00
01CC00
030600
000000
00FF80
03C3C0
0701C0
0E0180
1C0180
3C0000
380000
780000
780000
F00000
F03FC0
F00F00
F00F00
F00E00
F01E00
781E00
781E00
3E1E00
0FF000
ENDCHAR
STARTCHAR gcircumflex
ENCODING 285
SWIDTH 628 0
DWIDTH 16 0
BBX 16 24 1 -5
BITMAP
0078
00FC
01CC
0306
0000
00FF
031F
060F
0C0E
1C0E
3C1E
383E
783E
785C
78FC
79BC
7F3C
7E38
3C38
0078
8070
C070
70C0
7F00
ENDCHAR
STARTCHAR Gbreve
ENCODING 286
SWIDTH 780 0
DWIDTH 20 0
BBX 18 24 3 0
BITMAP
020600
038C00
01F800
00F000
000000
00FF80
03C3C0
0701C0
0E0180
1C0180
3C0000
380000
780000
780000
F00000
F03FC0
F00F00
F00F00
F00E00
F01E00
781E00
781E00
3E1E00
0FF000
ENDCHAR
STARTCHAR gbreve
ENCODING 287
SWIDTH 628 0
DWIDTH 16 0
BBX 16 24 1 -5
BITMAP
0206
038C
01F8
00F0
0000
00FF
031F
060F
0C0E
1C0E
3C1E
383E
783E
785C
78FC
79BC
7F3C
7E38
3C38
0078
8070
C070
70C0
7F00
ENDCHAR
STARTCHAR Gdotaccent
ENCODING 288
SWIDTH 780 0
DWIDTH 20 0
BBX 18 23 3 0
BITMAP
003800
007800
007000
000000
00FF80
03C3C0
0701C0
0E0180
1C0180
3C0000
380000
780000
780000
F00000
F03FC0
F00F00
F00F00
F00E00
F01E00
781E00
781E00
3E1E00
0FF000
ENDCHAR
STARTCHAR gdotaccent
ENCODING 289
SWIDTH 628 0
DWIDTH 16 0
BBX 16 23 1 -5
BITMAP
0070
00F0
00E0
0000
00FF
031F
060F
0C0E
1C0E
3C1E
383E
783E
785C
78FC
79BC
7F3C
7E38
3C38
0078
8070
C070
70C0
7F00
ENDCHAR
STARTCHAR Gcommaaccent
ENCODING 290
SWIDTH 780 0
DWIDTH 20 0
BBX 18 30 3 -11
BITMAP
00FF80
03C3C0
0701C0
0E0180
1C0180
3C0000
380000
780000
780000
F00000
F03FC0
F00F00
F00F00
F00E00
F01E00
781E00
781E00
3E1E00
0FF000
000000
01E000
03E000
03E000
03C000
03C000
01C000
01C000
018000
070000
060000
ENDCHAR
STARTCHAR gcommaaccent
ENCODING 291
SWIDTH 628 0
DWIDTH 16 0
BBX 16 29 1 -5
BITMAP
0018
0078
0060
00E0
00E0
00F0
00F0
01F0
01E0
0000
00FF
031F
060F
0C0E
1C0E
3C1E
383E
783E
785C
78FC
79BC
7F3C
7E38
3C38
0078
8070
C070
70C0
7F00
ENDCHAR
STARTCHAR Hcircumflex
ENCODING 292
SWIDTH 827 0
DWIDTH 22 0
BBX 23 24 1 0
BITMAP
001E00
003F00
007300
00C180
000000
1FF1FE
07C078
078078
0780F0
0780F0
0780F0
0F00F0
0F00F0
0F00E0
0FFFE0
0F01E0
1E01E0
1E01E0
1E01C0
1E03C0
1E03C0
3C03C0
3C07C0
FF1FF0
ENDCHAR
STARTCHAR hcircumflex
ENCODING 293
SWIDTH 656 0
DWIDTH 17 0
BBX 15 25 2 0
BITMAP
0780
0FC0
1CC0
3060
0000
3F00
1F00
0E00
1E00
1E00
1E00
1E1C
1C7E
3CFE
3D9E
3F1E
3E1C
3C1C
7C3C
783C
783C
7838
7078
F078
F07E
ENDCHAR
STARTCHAR Hbar
ENCODING 294
SWIDTH 827 0
DWIDTH 22 0
BBX 23 19 1 0
BITMAP
1FF1FE
07C078
078078
0780F0
FFFFFE
0780F0
0F00F0
0F00F0
0F00E0
0FFFE0
0F01E0
1E01E0
1E01E0
1E01C0
1E03C0
1E03C0
3C03C0
3C07C0
FF1FF0
ENDCHAR
STARTCHAR hbar
ENCODING 295
SWIDTH 656 0
DWIDTH 17 0
BBX 17 20 0 0
BITMAP
0FC000
07C000
038000
078000
FFF000
078000
078700
071F80
0F3F80
0F6780
0FC780
0F8700
0F0700
1F0F00
1E0F00
1E0F00
1E0E00
1C1E00
3C1E00
3C1F80
ENDCHAR
STARTCHAR Itilde
ENCODING 296
SWIDTH 372 0
DWIDTH 10 0
BBX 12 23 1 0
BITMAP
0710
0FE0
11C0
0000
0FF0
07C0
0780
0780
0780
0780
0780
0F00
0F00
0F00
0F00
0F00
1E00
1E00
1E00
1E00
1E00
3E00
FF00
ENDCHAR
STARTCHAR itilde
ENCODING 297
SWIDTH 319 0
DWIDTH 8 0
BBX 9 18 2 0
BITMAP
3880
7F00
8E00
0000
7E00
3E00
3C00
3C00
3C00
3C00
3800
3800
7800
7800
7800
7800
F800
FC00
ENDCHAR
STARTCHAR Imacron
ENCODING 298
SWIDTH 372 0
DWIDTH 10 0
BBX 12 21 1 0
BITMAP
1FE0
0000
0FF0
07C0
0780
0780
0780
0780
0780
0F00
0F00
0F00
0F00
0F00
1E00
1E00
1E00
1E00
1E00
3E00
FF00
ENDCHAR
STARTCHAR imacron
ENCODING 299
SWIDTH 319 0
DWIDTH 8 0
BBX 8 16 2 0
BITMAP
FF
00
7E
3E
3C
3C
3C
3C
38
38
78
78
78
78
F8
FC
ENDCHAR
STARTCHAR Ibreve
ENCODING 300
SWIDTH 372 0
DWIDTH 10 0
BBX 12 24 1 0
BITMAP
1030
1C60
0FC0
0780
0000
0FF0
07C0
0780
0780
0780
0780
0780
0F00
0F00
0F00
0F00
0F00
1E00
1E00
1E00
1E00
1E00
3E00
FF00
ENDCHAR
STARTCHAR ibreve
ENCODING 301
SWIDTH 319 0
DWIDTH 8 0
BBX 9 19 2 0
BITMAP
8180
E300
7E00
3C00
0000
7E00
3E00
3C00
3C00
3C00
3C00
3800
3800
7800
7800
7800
7800
F800
FC00
ENDCHAR
STARTCHAR Iogonek
ENCODING 302
SWIDTH 372 0
DWIDTH 10 0
BBX 12 23 1 -4
BITMAP
0FF0
07C0
0780
0780
0780
0780
0780
0F00
0F00
0F00
0F00
0F00
1E00
1E00
1E00
1E00
1E00
3E00
FF00
0E00
1C00
1D00
0F00
ENDCHAR
STARTCHAR iogonek
ENCODING 303
SWIDTH 319 0
DWIDTH 8 0
BBX 8 23 2 -4
BITMAP
0F
0F
1E
00
00
7E
3C
3C
3C
3C
3C
38
78
78
78
78
70
F8
FC
38
70
74
3C
ENDCHAR
STARTCHAR Idotaccent
ENCODING 304
SWIDTH 372 0
DWIDTH 10 0
BBX 12 23 1 0
BITMAP
0380
0780
0700
0000
0FF0
07C0
0780
0780
0780
0780
0780
0F00
0F00
0F00
0F00
0F00
1E00
1E00
1E00
1E00
1E00
3E00
FF00
ENDCHAR
STARTCHAR dotlessi
ENCODING 305
SWIDTH 319 0
DWIDTH 8 0
BBX 7 14 2 0
BITMAP
7E
3E
3C
3C
3C
3C
38
38
78
78
78
78
F8
FC
ENDCHAR
STARTCHAR IJ
ENCODING 306
SWIDTH 831 0
DWIDTH 22 0
BBX 25 23 1 -4
BITMAP
0FF07F80
07C03E00
07803E00
07803C00
07803C00
07803C00
07803C00
0F007800
0F007800
0F007800
0F007800
0F007800
1E007000
1E00F000
1E00F000
1E00F000
1E00F000
3E00E000
FF01E000
0031E000
0061C000
00738000
007E0000
ENDCHAR
STARTCHAR ij
ENCODING 307
SWIDTH 684 0
DWIDTH 18 0
BBX 19 24 2 -5
BITMAP
0F01E0
0F01E0
1E01C0
000000
000000
7E0FC0
3C03C0
3C0380
3C0780
3C0780
3C0780
380700
780700
780F00
780F00
780F00
700E00
F80E00
FC1E00
001E00
021C00
061800
063000
07E000
ENDCHAR
STARTCHAR Jcircumflex
ENCODING 308
SWIDTH 478 0
DWIDTH 12 0
BBX 16 28 0 -4
BITMAP
0078
00FC
01CC
0306
0000
00FF
007C
007C
0078
0078
0078
0078
00F0
00F0
00F0
00F0
00F0
00E0
01E0
01E0
01E0
01E0
01C0
03C0
63C0
C380
E700
FC00
ENDCHAR
STARTCHAR jcircumflex
ENCODING 309
SWIDTH 381 0
DWIDTH 10 0
BBX 14 24 -1 -5
BITMAP
00F0
01F8
0398
060C
0000
01F8
0078
0070
00F0
00F0
00F0
00E0
00E0
01E0
01E0
01E0
01C0
01C0
03C0
03C0
4380
C300
C600
FC00
ENDCHAR
STARTCHAR Kcommaaccent
ENCODING 310
SWIDTH 746 0
DWIDTH 19 0
BBX 20 30 1 -11
BITMAP
1FE1F0
07C0C0
078180
078300
078400
070800
0F3000
0F6000
0FE000
0FF000
0EF000
0E7800
1E7C00
1E3C00
1E3E00
1C1F00
3C0F00
3C0F80
FF1FE0
000000
00F000
01F000
01F000
01E000
01E000
00E000
00E000
00C000
038000
030000
ENDCHAR
STARTCHAR kcommaaccent
ENCODING 311
SWIDTH 626 0
DWIDTH 16 0
BBX 14 31 2 -11
BITMAP
3F00
1E00
1E00
1E00
1E00
1C00
1C3C
3C3C
3C38
3C70
3CE0
3B80
7F80
7B80
7BC0
79E0
71E0
F0F0
F0F8
F07C
0000
0780
0F80
0F80
0F00
0F00
0700
0700
0600
1C00
1800
ENDCHAR
STARTCHAR kgreenlandic
ENCODING 312
SWIDTH 626 0
DWIDTH 16 0
BBX 14 14 2 0
BITMAP
1C3C
3C3C
3C38
3C70
3CE0
3B80
7F80
7B80
7BC0
79E0
71E0
F0F0
F0F8
F07C
ENDCHAR
STARTCHAR Lacute
ENCODING 313
SWIDTH 611 0
DWIDTH 16 0
BBX 15 24 1 0
BITMAP
00F0
01C0
0380
0600
0000
1FF0
07C0
0780
0780
0780
0780
0F00
0F00
0F00
0F00
0F00
1E00
1E00
1E00
1E00
1E06
3C06
3C0C
FFFC
ENDCHAR
STARTCHAR lacute
ENCODING 314
SWIDTH 319 0
DWIDTH 8 0
BBX 9 25 2 0
BITMAP
0780
0E00
1C00
3000
0000
3F00
0F00
0E00
1E00
1E00
1E00
1E00
1C00
3C00
3C00
3C00
3C00
3800
7800
7800
7800
7800
7000
F000
FC00
ENDCHAR
STARTCHAR Lcommaaccent
ENCODING 315
SWIDTH 611 0
DWIDTH 16 0
BBX 15 30 1 -11
BITMAP
1FF0
07C0
0780
0780
0780
0780
0F00
0F00
0F00
0F00
0F00
1E00
1E00
1E00
1E00
1E06
3C06
3C0C
FFFC
0000
03C0
07C0
07C0
0780
0780
0380
0380
0300
0E00
0C00
ENDCHAR
STARTCHAR lcommaaccent
ENCODING 316
SWIDTH 319 0
DWIDTH 8 0
BBX 8 31 2 -11
BITMAP
3F
0F
0E
1E
1E
1E
1E
1C
3C
3C
3C
3C
38
78
78
78
78
70
F0
FC
00
3C
7C
7C
78
78
38
38
30
E0
C0
ENDCHAR
STARTCHAR Lcaron
ENCODING 317
SWIDTH 845 0
DWIDTH 22 0
BBX 24 20 1 0
BITMAP
00000F
1FF01F
07C01E
07801E
07800E
07800E
07801C
0F003C
0F0030
0F0000
0F0000
0F0000
1E0000
1E0000
1E0000
1E0000
1E0600
3C0600
3C0C00
FFFC00
ENDCHAR
STARTCHAR lcaron
ENCODING 318
SWIDTH 568 0
DWIDTH 15 0
BBX 16 20 2 0
BITMAP
3F0F
0F1F
0E1E
1E1E
1E0E
1E0E
1E1C
1C3C
3C30
3C00
3C00
3C00
3800
7800
7800
7800
7800
7000
F000
FC00
ENDCHAR
STARTCHAR Ldot
ENCODING 319
SWIDTH 1216 0
DWIDTH 31 0
BBX 26 19 1 0
BITMAP
1FF00000
07C00000
07800000
07800000
07800000
07800000
0F000000
0F000000
0F000000
0F0001C0
0F0003C0
1E000380
1E000000
1E000000
1E000000
1E060000
3C060000
3C0C0000
FFFC0000
ENDCHAR
STARTCHAR ldot
ENCODING 320
SWIDTH 939 0
DWIDTH 24 0
BBX 18 20 2 0
BITMAP
3F0000
0F0000
0E0000
1E0000
1E0000
1E0000
1E0000
1C0000
3C0000
3C0000
3C01C0
3C03C0
380380
780000
780000
780000
780000
700000
F00000
FC0000
ENDCHAR
STARTCHAR Lslash
ENCODING 321
SWIDTH 611 0
DWIDTH 16 0
BBX 15 19 1 0
BITMAP
1FF0
07C0
0780
0780
0780
0700
0F00
0FE0
0F80
3F00
6F00
0E00
1E00
1E00
1E00
1E06
3C06
3C0E
FFFC
ENDCHAR
STARTCHAR lslash
ENCODING 322
SWIDTH 319 0
DWIDTH 8 0
BBX 10 20 1 0
BITMAP
1F80
0F80
0700
0F00
0F00
0F00
0F00
0E00
1EC0
1F80
7E00
DE00
1C00
3C00
3C00
3C00
3C00
7800
7800
7E00
ENDCHAR
STARTCHAR Nacute
ENCODING 323
SWIDTH 797 0
DWIDTH 21 0
BBX 23 24 1 0
BITMAP
000F00
001C00
003800
006000
000000
0F807E
078038
07C030
07C030
07E030
07F030
06F030
0C7860
0C7860
0C3C60
0C3C60
0C1E60
181E40
180FC0
180FC0
1807C0
1803C0
380380
FC0180
ENDCHAR
STARTCHAR nacute
ENCODING 324
SWIDTH 656 0
DWIDTH 17 0
BBX 15 19 2 0
BITMAP
0078
00E0
01C0
0300
0000
7E1C
3C7E
3CFE
3D9E
3D1E
3E1C
3C1C
7C3C
783C
783C
7838
7078
F078
F07E
ENDCHAR
STARTCHAR Ncommaaccent
ENCODING 325
SWIDTH 797 0
DWIDTH 21 0
BBX 23 30 1 -11
BITMAP
0F807E
078038
07C030
07C030
07E030
07F030
06F030
0C7860
0C7860
0C3C60
0C3C60
0C1E60
181E40
180FC0
180FC0
1807C0
1803C0
380380
FC0180
000000
007800
00F800
00F800
00F000
00F000
007000
007000
006000
01C000
018000
ENDCHAR
STARTCHAR ncommaaccent
ENCODING 326
SWIDTH 656 0
DWIDTH 17 0
BBX 15 25 2 -11
BITMAP
7E1C
3C7E
3CFE
3D9E
3D1E
3E1C
3C1C
7C3C
783C
783C
7838
7078
F078
F07E
0000
03C0
07C0
07C0
0780
0780
0380
0380
0300
0E00
0C00
ENDCHAR
STARTCHAR Ncaron
ENCODING 327
SWIDTH 797 0
DWIDTH 21 0
BBX 23 24 1 0
BITMAP
00C180
006700
007E00
003C00
000000
0F807E
078038
07C030
07C030
07E030
07F030
06F030
0C7860
0C7860
0C3C60
0C3C60
0C1E60
181E40
180FC0
180FC0
1807C0
1803C0
380380
FC0180
ENDCHAR
STARTCHAR ncaron
ENCODING 328
SWIDTH 656 0
DWIDTH 17 0
BBX 15 19 2 0
BITMAP
0C18
0670
07E0
03C0
0000
7E1C
3C7E
3CFE
3D9E
3D1E
3E1C
3C1C
7C3C
783C
783C
7838
7078
F078
F07E
ENDCHAR
STARTCHAR napostrophe
ENCODING 329
SWIDTH 908 0
DWIDTH 24 0
BBX 20 20 4 0
BITMAP
3C0000
7C0000
780000
780000
380000
380000
73F0E0
F1E3F0
C1E7F0
01ECF0
01E8F0
01F0E0
01E0E0
03E1E0
03C1E0
03C1E0
03C1C0
0383C0
0783C0
0783F0
ENDCHAR
STARTCHAR Eng
ENCODING 330
SWIDTH 797 0
DWIDTH 21 0
BBX 23 24 1 -5
BITMAP
0F807E
078038
07C030
07C030
07E030
07F030
06F030
0C7860
0C7860
0C3C60
0C3C60
0C1E60
181E40
180FC0
180FC0
1807C0
1803C0
380380
FC0780
000780
008700
018600
018C00
01F800
ENDCHAR
STARTCHAR eng
ENCODING 331
SWIDTH 656 0
DWIDTH 17 0
BBX 15 19 2 -5
BITMAP
7E1C
3C7E
3CFE
3D9E
3D1E
3E1C
3C1C
7C3C
783C
783C
783C
7038
F038
F078
0078
0870
1860
18C0
1F80
ENDCHAR
STARTCHAR Omacron
ENCODING 332
SWIDTH 831 0
DWIDTH 22 0
BBX 20 21 3 0
BITMAP
01FE00
000000
007E00
01C380
0701C0
0E01E0
1C01E0
3C00F0
7800F0
7800F0
7800F0
F801E0
F001E0
F001E0
F001C0
F003C0
F00780
780700
780E00
3C3800
0FE000
ENDCHAR
STARTCHAR omacron
ENCODING 333
SWIDTH 599 0
DWIDTH 16 0
BBX 14 16 2 0
BITMAP
0FF0
0000
01F0
0638
1C3C
3C3C
383C
783C
703C
F03C
F038
F038
F070
F060
78C0
3F00
ENDCHAR
STARTCHAR Obreve
ENCODING 334
SWIDTH 831 0
DWIDTH 22 0
BBX 20 24 3 0
BITMAP
010300
01C600
00FC00
007800
000000
007E00
01C380
0701C0
0E01E0
1C01E0
3C00F0
7800F0
7800F0
7800F0
F801E0
F001E0
F001E0
F001C0
F003C0
F00780
780700
780E00
3C3800
0FE000
ENDCHAR
STARTCHAR obreve
ENCODING 335
SWIDTH 599 0
DWIDTH 16 0
BBX 14 19 2 0
BITMAP
0818
0E30
07E0
03C0
0000
01F0
0638
1C3C
3C3C
383C
783C
703C
F03C
F038
F038
F070
F060
78C0
3F00
ENDCHAR
STARTCHAR Ohungarumlaut
ENCODING 336
SWIDTH 831 0
DWIDTH 22 0
BBX 20 24 3 0
BITMAP
003B80
006600
00CC00
019800
000000
007E00
01C380
0701C0
0E01E0
1C01E0
3C00F0
7800F0
7800F0
7800F0
F801E0
F001E0
F001E0
F001C0
F003C0
F00780
780700
780E00
3C3800
0FE000
ENDCHAR
STARTCHAR ohungarumlaut
ENCODING 337
SWIDTH 599 0
DWIDTH 16 0
BBX 14 19 2 0
BITMAP
01DC
0330
0660
0CC0
0000
01F0
0638
1C3C
3C3C
383C
783C
703C
F03C
F038
F038
F070
F060
78C0
3F00
ENDCHAR
STARTCHAR OE
ENCODING 338
SWIDTH 1067 0
DWIDTH 28 0
BBX 27 19 3 0
BITMAP
007FFFE0
0387E060
0703E060
0E03C0C0
1C03C000
3C03C000
7803C000
7803C000
7803C300
F007FF00
F0078300
F0078300
F0078000
F0078000
F00F0000
780F0000
781F0300
3C3F0300
0FFFFF00
ENDCHAR
STARTCHAR oe
ENCODING 339
SWIDTH 921 0
DWIDTH 24 0
BBX 22 14 2 0
BITMAP
03F0F8
06391C
1C3E1C
381E1C
383E1C
703C1C
703C38
F03CF0
F03FC0
F03C00
F07C00
F07C04
78FE1C
1F8FF0
ENDCHAR
STARTCHAR Racute
ENCODING 340
SWIDTH 711 0
DWIDTH 18 0
BBX 18 24 1 0
BITMAP
001E00
003800
007000
00C000
000000
0FFF00
078780
0783C0
0783C0
0783C0
0783C0
070780
0F0780
0F1F00
0FFC00
0F7800
0E3C00
1E3C00
1E1E00
1E1E00
1E0F00
1C0F00
3C0F80
FF07C0
ENDCHAR
STARTCHAR racute
ENCODING 341
SWIDTH 496 0
DWIDTH 13 0
BBX 13 19 2 0
BITMAP
01E0
0380
0700
0C00
0000
7C38
3C70
3CF0
3D90
3F00
3A00
7C00
7800
7800
7800
7000
F000
F000
F000
ENDCHAR
STARTCHAR Rcommaaccent
ENCODING 342
SWIDTH 711 0
DWIDTH 18 0
BBX 18 30 1 -11
BITMAP
0FFF00
078780
0783C0
0783C0
0783C0
0783C0
070780
0F0780
0F1F00
0FFC00
0F7800
0E3C00
1E3C00
1E1E00
1E1E00
1E0F00
1C0F00
3C0F80
FF07C0
000000
00F000
01F000
01F000
01E000
01E000
00E000
00E000
00C000
038000
030000
ENDCHAR
STARTCHAR rcommaaccent
ENCODING 343
SWIDTH 496 0
DWIDTH 13 0
BBX 13 25 2 -11
BITMAP
7C38
3C70
3CF0
3D90
3F00
3A00
7C00
7800
7800
7800
7000
F000
F000
F000
0000
3C00
7C00
7C00
7800
7800
3800
3800
3000
E000
C000
ENDCHAR
STARTCHAR Rcaron
ENCODING 344
SWIDTH 711 0
DWIDTH 18 0
BBX 18 24 1 0
BITMAP
030600
019C00
01F800
00F000
000000
0FFF00
078780
0783C0
0783C0
0783C0
0783C0
070780
0F0780
0F1F00
0FFC00
0F7800
0E3C00
1E3C00
1E1E00
1E1E00
1E0F00
1C0F00
3C0F80
FF07C0
ENDCHAR
STARTCHAR rcaron
ENCODING 345
SWIDTH 496 0
DWIDTH 13 0
BBX 13 19 2 0
BITMAP
3060
19C0
1F80
0F00
0000
7C38
3C70
3CF0
3D90
3F00
3A00
7C00
7800
7800
7800
7000
F000
F000
F000
ENDCHAR
STARTCHAR Sacute
ENCODING 346
SWIDTH 587 0
DWIDTH 15 0
BBX 15 24 2 0
BITMAP
0078
00E0
01C0
0300
0000
01FC
070E
0E06
1E0C
1E00
1E00
1F00
1F80
0FC0
07E0
03F0
00F8
0078
0078
0078
6078
C0F0
E1E0
7F80
ENDCHAR
STARTCHAR sacute
ENCODING 347
SWIDTH 479 0
DWIDTH 12 0
BBX 12 19 1 0
BITMAP
00F0
01C0
0380
0600
0000
07F0
0C30
1C30
1C30
1C00
1E00
0F80
07C0
03C0
01E0
41E0
C1C0
E380
7F00
ENDCHAR
STARTCHAR Scircumflex
ENCODING 348
SWIDTH 587 0
DWIDTH 15 0
BBX 15 24 2 0
BITMAP
01E0
03F0
0730
0C18
0000
01FC
070E
0E06
1E0C
1E00
1E00
1F00
1F80
0FC0
07E0
03F0
00F8
0078
0078
0078
6078
C0F0
E1E0
7F80
ENDCHAR
STARTCHAR scircumflex
ENCODING 349
SWIDTH 479 0
DWIDTH 12 0
BBX 12 19 1 0
BITMAP
03C0
07E0
0E60
1830
0000
07F0
0C30
1C30
1C30
1C00
1E00
0F80
07C0
03C0
01E0
41E0
C1C0
E380
7F00
ENDCHAR
STARTCHAR Scedilla
ENCODING 350
SWIDTH 587 0
DWIDTH 15 0
BBX 15 24 2 -5
BITMAP
01FC
070E
0E06
1E0C
1E00
1E00
1F00
1F80
0FC0
07E0
03F0
00F8
0078
0078
0078
6078
C0F0
E1E0
7F80
0300
01C0
00C0
00C0
0780
ENDCHAR
STARTCHAR scedilla
ENCODING 351
SWIDTH 479 0
DWIDTH 12 0
BBX 12 19 1 -5
BITMAP
07F0
0C30
1C30
1C30
1C00
1E00
0F80
07C0
03C0
01E0
41E0
C1C0
E380
7F00
0C00
0700
0300
0300
1E00
ENDCHAR
STARTCHAR Scaron
ENCODING 352
SWIDTH 587 0
DWIDTH 15 0
BBX 15 24 2 0
BITMAP
0306
019C
01F8
00F0
0000
01FC
070E
0E06
1E0C
1E00
1E00
1F00
1F80
0FC0
07E0
03F0
00F8
0078
0078
0078
6078
C0F0
E1E0
7F80
ENDCHAR
STARTCHAR scaron
ENCODING 353
SWIDTH 479 0
DWIDTH 12 0
BBX 14 19 1 0
BITMAP
060C
0338
03F0
01E0
0000
07F0
0C30
1C30
1C30
1C00
1E00
0F80
07C0
03C0
01E0
41E0
C1C0
E380
7F00
ENDCHAR
STARTCHAR Tcommaaccent
ENCODING 354
SWIDTH 716 0
DWIDTH 19 0
BBX 18 24 4 -5
BITMAP
7FFFC0
E1E0C0
C1E080
C1E180
01C000
03C000
03C000
03C000
03C000
03C000
078000
078000
078000
078000
078000
0F0000
0F0000
0F0000
7FC000
060000
038000
018000
018000
0F0000
ENDCHAR
STARTCHAR tcommaaccent
ENCODING 355
SWIDTH 375 0
DWIDTH 10 0
BBX 9 23 3 -5
BITMAP
0C00
1C00
3C00
3C00
FF80
3C00
3800
7800
7800
7800
7800
7000
F000
F000
F000
F000
7200
3C00
3000
1C00
0C00
0C00
7800
ENDCHAR
STARTCHAR Tcaron
ENCODING 356
SWIDTH 716 0
DWIDTH 19 0
BBX 18 24 4 0
BITMAP
060C00
033800
03F000
01E000
000000
7FFFC0
E1E0C0
C1E080
C1E180
01C000
03C000
03C000
03C000
03C000
03C000
078000
078000
078000
078000
078000
0F0000
0F0000
0F0000
7FC000
ENDCHAR
STARTCHAR tcaron
ENCODING 357
SWIDTH 621 0
DWIDTH 17 0
BBX 17 20 3 0
BITMAP
000780
000F80
0C0F00
1C0F00
3C0700
3C0700
FF8E00
3C1E00
381800
780000
780000
780000
780000
700000
F00000
F00000
F00000
F00000
720000
3C0000
ENDCHAR
STARTCHAR Tbar
ENCODING 358
SWIDTH 716 0
DWIDTH 19 0
BBX 18 19 4 0
BITMAP
7FFFC0
E1E0C0
C1E080
C1E180
01C000
03C000
03C000
03C000
03C000
1FFE00
078000
078000
078000
078000
078000
0F0000
0F0000
0F0000
7FC000
ENDCHAR
STARTCHAR tbar
ENCODING 359
SWIDTH 375 0
DWIDTH 10 0
BBX 12 18 2 0
BITMAP
0600
0E00
1E00
1E00
7FC0
1E00
1C00
3C00
3C00
3C00
FFF0
3800
7800
7800
7800
7800
3900
1E00
ENDCHAR
STARTCHAR Utilde
ENCODING 360
SWIDTH 775 0
DWIDTH 20 0
BBX 19 23 4 0
BITMAP
038800
07F000
08E000
000000
FF07E0
3E0180
3C0180
3C0100
3C0100
780100
780300
780200
780200
780200
F00200
F00600
F00400
F00400
F00400
F00800
701800
383000
1FC000
ENDCHAR
STARTCHAR utilde
ENCODING 361
SWIDTH 655 0
DWIDTH 17 0
BBX 15 18 3 0
BITMAP
0710
0FE0
11C0
0000
FC7E
3C1E
3C1C
383C
783C
783C
787C
7078
70F8
F1F8
F378
FE78
FC78
70FC
ENDCHAR
STARTCHAR Umacron
ENCODING 362
SWIDTH 775 0
DWIDTH 20 0
BBX 19 21 4 0
BITMAP
0FF000
000000
FF07E0
3E0180
3C0180
3C0100
3C0100
780100
780300
780200
780200
780200
F00200
F00600
F00400
F00400
F00400
F00800
701800
383000
1FC000
ENDCHAR
STARTCHAR umacron
ENCODING 363
SWIDTH 655 0
DWIDTH 17 0
BBX 15 16 3 0
BITMAP
0FF0
0000
FC7E
3C1E
3C1C
383C
783C
783C
787C
7078
70F8
F1F8
F378
FE78
FC78
70FC
ENDCHAR
STARTCHAR Ubreve
ENCODING 364
SWIDTH 775 0
DWIDTH 20 0
BBX 19 24 4 0
BITMAP
081800
0E3000
07E000
03C000
000000
FF07E0
3E0180
3C0180
3C0100
3C0100
780100
780300
780200
780200
780200
F00200
F00600
F00400
F00400
F00400
F00800
701800
383000
1FC000
ENDCHAR
STARTCHAR ubreve
ENCODING 365
SWIDTH 655 0
DWIDTH 17 0
BBX 15 19 3 0
BITMAP
0818
0E30
07E0
03C0
0000
FC7E
3C1E
3C1C
383C
783C
783C
787C
7078
70F8
F1F8
F378
FE78
FC78
70FC
ENDCHAR
STARTCHAR Uring
ENCODING 366
SWIDTH 775 0
DWIDTH 20 0
BBX 19 24 4 0
BITMAP
018000
024000
024000
018000
000000
FF07E0
3E0180
3C0180
3C0100
3C0100
780100
780300
780200
780200
780200
F00200
F00600
F00400
F00400
F00400
F00800
701800
383000
1FC000
ENDCHAR
STARTCHAR uring
ENCODING 367
SWIDTH 655 0
DWIDTH 17 0
BBX 15 19 3 0
BITMAP
0180
0240
0240
0180
0000
FC7E
3C1E
3C1C
383C
783C
783C
787C
7078
70F8
F1F8
F378
FE78
FC78
70FC
ENDCHAR
STARTCHAR Uhungarumlaut
ENCODING 368
SWIDTH 775 0
DWIDTH 20 0
BBX 19 24 4 0
BITMAP
01DC00
033000
066000
0CC000
000000
FF07E0
3E0180
3C0180
3C0100
3C0100
780100
780300
780200
780200
780200
F00200
F00600
F00400
F00400
F00400
F00800
701800
383000
1FC000
ENDCHAR
STARTCHAR uhungarumlaut
ENCODING 369
SWIDTH 655 0
DWIDTH 17 0
BBX 15 19 3 0
BITMAP
01DC
0330
0660
0CC0
0000
FC7E
3C1E
3C1C
383C
783C
783C
787C
7078
70F8
F1F8
F378
FE78
FC78
70FC
ENDCHAR
STARTCHAR Uogonek
ENCODING 370
SWIDTH 775 0
DWIDTH 20 0
BBX 19 23 4 -4
BITMAP
FF07E0
3E0180
3C0180
3C0100
3C0100
780100
780300
780200
780200
780200
F00200
F00600
F00400
F00400
F00400
F00800
701800
383000
1FC000
038000
070000
074000
03C000
ENDCHAR
STARTCHAR uogonek
ENCODING 371
SWIDTH 655 0
DWIDTH 17 0
BBX 15 18 3 -4
BITMAP
FC7E
3C1E
3C1C
383C
783C
783C
787C
7078
70F8
F1F8
F378
FE78
FC78
70FC
0380
0700
0740
03C0
ENDCHAR
STARTCHAR Wcircumflex
ENCODING 372
SWIDTH 922 0
DWIDTH 24 0
BBX 24 24 4 0
BITMAP
003C00
007E00
00E600
018300
000000
FE0C1F
781C06
781C0C
383C08
383C18
387C10
385C30
38DC20
389C60
399C40
3D1EC0
3D1E80
3E1F80
3E1F00
3C1F00
3C0E00
3C0E00
380C00
380C00
ENDCHAR
STARTCHAR wcircumflex
ENCODING 373
SWIDTH 822 0
DWIDTH 21 0
BBX 21 19 2 0
BITMAP
007800
00FC00
01CC00
030600
000000
F81078
783078
383830
3C3830
3C7860
1C7840
1CFCC0
1C9C80
1F1D00
1F1F00
1E1E00
1C1C00
0C1800
081800
ENDCHAR
STARTCHAR Ycircumflex
ENCODING 374
SWIDTH 669 0
DWIDTH 17 0
BBX 18 24 3 0
BITMAP
01E000
03F000
073000
0C1800
000000
FF07C0
7C0300
3C0200
3C0600
1E0C00
1E1800
1E3000
0F2000
0F6000
07C000
078000
078000
078000
0F0000
0F0000
0F0000
0F0000
1F0000
7FC000
ENDCHAR
STARTCHAR ycircumflex
ENCODING 375
SWIDTH 586 0
DWIDTH 15 0
BBX 18 24 0 -5
BITMAP
007800
00FC00
01CC00
030600
000000
1F07C0
0F03C0
0781C0
078180
078380
038300
03C600
03CC00
03D800
03F000
01E000
01E000
01C000
018000
030000
060000
0C0000
1C0000
F80000
ENDCHAR
STARTCHAR Ydieresis
ENCODING 376
SWIDTH 669 0
DWIDTH 17 0
BBX 18 23 3 0
BITMAP
039C00
039C00
039C00
000000
FF07C0
7C0300
3C0200
3C0600
1E0C00
1E1800
1E3000
0F2000
0F6000
07C000
078000
078000
078000
0F0000
0F0000
0F0000
0F0000
1F0000
7FC000
ENDCHAR
STARTCHAR Zacute
ENCODING 377
SWIDTH 684 0
DWIDTH 18 0
BBX 18 24 2 0
BITMAP
001E00
003800
007000
00C000
000000
0FFFC0
0C0780
0C0F80
001F00
001E00
003C00
007C00
00F800
01F000
01E000
03C000
07C000
0F8000
0F0000
1E0000
3E0000
7C0600
F80E00
FFFE00
ENDCHAR
STARTCHAR zacute
ENCODING 378
SWIDTH 567 0
DWIDTH 15 0
BBX 15 19 1 0
BITMAP
0078
00E0
01C0
0300
0000
1FFE
183C
1878
3078
00F0
01E0
03C0
0780
0F00
1E00
3E00
7C08
7818
FFF8
ENDCHAR
STARTCHAR Zdotaccent
ENCODING 379
SWIDTH 684 0
DWIDTH 18 0
BBX 18 23 2 0
BITMAP
003800
007800
007000
000000
0FFFC0
0C0780
0C0F80
001F00
001E00
003C00
007C00
00F800
01F000
01E000
03C000
07C000
0F8000
0F0000
1E0000
3E0000
7C0600
F80E00
FFFE00
ENDCHAR
STARTCHAR zdotaccent
ENCODING 380
SWIDTH 567 0
DWIDTH 15 0
BBX 15 18 1 0
BITMAP
00E0
01E0
01C0
0000
1FFE
183C
1878
3078
00F0
01E0
03C0
0780
0F00
1E00
3E00
7C08
7818
FFF8
ENDCHAR
STARTCHAR Zcaron
ENCODING 381
SWIDTH 684 0
DWIDTH 18 0
BBX 18 24 2 0
BITMAP
00C180
006700
007E00
003C00
000000
0FFFC0
0C0780
0C0F80
001F00
001E00
003C00
007C00
00F800
01F000
01E000
03C000
07C000
0F8000
0F0000
1E0000
3E0000
7C0600
F80E00
FFFE00
ENDCHAR
STARTCHAR zcaron
ENCODING 382
SWIDTH 567 0
DWIDTH 15 0
BBX 15 19 1 0
BITMAP
0306
019C
01F8
00F0
0000
1FFE
183C
1878
3078
00F0
01E0
03C0
0780
0F00
1E00
3E00
7C08
7818
FFF8
ENDCHAR
STARTCHAR uni0186
ENCODING 390
SWIDTH 740 0
DWIDTH 19 0
BBX 18 19 3 0
BITMAP
07FC00
181F00
000F80
000780
0007C0
0003C0
0003C0
0003C0
0003C0
0003C0
000780
000780
000700
000F00
600E00
601C00
E03800
F07000
7F8000
ENDCHAR
STARTCHAR uni0189
ENCODING 393
SWIDTH 822 0
DWIDTH 21 0
BBX 21 19 1 0
BITMAP
1FFF80
0783E0
0780F0
0780F0
078078
078078
0F0078
0F0078
0F0078
7FF078
0F00F0
1E00F0
1E00F0
1E01E0
1E01E0
1E03C0
3E0780
3E1E00
FFF800
ENDCHAR
STARTCHAR uni018E
ENCODING 398
SWIDTH 630 0
DWIDTH 16 0
BBX 18 19 1 0
BITMAP
1FFFC0
181F00
181E00
001E00
001E00
001E00
001E00
0C3C00
083C00
0FFC00
183C00
007C00
007800
007800
007800
007800
607800
C0F800
FFFC00
ENDCHAR
STARTCHAR florin
ENCODING 402
SWIDTH 636 0
DWIDTH 17 0
BBX 14 23 5 -4
BITMAP
00FC
039C
070C
0708
0F00
0E00
1E00
1E00
1E00
FFC0
1C00
3C00
3C00
3C00
3C00
3800
7800
7800
7800
7800
7000
F000
F000
ENDCHAR
STARTCHAR uni0197
ENCODING 407
SWIDTH 372 0
DWIDTH 10 0
BBX 12 19 1 0
BITMAP
0FF0
07C0
0780
0780
0780
0780
0780
0F00
0F00
FFF0
0F00
0F00
1E00
1E00
1E00
1E00
1E00
3E00
FF00
ENDCHAR
STARTCHAR uni019A
ENCODING 410
SWIDTH 319 0
DWIDTH 8 0
BBX 12 20 0 0
BITMAP
0FC0
03C0
0380
0780
0780
0780
0780
0700
0F00
FFF0
0F00
0F00
0E00
1E00
1E00
1E00
1E00
1C00
3C00
3F00
ENDCHAR
STARTCHAR uni019D
ENCODING 413
SWIDTH 797 0
DWIDTH 21 0
BBX 27 24 -3 -5
BITMAP
00F807E0
00780380
007C0300
007C0300
007E0300
007F0300
006F0300
00C78600
00C78600
00C3C600
00C3C600
00C1E600
0181E400
01E0FC00
01E0FC00
01E07C00
01C03C00
01C03800
03C01800
03C00000
43800000
C3000000
C6000000
FC000000
ENDCHAR
STARTCHAR uni019F
ENCODING 415
SWIDTH 831 0
DWIDTH 22 0
BBX 20 19 3 0
BITMAP
007E00
01C380
0701C0
0E01E0
1C01E0
3C00F0
7800F0
7800F0
7800F0
FFFFF0
F001E0
F001E0
F001C0
F003C0
F00780
780700
780E00
3C3800
0FE000
ENDCHAR
STARTCHAR Ohorn
ENCODING 416
SWIDTH 831 0
DWIDTH 22 0
BBX 24 19 3 0
BITMAP
007E0F
01C39F
0701DE
0E01FE
1C01EE
3C00FE
7800FC
7800FC
7800F0
F801E0
F001E0
F001E0
F001C0
F003C0
F00780
780700
780E00
3C3800
0FE000
ENDCHAR
STARTCHAR ohorn
ENCODING 417
SWIDTH 599 0
DWIDTH 16 0
BBX 19 14 2 0
BITMAP
01F1E0
063BE0
1C3FC0
3C3FC0
383DC0
783DC0
703F80
F03F80
F03E00
F03800
F07000
F06000
78C000
3F0000
ENDCHAR
STARTCHAR Uhorn
ENCODING 431
SWIDTH 775 0
DWIDTH 20 0
BBX 23 19 4 0
BITMAP
FF07FE
3E01BE
3C01BC
3C013C
3C011C
78011C
780338
780278
780260
780200
F00200
F00600
F00400
F00400
F00400
F00800
701800
383000
1FC000
ENDCHAR
STARTCHAR uhorn
ENCODING 432
SWIDTH 655 0
DWIDTH 17 0
BBX 20 14 3 0
BITMAP
FC7EF0
3C1FF0
3C1DE0
383DE0
783CE0
783CE0
787DC0
707BC0
70FB00
F1F800
F37800
FE7800
FC7800
70FC00
ENDCHAR
STARTCHAR uni01B5
ENCODING 437
SWIDTH 684 0
DWIDTH 18 0
BBX 18 19 2 0
BITMAP
0FFFC0
0C0780
0C0F80
001F00
001E00
003C00
007C00
00F800
01F000
1FFE00
03C000
07C000
0F8000
0F0000
1E0000
3E0000
7C0600
F80E00
FFFE00
ENDCHAR
STARTCHAR uni01B6
ENCODING 438
SWIDTH 567 0
DWIDTH 15 0
BBX 15 14 1 0
BITMAP
1FFE
183C
1878
3078
00F0
01E0
3FFC
0780
0F00
1E00
3E00
7C08
7818
FFF8
ENDCHAR
STARTCHAR uni01BB
ENCODING 443
SWIDTH 636 0
DWIDTH 17 0
BBX 16 19 2 0
BITMAP
01F8
0E1E
0C0F
0C0F
180F
000F
001E
001C
0038
FFFF
0180
0200
0400
0800
3000
7000
7FFC
FFF8
FFF8
ENDCHAR
STARTCHAR uni01BC
ENCODING 444
SWIDTH 636 0
DWIDTH 17 0
BBX 15 19 3 0
BITMAP
0FFE
0FFE
0FFE
1800
1800
1000
1000
1F00
03E0
00F0
0078
0078
0078
0078
0078
4070
C0E0
E1C0
FF00
ENDCHAR
STARTCHAR uni01C0
ENCODING 448
SWIDTH 253 0
DWIDTH 7 0
BBX 7 24 1 -4
BITMAP
06
06
0C
0C
0C
0C
0C
18
18
18
18
18
30
30
30
30
30
60
60
60
60
60
C0
C0
ENDCHAR
STARTCHAR uni01C2
ENCODING 450
SWIDTH 636 0
DWIDTH 16 0
BBX 16 24 2 -4
BITMAP
0030
0030
0060
0060
0060
0060
0060
00C0
00C0
7FFF
00C0
00C0
0180
0180
0180
FFFE
0180
0300
0300
0300
0300
0300
0600
0600
ENDCHAR
STARTCHAR uni01C3
ENCODING 451
SWIDTH 265 0
DWIDTH 7 0
BBX 8 19 1 0
BITMAP
0F
0F
1E
1E
1E
1E
1C
1C
1C
18
38
38
38
30
00
00
78
F0
F0
ENDCHAR
STARTCHAR uni01CD
ENCODING 461
SWIDTH 765 0
DWIDTH 20 0
BBX 20 24 0 0
BITMAP
00C180
006700
007E00
003C00
000000
000E00
000E00
001E00
003E00
002F00
006F00
004F00
00CF00
018700
010780
030780
020780
07FF80
0C03C0
0803C0
1803C0
1003C0
3003E0
F80FF0
ENDCHAR
STARTCHAR uni01CE
ENCODING 462
SWIDTH 634 0
DWIDTH 16 0
BBX 15 19 2 0
BITMAP
060C
0338
03F0
01E0
0000
01FE
063E
0C1E
181C
383C
783C
707C
707C
F0B8
F1F8
F378
FE78
FC78
787C
ENDCHAR
STARTCHAR uni01CF
ENCODING 463
SWIDTH 372 0
DWIDTH 10 0
BBX 12 24 1 0
BITMAP
1830
0CE0
0FC0
0780
0000
0FF0
07C0
0780
0780
0780
0780
0780
0F00
0F00
0F00
0F00
0F00
1E00
1E00
1E00
1E00
1E00
3E00
FF00
ENDCHAR
STARTCHAR uni01D0
ENCODING 464
SWIDTH 319 0
DWIDTH 8 0
BBX 9 19 2 0
BITMAP
C180
6700
7E00
3C00
0000
7E00
3E00
3C00
3C00
3C00
3C00
3800
3800
7800
7800
7800
7800
F800
FC00
ENDCHAR
STARTCHAR uni01D1
ENCODING 465
SWIDTH 831 0
DWIDTH 22 0
BBX 20 24 3 0
BITMAP
018300
00CE00
00FC00
007800
000000
007E00
01C380
0701C0
0E01E0
1C01E0
3C00F0
7800F0
7800F0
7800F0
F801E0
F001E0
F001E0
F001C0
F003C0
F00780
780700
780E00
3C3800
0FE000
ENDCHAR
STARTCHAR uni01D2
ENCODING 466
SWIDTH 599 0
DWIDTH 16 0
BBX 14 19 2 0
BITMAP
0C18
0670
07E0
03C0
0000
01F0
0638
1C3C
3C3C
383C
783C
703C
F03C
F038
F038
F070
F060
78C0
3F00
ENDCHAR
STARTCHAR uni01D3
ENCODING 467
SWIDTH 775 0
DWIDTH 20 0
BBX 19 24 4 0
BITMAP
0C1800
067000
07E000
03C000
000000
FF07E0
3E0180
3C0180
3C0100
3C0100
780100
780300
780200
780200
780200
F00200
F00600
F00400
F00400
F00400
F00800
701800
383000
1FC000
ENDCHAR
STARTCHAR uni01D4
ENCODING 468
SWIDTH 655 0
DWIDTH 17 0
BBX 15 19 3 0
BITMAP
0C18
0670
07E0
03C0
0000
FC7E
3C1E
3C1C
383C
783C
783C
787C
7078
70F8
F1F8
F378
FE78
FC78
70FC
ENDCHAR
STARTCHAR uni01D5
ENCODING 469
SWIDTH 775 0
DWIDTH 20 0
BBX 19 25 4 0
BITMAP
07F800
000000
039C00
039C00
039C00
000000
FF07E0
3E0180
3C0180
3C0100
3C0100
780100
780300
780200
780200
780200
F00200
F00600
F00400
F00400
F00400
F00800
701800
383000
1FC000
ENDCHAR
STARTCHAR uni01D6
ENCODING 470
SWIDTH 655 0
DWIDTH 17 0
BBX 15 20 3 0
BITMAP
07F8
0000
039C
039C
039C
0000
FC7E
3C1E
3C1C
383C
783C
783C
787C
7078
70F8
F1F8
F378
FE78
FC78
70FC
ENDCHAR
STARTCHAR uni01D7
ENCODING 471
SWIDTH 775 0
DWIDTH 20 0
BBX 19 28 4 0
BITMAP
003C00
007000
00E000
018000
000000
039C00
039C00
039C00
000000
FF07E0
3E0180
3C0180
3C0100
3C0100
780100
780300
780200
780200
780200
F00200
F00600
F00400
F00400
F00400
F00800
701800
383000
1FC000
ENDCHAR
STARTCHAR uni01D8
ENCODING 472
SWIDTH 655 0
DWIDTH 17 0
BBX 15 23 3 0
BITMAP
0078
00E0
01C0
0300
0000
039C
039C
039C
0000
FC7E
3C1E
3C1C
383C
783C
783C
787C
7078
70F8
F1F8
F378
FE78
FC78
70FC
ENDCHAR
STARTCHAR uni01D9
ENCODING 473
SWIDTH 775 0
DWIDTH 20 0
BBX 19 28 4 0
BITMAP
060C00
033800
03F000
01E000
000000
039C00
039C00
039C00
000000
FF07E0
3E0180
3C0180
3C0100
3C0100
780100
780300
780200
780200
780200
F00200
F00600
F00400
F00400
F00400
F00800
701800
383000
1FC000
ENDCHAR
STARTCHAR uni01DA
ENCODING 474
SWIDTH 655 0
DWIDTH 17 0
BBX 15 23 3 0
BITMAP
0C18
0670
07E0
03C0
0000
039C
039C
039C
0000
FC7E
3C1E
3C1C
383C
783C
783C
787C
7078
70F8
F1F8
F378
FE78
FC78
70FC
ENDCHAR
STARTCHAR uni01DB
ENCODING 475
SWIDTH 775 0
DWIDTH 20 0
BBX 19 28 4 0
BITMAP
038000
01C000
00C000
006000
000000
039C00
039C00
039C00
000000
FF07E0
3E0180
3C0180
3C0100
3C0100
780100
780300
780200
780200
780200
F00200
F00600
F00400
F00400
F00400
F00800
701800
383000
1FC000
ENDCHAR
STARTCHAR uni01DC
ENCODING 476
SWIDTH 655 0
DWIDTH 17 0
BBX 15 23 3 0
BITMAP
0700
0380
0180
00C0
0000
039C
039C
039C
0000
FC7E
3C1E
3C1C
383C
783C
783C
787C
7078
70F8
F1F8
F378
FE78
FC78
70FC
ENDCHAR
STARTCHAR uni01DD
ENCODING 477
SWIDTH 548 0
DWIDTH 14 0
BBX 13 14 2 0
BITMAP
0FC0
70F0
4078
0078
0078
07F8
1E78
3870
7070
70E0
F0E0
F1C0
7100
3E00
ENDCHAR
STARTCHAR uni01DE
ENCODING 478
SWIDTH 765 0
DWIDTH 20 0
BBX 20 25 0 0
BITMAP
007F80
000000
0039C0
0039C0
0039C0
000000
000E00
000E00
001E00
003E00
002F00
006F00
004F00
00CF00
018700
010780
030780
020780
07FF80
0C03C0
0803C0
1803C0
1003C0
3003E0
F80FF0
ENDCHAR
STARTCHAR uni01DF
ENCODING 479
SWIDTH 634 0
DWIDTH 16 0
BBX 15 20 2 0
BITMAP
07F8
0000
039C
039C
039C
0000
01FE
063E
0C1E
181C
383C
783C
707C
707C
F0B8
F1F8
F378
FE78
FC78
787C
ENDCHAR
STARTCHAR uni01E0
ENCODING 480
SWIDTH 765 0
DWIDTH 20 0
BBX 20 25 0 0
BITMAP
00FF00
000000
001C00
003C00
003800
000000
000E00
000E00
001E00
003E00
002F00
006F00
004F00
00CF00
018700
010780
030780
020780
07FF80
0C03C0
0803C0
1803C0
1003C0
3003E0
F80FF0
ENDCHAR
STARTCHAR uni01E1
ENCODING 481
SWIDTH 634 0
DWIDTH 16 0
BBX 15 20 2 0
BITMAP
07F8
0000
0070
00F0
00E0
0000
01FE
063E
0C1E
181C
383C
783C
707C
707C
F0B8
F1F8
F378
FE78
FC78
787C
ENDCHAR
STARTCHAR uni01E2
ENCODING 482
SWIDTH 958 0
DWIDTH 25 0
BBX 27 21 0 0
BITMAP
0007F800
00000000
0001FFE0
0003E060
0007E0C0
000DC000
000BC000
0013C000
0033C000
0063C300
0043FF00
00878300
01878300
03078000
03FF8000
06070000
0C0F0000
180F0000
380F0300
700F0300
F87FFF00
ENDCHAR
STARTCHAR uni01E3
ENCODING 483
SWIDTH 905 0
DWIDTH 24 0
BBX 22 16 2 0
BITMAP
007F80
000000
01FEF8
063F3C
0C1E3C
181C1C
383C3C
783C38
703C78
707CE0
F0FF80
F1B800
F33800
FE3C04
FC1E1C
780FE0
ENDCHAR
STARTCHAR uni01E4
ENCODING 484
SWIDTH 780 0
DWIDTH 20 0
BBX 21 19 3 0
BITMAP
00FF80
03C3C0
0701C0
0E0180
1C0180
3C0000
380000
780000
780000
F00000
F03FC0
F00F00
F00F00
F07FF8
F01E00
781E00
781E00
3E1E00
0FF000
ENDCHAR
STARTCHAR uni01E5
ENCODING 485
SWIDTH 628 0
DWIDTH 16 0
BBX 16 19 1 -5
BITMAP
00FF
031F
060F
0C0E
1C0E
3C1E
383E
783E
785C
78FC
79BC
7F3C
7E38
3C38
FFFF
8070
C070
70C0
7F00
ENDCHAR
STARTCHAR Gcaron
ENCODING 486
SWIDTH 780 0
DWIDTH 20 0
BBX 18 24 3 0
BITMAP
030600
019C00
01F800
00F000
000000
00FF80
03C3C0
0701C0
0E0180
1C0180
3C0000
380000
780000
780000
F00000
F03FC0
F00F00
F00F00
F00E00
F01E00
781E00
781E00
3E1E00
0FF000
ENDCHAR
STARTCHAR gcaron
ENCODING 487
SWIDTH 628 0
DWIDTH 16 0
BBX 16 24 1 -5
BITMAP
0306
019C
01F8
00F0
0000
00FF
031F
060F
0C0E
1C0E
3C1E
383E
783E
785C
78FC
79BC
7F3C
7E38
3C38
0078
8070
C070
70C0
7F00
ENDCHAR
STARTCHAR uni01E8
ENCODING 488
SWIDTH 746 0
DWIDTH 19 0
BBX 20 24 1 0
BITMAP
030600
019C00
01F800
00F000
000000
1FE1F0
07C0C0
078180
078300
078400
070800
0F3000
0F6000
0FE000
0FF000
0EF000
0E7800
1E7C00
1E3C00
1E3E00
1C1F00
3C0F00
3C0F80
FF1FE0
ENDCHAR
STARTCHAR uni01E9
ENCODING 489
SWIDTH 626 0
DWIDTH 16 0
BBX 14 25 2 0
BITMAP
60C0
3380
3F00
1E00
0000
3F00
1E00
1E00
1E00
1E00
1C00
1C3C
3C3C
3C38
3C70
3CE0
3B80
7F80
7B80
7BC0
79E0
71E0
F0F0
F0F8
F07C
ENDCHAR
STARTCHAR uni01EA
ENCODING 490
SWIDTH 831 0
DWIDTH 22 0
BBX 20 23 3 -4
BITMAP
007E00
01C380
0701C0
0E01E0
1C01E0
3C00F0
7800F0
7800F0
7800F0
F801E0
F001E0
F001E0
F001C0
F003C0
F00780
780700
780E00
3C3800
0FE000
01C000
038000
03A000
01E000
ENDCHAR
STARTCHAR uni01EB
ENCODING 491
SWIDTH 599 0
DWIDTH 16 0
BBX 14 18 2 -4
BITMAP
01F0
0638
1C3C
3C3C
383C
783C
703C
F03C
F038
F038
F070
F060
78C0
3F00
0700
0E00
0E80
0780
ENDCHAR
STARTCHAR uni01EC
ENCODING 492
SWIDTH 831 0
DWIDTH 22 0
BBX 20 25 3 -4
BITMAP
01FE00
000000
007E00
01C380
0701C0
0E01E0
1C01E0
3C00F0
7800F0
7800F0
7800F0
F801E0
F001E0
F001E0
F001C0
F003C0
F00780
780700
780E00
3C3800
0FE000
01C000
038000
03A000
01E000
ENDCHAR
STARTCHAR uni01ED
ENCODING 493
SWIDTH 599 0
DWIDTH 16 0
BBX 14 20 2 -4
BITMAP
0FF0
0000
01F0
0638
1C3C
3C3C
383C
783C
703C
F03C
F038
F038
F070
F060
78C0
3F00
0700
0E00
0E80
0780
ENDCHAR
STARTCHAR uni01F0
ENCODING 496
SWIDTH 381 0
DWIDTH 10 0
BBX 14 24 -1 -5
BITMAP
060C
0338
03F0
01E0
0000
01F8
0078
0070
00F0
00F0
00F0
00E0
00E0
01E0
01E0
01E0
01C0
01C0
03C0
03C0
4380
C300
C600
FC00
ENDCHAR
STARTCHAR uni01F4
ENCODING 500
SWIDTH 780 0
DWIDTH 20 0
BBX 18 24 3 0
BITMAP
001E00
003800
007000
00C000
000000
00FF80
03C3C0
0701C0
0E0180
1C0180
3C0000
380000
780000
780000
F00000
F03FC0
F00F00
F00F00
F00E00
F01E00
781E00
781E00
3E1E00
0FF000
ENDCHAR
STARTCHAR uni01F5
ENCODING 501
SWIDTH 628 0
DWIDTH 16 0
BBX 16 24 1 -5
BITMAP
001E
0038
0070
00C0
0000
00FF
031F
060F
0C0E
1C0E
3C1E
383E
783E
785C
78FC
79BC
7F3C
7E38
3C38
0078
8070
C070
70C0
7F00
ENDCHAR
STARTCHAR uni01F8
ENCODING 504
SWIDTH 797 0
DWIDTH 21 0
BBX 23 24 1 0
BITMAP
007000
003800
001800
000C00
000000
0F807E
078038
07C030
07C030
07E030
07F030
06F030
0C7860
0C7860
0C3C60
0C3C60
0C1E60
181E40
180FC0
180FC0
1807C0
1803C0
380380
FC0180
ENDCHAR
STARTCHAR uni01F9
ENCODING 505
SWIDTH 656 0
DWIDTH 17 0
BBX 15 19 2 0
BITMAP
0700
0380
0180
00C0
0000
7E1C
3C7E
3CFE
3D9E
3D1E
3E1C
3C1C
7C3C
783C
783C
7838
7078
F078
F07E
ENDCHAR
STARTCHAR Aringacute
ENCODING 506
SWIDTH 765 0
DWIDTH 20 0
BBX 20 29 0 0
BITMAP
000780
000E00
001C00
003000
000000
000600
000900
000900
000600
000000
000E00
000E00
001E00
003E00
002F00
006F00
004F00
00CF00
018700
010780
030780
020780
07FF80
0C03C0
0803C0
1803C0
1003C0
3003E0
F80FF0
ENDCHAR
STARTCHAR aringacute
ENCODING 507
SWIDTH 634 0
DWIDTH 16 0
BBX 15 24 2 0
BITMAP
003C
0070
00E0
0180
0000
0030
0048
0048
0030
0000
01FE
063E
0C1E
181C
383C
783C
707C
707C
F0B8
F1F8
F378
FE78
FC78
787C
ENDCHAR
STARTCHAR AEacute
ENCODING 508
SWIDTH 958 0
DWIDTH 25 0
BBX 27 24 0 0
BITMAP
00007800
0000E000
0001C000
00030000
00000000
0001FFE0
0003E060
0007E0C0
000DC000
000BC000
0013C000
0033C000
0063C300
0043FF00
00878300
01878300
03078000
03FF8000
06070000
0C0F0000
180F0000
380F0300
700F0300
F87FFF00
ENDCHAR
STARTCHAR aeacute
ENCODING 509
SWIDTH 905 0
DWIDTH 24 0
BBX 22 19 2 0
BITMAP
0003C0
000700
000E00
001800
000000
01FEF8
063F3C
0C1E3C
181C1C
383C3C
783C38
703C78
707CE0
F0FF80
F1B800
F33800
FE3C04
FC1E1C
780FE0
ENDCHAR
STARTCHAR Oslashacute
ENCODING 510
SWIDTH 831 0
DWIDTH 22 0
BBX 23 24 1 0
BITMAP
0003C0
000700
000E00
001800
000000
001F86
00E1E8
0180F0
078078
0700F8
0E01F8
1E0378
1C0478
3C0878
3C1078
3C2078
3C4070
3C80F0
3F00E0
3E01E0
3C03C0
1E0700
3F0E00
E3F000
ENDCHAR
STARTCHAR oslashacute
ENCODING 511
SWIDTH 599 0
DWIDTH 16 0
BBX 17 19 1 0
BITMAP
001E00
003800
007000
00C000
000000
00FB80
031E00
0E1E00
1C1F00
1C3F00
3C6F00
38CE00
798E00
7B1E00
7E1C00
7C3800
783000
3C6000
DF8000
ENDCHAR
STARTCHAR Scommaaccent
ENCODING 536
SWIDTH 587 0
DWIDTH 15 0
BBX 15 30 2 -11
BITMAP
01FC
070E
0E06
1E0C
1E00
1E00
1F00
1F80
0FC0
07E0
03F0
00F8
0078
0078
0078
6078
C0F0
E1E0
7F80
0000
03C0
07C0
07C0
0780
0780
0380
0380
0300
0E00
0C00
ENDCHAR
STARTCHAR scommaaccent
ENCODING 537
SWIDTH 479 0
DWIDTH 12 0
BBX 12 25 1 -11
BITMAP
07F0
0C30
1C30
1C30
1C00
1E00
0F80
07C0
03C0
01E0
41E0
C1C0
E380
7F00
0000
0F00
1F00
1F00
1E00
1E00
0E00
0E00
0C00
3800
3000
ENDCHAR
STARTCHAR Tcommaaccent
ENCODING 538
SWIDTH 716 0
DWIDTH 19 0
BBX 18 30 4 -11
BITMAP
7FFFC0
E1E0C0
C1E080
C1E180
01C000
03C000
03C000
03C000
03C000
03C000
078000
078000
078000
078000
078000
0F0000
0F0000
0F0000
7FC000
000000
03C000
07C000
07C000
078000
078000
038000
038000
030000
0E0000
0C0000
ENDCHAR
STARTCHAR tcommaaccent
ENCODING 539
SWIDTH 375 0
DWIDTH 10 0
BBX 9 29 3 -11
BITMAP
0C00
1C00
3C00
3C00
FF80
3C00
3800
7800
7800
7800
7800
7000
F000
F000
F000
F000
7200
3C00
0000
3C00
7C00
7C00
7800
7800
3800
3800
3000
E000
C000
ENDCHAR
STARTCHAR uni021E
ENCODING 542
SWIDTH 827 0
DWIDTH 22 0
BBX 23 24 1 0
BITMAP
00C180
006700
007E00
003C00
000000
1FF1FE
07C078
078078
0780F0
0780F0
0780F0
0F00F0
0F00F0
0F00E0
0FFFE0
0F01E0
1E01E0
1E01E0
1E01C0
1E03C0
1E03C0
3C03C0
3C07C0
FF1FF0
ENDCHAR
STARTCHAR uni021F
ENCODING 543
SWIDTH 656 0
DWIDTH 17 0
BBX 15 25 2 0
BITMAP
3060
19C0
1F80
0F00
0000
3F00
1F00
0E00
1E00
1E00
1E00
1E1C
1C7E
3CFE
3D9E
3F1E
3E1C
3C1C
7C3C
783C
783C
7838
7078
F078
F07E
ENDCHAR
STARTCHAR uni0226
ENCODING 550
SWIDTH 765 0
DWIDTH 20 0
BBX 20 23 0 0
BITMAP
001C00
003C00
003800
000000
000E00
000E00
001E00
003E00
002F00
006F00
004F00
00CF00
018700
010780
030780
020780
07FF80
0C03C0
0803C0
1803C0
1003C0
3003E0
F80FF0
ENDCHAR
STARTCHAR uni0227
ENCODING 551
SWIDTH 634 0
DWIDTH 16 0
BBX 15 18 2 0
BITMAP
0070
00F0
00E0
0000
01FE
063E
0C1E
181C
383C
783C
707C
707C
F0B8
F1F8
F378
FE78
FC78
787C
ENDCHAR
STARTCHAR uni0228
ENCODING 552
SWIDTH 630 0
DWIDTH 16 0
BBX 18 24 1 -5
BITMAP
0FFFC0
07C0C0
078180
078000
078000
078000
078000
0F8000
0F0600
0FFC00
0F0400
0F0C00
1E0000
1E0000
1E0000
1E0000
1E0600
3E0600
FFFE00
030000
01C000
00C000
00C000
078000
ENDCHAR
STARTCHAR uni0229
ENCODING 553
SWIDTH 548 0
DWIDTH 14 0
BBX 13 19 2 -5
BITMAP
03E0
0470
1C78
3878
3870
7070
70E0
F3C0
FF00
F000
F000
F010
7870
1F80
0C00
0700
0300
0300
1E00
ENDCHAR
STARTCHAR uni022A
ENCODING 554
SWIDTH 831 0
DWIDTH 22 0
BBX 20 25 3 0
BITMAP
01FE00
000000
00E700
00E700
00E700
000000
007E00
01C380
0701C0
0E01E0
1C01E0
3C00F0
7800F0
7800F0
7800F0
F801E0
F001E0
F001E0
F001C0
F003C0
F00780
780700
780E00
3C3800
0FE000
ENDCHAR
STARTCHAR uni022B
ENCODING 555
SWIDTH 599 0
DWIDTH 16 0
BBX 14 20 2 0
BITMAP
07F8
0000
039C
039C
039C
0000
01F0
0638
1C3C
3C3C
383C
783C
703C
F03C
F038
F038
F070
F060
78C0
3F00
ENDCHAR
STARTCHAR uni022C
ENCODING 556
SWIDTH 831 0
DWIDTH 22 0
BBX 20 25 3 0
BITMAP
00FF00
000000
003880
007F00
008E00
000000
007E00
01C380
0701C0
0E01E0
1C01E0
3C00F0
7800F0
7800F0
7800F0
F801E0
F001E0
F001E0
F001C0
F003C0
F00780
780700
780E00
3C3800
0FE000
ENDCHAR
STARTCHAR uni022D
ENCODING 557
SWIDTH 599 0
DWIDTH 16 0
BBX 14 20 2 0
BITMAP
07F8
0000
01C4
03F8
0470
0000
01F0
0638
1C3C
3C3C
383C
783C
703C
F03C
F038
F038
F070
F060
78C0
3F00
ENDCHAR
STARTCHAR uni022E
ENCODING 558
SWIDTH 831 0
DWIDTH 22 0
BBX 20 23 3 0
BITMAP
001C00
003C00
003800
000000
007E00
01C380
0701C0
0E01E0
1C01E0
3C00F0
7800F0
7800F0
7800F0
F801E0
F001E0
F001E0
F001C0
F003C0
F00780
780700
780E00
3C3800
0FE000
ENDCHAR
STARTCHAR uni022F
ENCODING 559
SWIDTH 599 0
DWIDTH 16 0
BBX 14 18 2 0
BITMAP
00E0
01E0
01C0
0000
01F0
0638
1C3C
3C3C
383C
783C
703C
F03C
F038
F038
F070
F060
78C0
3F00
ENDCHAR
STARTCHAR uni0230
ENCODING 560
SWIDTH 831 0
DWIDTH 22 0
BBX 20 25 3 0
BITMAP
01FE00
000000
001C00
003C00
003800
000000
007E00
01C380
0701C0
0E01E0
1C01E0
3C00F0
7800F0
7800F0
7800F0
F801E0
F001E0
F001E0
F001C0
F003C0
F00780
780700
780E00
3C3800
0FE000
ENDCHAR
STARTCHAR uni0231
ENCODING 561
SWIDTH 599 0
DWIDTH 16 0
BBX 14 20 2 0
BITMAP
0FF0
0000
00E0
01E0
01C0
0000
01F0
0638
1C3C
3C3C
383C
783C
703C
F03C
F038
F038
F070
F060
78C0
3F00
ENDCHAR
STARTCHAR uni0232
ENCODING 562
SWIDTH 669 0
DWIDTH 17 0
BBX 18 21 3 0
BITMAP
0FF000
000000
FF07C0
7C0300
3C0200
3C0600
1E0C00
1E1800
1E3000
0F2000
0F6000
07C000
078000
078000
078000
0F0000
0F0000
0F0000
0F0000
1F0000
7FC000
ENDCHAR
STARTCHAR uni0233
ENCODING 563
SWIDTH 586 0
DWIDTH 15 0
BBX 18 21 0 -5
BITMAP
03FC00
000000
1F07C0
0F03C0
0781C0
078180
078380
038300
03C600
03CC00
03D800
03F000
01E000
01E000
01C000
018000
030000
060000
0C0000
1C0000
F80000
ENDCHAR
STARTCHAR uni0250
ENCODING 592
SWIDTH 634 0
DWIDTH 16 0
BBX 15 14 2 0
BITMAP
7C3C
3C7E
3CFE
3D9E
3F1E
3A1E
7C1C
7C1C
783C
7838
7030
F060
F8C0
FF00
ENDCHAR
STARTCHAR uni0259
ENCODING 601
SWIDTH 548 0
DWIDTH 14 0
BBX 13 14 2 0
BITMAP
0FC0
70F0
4078
0078
0078
07F8
1E78
3870
7070
70E0
F0E0
F1C0
7100
3E00
ENDCHAR
STARTCHAR uni025F
ENCODING 607
SWIDTH 415 0
DWIDTH 11 0
BBX 14 25 2 -11
BITMAP
003C
003C
003C
0038
0078
0078
0078
0078
0070
00F0
00F0
00F0
00F0
00E0
01E0
01E0
01E0
01E0
1FF0
03C0
03C0
4380
C380
C700
FC00
ENDCHAR
STARTCHAR uni0265
ENCODING 613
SWIDTH 656 0
DWIDTH 17 0
BBX 15 20 2 -6
BITMAP
FC1E
3C1E
3C1C
383C
783C
783C
787C
7078
70F8
F1F8
F378
FE78
FC70
70F0
00F0
00F0
00F0
00E0
01F0
01F8
ENDCHAR
STARTCHAR uni0275
ENCODING 629
SWIDTH 599 0
DWIDTH 16 0
BBX 14 14 2 0
BITMAP
01F0
0638
1C3C
3C3C
383C
783C
FFFC
F03C
F038
F038
F070
F060
78C0
3F00
ENDCHAR
STARTCHAR uni0279
ENCODING 633
SWIDTH 496 0
DWIDTH 13 0
BBX 13 14 2 0
BITMAP
0078
0078
0078
0070
00F0
00F0
00F0
01F0
02E0
07E0
4DE0
79E0
71E0
E1F0
ENDCHAR
STARTCHAR uni0287
ENCODING 647
SWIDTH 375 0
DWIDTH 10 0
BBX 9 18 3 0
BITMAP
1E00
2700
0780
0780
0780
0780
0700
0F00
0F00
0F00
0F00
0E00
1E00
FF80
1E00
1E00
1C00
1800
ENDCHAR
STARTCHAR uni0289
ENCODING 649
SWIDTH 655 0
DWIDTH 17 0
BBX 15 14 3 0
BITMAP
FC7E
3C1E
3C1C
383C
783C
783C
FFFE
7078
70F8
F1F8
F378
FE78
FC78
70FC
ENDCHAR
STARTCHAR uni028C
ENCODING 652
SWIDTH 584 0
DWIDTH 15 0
BBX 15 14 2 0
BITMAP
0060
00E0
01E0
03E0
02E0
06F0
0CF0
18F0
30F0
7078
6078
E078
F07C
F83E
ENDCHAR
STARTCHAR uni028D
ENCODING 653
SWIDTH 822 0
DWIDTH 21 0
BBX 21 14 2 0
BITMAP
00C080
00C180
01C1C0
03C3C0
07C7C0
05C7C0
09C9C0
19F9C0
10F1C0
30F1E0
60E1E0
60E0E0
F060F0
F040F8
ENDCHAR
STARTCHAR uni028E
ENCODING 654
SWIDTH 586 0
DWIDTH 15 0
BBX 18 19 0 0
BITMAP
0007C0
000E00
000C00
001800
003000
006000
00E000
01E000
01E000
03F000
06F000
0CF000
18F000
307000
707800
607800
E07800
F03C00
F83E00
ENDCHAR
STARTCHAR uni029E
ENCODING 670
SWIDTH 626 0
DWIDTH 16 0
BBX 14 20 2 -6
BITMAP
F83C
7C3C
3C3C
1E38
1E78
0F78
0778
07F8
0770
1CF0
38F0
70F0
F0F0
F0E0
00E0
01E0
01E0
01E0
01E0
03F0
ENDCHAR
STARTCHAR uni02BB
ENCODING 699
SWIDTH 265 0
DWIDTH 7 0
BBX 6 9 4 11
BITMAP
0C
3C
30
70
70
78
78
F8
F0
ENDCHAR
STARTCHAR afii57929
ENCODING 700
SWIDTH 265 0
DWIDTH 7 0
BBX 6 9 4 11
BITMAP
3C
7C
78
78
38
38
70
F0
C0
ENDCHAR
STARTCHAR afii64937
ENCODING 701
SWIDTH 265 0
DWIDTH 7 0
BBX 6 9 4 11
BITMAP
F0
F8
78
78
70
70
38
3C
0C
ENDCHAR
STARTCHAR circumflex
ENCODING 710
SWIDTH 599 0
DWIDTH 16 0
BBX 9 4 7 16
BITMAP
1E00
3F00
7300
C180
ENDCHAR
STARTCHAR caron
ENCODING 711
SWIDTH 599 0
DWIDTH 16 0
BBX 9 4 8 16
BITMAP
C180
6700
7E00
3C00
ENDCHAR
STARTCHAR uni02C8
ENCODING 712
SWIDTH 247 0
DWIDTH 6 0
BBX 4 8 4 12
BITMAP
F0
F0
F0
60
60
60
60
60
ENDCHAR
STARTCHAR macron
ENCODING 713
SWIDTH 599 0
DWIDTH 16 0
BBX 8 1 8 18
BITMAP
FF
ENDCHAR
STARTCHAR uni02CA
ENCODING 714
SWIDTH 599 0
DWIDTH 16 0
BBX 7 4 9 16
BITMAP
1E
38
70
C0
ENDCHAR
STARTCHAR uni02CB
ENCODING 715
SWIDTH 599 0
DWIDTH 16 0
BBX 5 4 9 16
BITMAP
E0
70
30
18
ENDCHAR
STARTCHAR uni02CD
ENCODING 717
SWIDTH 599 0
DWIDTH 16 0
BBX 8 1 8 -2
BITMAP
FF
ENDCHAR
STARTCHAR uni02CE
ENCODING 718
SWIDTH 599 0
DWIDTH 16 0
BBX 5 4 9 -5
BITMAP
E0
70
30
18
ENDCHAR
STARTCHAR uni02CF
ENCODING 719
SWIDTH 599 0
DWIDTH 16 0
BBX 7 4 9 -5
BITMAP
1E
38
70
C0
ENDCHAR
STARTCHAR breve
ENCODING 728
SWIDTH 599 0
DWIDTH 16 0
BBX 9 4 8 16
BITMAP
8180
E300
7E00
3C00
ENDCHAR
STARTCHAR dotaccent
ENCODING 729
SWIDTH 599 0
DWIDTH 16 0
BBX 4 3 9 16
BITMAP
70
F0
E0
ENDCHAR
STARTCHAR ring
ENCODING 730
SWIDTH 599 0
DWIDTH 16 0
BBX 4 4 10 16
BITMAP
60
90
90
60
ENDCHAR
STARTCHAR ogonek
ENCODING 731
SWIDTH 599 0
DWIDTH 16 0
BBX 5 4 5 -4
BITMAP
70
E0
E8
78
ENDCHAR
STARTCHAR tilde
ENCODING 732
SWIDTH 599 0
DWIDTH 16 0
BBX 9 3 7 16
BITMAP
3880
7F00
8E00
ENDCHAR
STARTCHAR hungarumlaut
ENCODING 733
SWIDTH 599 0
DWIDTH 16 0
BBX 10 4 8 16
BITMAP
1DC0
3300
6600
CC00
ENDCHAR
STARTCHAR uni02EE
ENCODING 750
SWIDTH 464 0
DWIDTH 12 0
BBX 11 8 4 12
BITMAP
39E0
79E0
79E0
7BC0
38C0
30C0
7180
C300
ENDCHAR
STARTCHAR uni037E
ENCODING 894
SWIDTH 265 0
DWIDTH 7 0
BBX 7 19 1 -5
BITMAP
1E
1E
1E
1C
00
00
00
00
00
00
00
78
78
78
38
30
30
60
C0
ENDCHAR
STARTCHAR tonos
ENCODING 900
SWIDTH 599 0
DWIDTH 16 0
BBX 7 4 9 16
BITMAP
1E
38
70
C0
ENDCHAR
STARTCHAR dieresistonos
ENCODING 901
SWIDTH 599 0
DWIDTH 16 0
BBX 9 8 8 16
BITMAP
0780
0E00
1C00
3000
0000
E700
E700
E700
ENDCHAR
STARTCHAR anoteleia
ENCODING 903
SWIDTH 636 0
DWIDTH 16 0
BBX 4 3 8 7
BITMAP
70
F0
E0
ENDCHAR
STARTCHAR mu
ENCODING 956
SWIDTH 687 0
DWIDTH 18 0
BBX 16 18 2 -4
BITMAP
7E3F
1E0F
1E0F
1E0E
1C1E
3C1E
3C1E
3C3E
3C7C
38FC
79BC
7FBC
7F3C
7E7E
7000
F000
F000
F000
ENDCHAR
STARTCHAR uni1E00
ENCODING 7680
SWIDTH 765 0
DWIDTH 20 0
BBX 20 24 0 -5
BITMAP
000E00
000E00
001E00
003E00
002F00
006F00
004F00
00CF00
018700
010780
030780
020780
07FF80
0C03C0
0803C0
1803C0
1003C0
3003E0
F80FF0
000000
003000
004800
004800
003000
ENDCHAR
STARTCHAR uni1E01
ENCODING 7681
SWIDTH 634 0
DWIDTH 16 0
BBX 15 19 2 -5
BITMAP
01FE
063E
0C1E
181C
383C
783C
707C
707C
F0B8
F1F8
F378
FE78
FC78
787C
0000
0300
0480
0480
0300
ENDCHAR
STARTCHAR uni1E02
ENCODING 7682
SWIDTH 651 0
DWIDTH 17 0
BBX 17 23 1 0
BITMAP
007000
00F000
00E000
000000
0FFE00
078F00
078780
078780
070780
070780
070700
0F0E00
0F1C00
0FF000
0E3C00
0E1E00
1E0F00
1E0F00
1E0F00
1C0F00
3C1E00
3C3C00
FFF000
ENDCHAR
STARTCHAR uni1E03
ENCODING 7683
SWIDTH 633 0
DWIDTH 16 0
BBX 15 24 2 0
BITMAP
0700
0F00
0E00
0000
3F00
1E00
1E00
1E00
1E00
1E00
1C3C
3C7E
3CFE
3D9E
3F1E
3A1E
7C1C
781C
783C
7838
7030
F060
F8C0
FF00
ENDCHAR
STARTCHAR uni1E04
ENCODING 7684
SWIDTH 651 0
DWIDTH 17 0
BBX 17 23 1 -4
BITMAP
0FFE00
078F00
078780
078780
070780
070780
070700
0F0E00
0F1C00
0FF000
0E3C00
0E1E00
1E0F00
1E0F00
1E0F00
1C0F00
3C1E00
3C3C00
FFF000
000000
01C000
03C000
038000
ENDCHAR
STARTCHAR uni1E05
ENCODING 7685
SWIDTH 633 0
DWIDTH 16 0
BBX 15 24 2 -4
BITMAP
3F00
1E00
1E00
1E00
1E00
1E00
1C3C
3C7E
3CFE
3D9E
3F1E
3A1E
7C1C
781C
783C
7838
7030
F060
F8C0
FF00
0000
0700
0F00
0E00
ENDCHAR
STARTCHAR uni1E06
ENCODING 7686
SWIDTH 651 0
DWIDTH 17 0
BBX 17 21 1 -2
BITMAP
0FFE00
078F00
078780
078780
070780
070780
070700
0F0E00
0F1C00
0FF000
0E3C00
0E1E00
1E0F00
1E0F00
1E0F00
1C0F00
3C1E00
3C3C00
FFF000
000000
0FF000
ENDCHAR
STARTCHAR uni1E07
ENCODING 7687
SWIDTH 633 0
DWIDTH 16 0
BBX 15 22 2 -2
BITMAP
3F00
1E00
1E00
1E00
1E00
1E00
1C3C
3C7E
3CFE
3D9E
3F1E
3A1E
7C1C
781C
783C
7838
7030
F060
F8C0
FF00
0000
3FC0
ENDCHAR
STARTCHAR uni1E08
ENCODING 7688
SWIDTH 740 0
DWIDTH 19 0
BBX 18 29 3 -5
BITMAP
003C00
007000
00E000
018000
000000
007F80
0383C0
0701C0
0E0180
1C0180
3C0000
380000
780000
780000
F00000
F00000
F00000
F00000
F00000
F80000
780000
7C0000
3E0600
0FF800
040000
070000
030000
030000
1E0000
ENDCHAR
STARTCHAR uni1E09
ENCODING 7689
SWIDTH 524 0
DWIDTH 14 0
BBX 13 24 2 -5
BITMAP
00F0
01C0
0380
0600
0000
01F8
0638
1C18
3818
3800
7800
7000
F000
F000
F000
F000
F000
7820
1FC0
3000
1C00
0C00
0C00
7800
ENDCHAR
STARTCHAR uni1E0A
ENCODING 7690
SWIDTH 822 0
DWIDTH 21 0
BBX 21 23 1 0
BITMAP
001C00
003C00
003800
000000
1FFF80
0783E0
0780F0
0780F0
078078
078078
0F0078
0F0078
0F0078
0F0078
0F00F0
0E00F0
1E00F0
1E01E0
1E01E0
1E03C0
3E0780
3E1E00
FFF800
ENDCHAR
STARTCHAR uni1E0B
ENCODING 7691
SWIDTH 634 0
DWIDTH 16 0
BBX 16 24 2 0
BITMAP
001C
003C
0038
0000
003F
000F
000F
000E
001E
001E
01FE
063E
0C1C
183C
383C
783C
703C
7078
F0B8
F1F8
F378
FE78
FC78
78FC
ENDCHAR
STARTCHAR uni1E0C
ENCODING 7692
SWIDTH 822 0
DWIDTH 21 0
BBX 21 23 1 -4
BITMAP
1FFF80
0783E0
0780F0
0780F0
078078
078078
0F0078
0F0078
0F0078
0F0078
0F00F0
0E00F0
1E00F0
1E01E0
1E01E0
1E03C0
3E0780
3E1E00
FFF800
000000
00E000
01E000
01C000
ENDCHAR
STARTCHAR uni1E0D
ENCODING 7693
SWIDTH 634 0
DWIDTH 16 0
BBX 16 24 2 -4
BITMAP
003F
000F
000F
000E
001E
001E
01FE
063E
0C1C
183C
383C
783C
703C
7078
F0B8
F1F8
F378
FE78
FC78
78FC
0000
0380
0780
0700
ENDCHAR
STARTCHAR uni1E0E
ENCODING 7694
SWIDTH 822 0
DWIDTH 21 0
BBX 21 21 1 -2
BITMAP
1FFF80
0783E0
0780F0
0780F0
078078
078078
0F0078
0F0078
0F0078
0F0078
0F00F0
0E00F0
1E00F0
1E01E0
1E01E0
1E03C0
3E0780
3E1E00
FFF800
000000
07F800
ENDCHAR
STARTCHAR uni1E0F
ENCODING 7695
SWIDTH 634 0
DWIDTH 16 0
BBX 16 22 2 -2
BITMAP
003F
000F
000F
000E
001E
001E
01FE
063E
0C1C
183C
383C
783C
703C
7078
F0B8
F1F8
F378
FE78
FC78
78FC
0000
1FE0
ENDCHAR
STARTCHAR uni1E10
ENCODING 7696
SWIDTH 822 0
DWIDTH 21 0
BBX 21 24 1 -5
BITMAP
1FFF80
0783E0
0780F0
0780F0
078078
078078
0F0078
0F0078
0F0078
0F0078
0F00F0
0E00F0
1E00F0
1E01E0
1E01E0
1E03C0
3E0780
3E1E00
FFF800
00C000
007000
003000
003000
01E000
ENDCHAR
STARTCHAR uni1E11
ENCODING 7697
SWIDTH 634 0
DWIDTH 16 0
BBX 16 25 2 -5
BITMAP
003F
000F
000F
000E
001E
001E
01FE
063E
0C1C
183C
383C
783C
703C
7078
F0B8
F1F8
F378
FE78
FC78
79FC
0300
01C0
00C0
00C0
0780
ENDCHAR
STARTCHAR uni1E12
ENCODING 7698
SWIDTH 822 0
DWIDTH 21 0
BBX 21 24 1 -5
BITMAP
1FFF80
0783E0
0780F0
0780F0
078078
078078
0F0078
0F0078
0F0078
0F0078
0F00F0
0E00F0
1E00F0
1E01E0
1E01E0
1E03C0
3E0780
3E1E00
FFF800
000000
00F000
01F800
039800
060C00
ENDCHAR
STARTCHAR uni1E13
ENCODING 7699
SWIDTH 634 0
DWIDTH 16 0
BBX 16 25 2 -5
BITMAP
003F
000F
000F
000E
001E
001E
01FE
063E
0C1C
183C
383C
783C
703C
7078
F0B8
F1F8
F378
FE78
FC78
78FC
0000
0780
0FC0
1CC0
3060
ENDCHAR
STARTCHAR uni1E14
ENCODING 7700
SWIDTH 630 0
DWIDTH 16 0
BBX 18 26 1 0
BITMAP
01C000
00E000
006000
003000
000000
03FC00
000000
0FFFC0
07C0C0
078180
078000
078000
078000
078000
0F8000
0F0600
0FFC00
0F0400
0F0C00
1E0000
1E0000
1E0000
1E0000
1E0600
3E0600
FFFE00
ENDCHAR
STARTCHAR uni1E15
ENCODING 7701
SWIDTH 548 0
DWIDTH 14 0
BBX 13 21 2 0
BITMAP
0700
0380
0180
00C0
0000
0FF0
0000
03E0
0470
1C78
3878
3870
7070
70E0
F3C0
FF00
F000
F000
F010
7870
1F80
ENDCHAR
STARTCHAR uni1E16
ENCODING 7702
SWIDTH 630 0
DWIDTH 16 0
BBX 18 26 1 0
BITMAP
003C00
007000
00E000
018000
000000
03FC00
000000
0FFFC0
07C0C0
078180
078000
078000
078000
078000
0F8000
0F0600
0FFC00
0F0400
0F0C00
1E0000
1E0000
1E0000
1E0000
1E0600
3E0600
FFFE00
ENDCHAR
STARTCHAR uni1E17
ENCODING 7703
SWIDTH 548 0
DWIDTH 14 0
BBX 13 21 2 0
BITMAP
00F0
01C0
0380
0600
0000
0FF0
0000
03E0
0470
1C78
3878
3870
7070
70E0
F3C0
FF00
F000
F000
F010
7870
1F80
ENDCHAR
STARTCHAR uni1E18
ENCODING 7704
SWIDTH 630 0
DWIDTH 16 0
BBX 18 24 1 -5
BITMAP
0FFFC0
07C0C0
078180
078000
078000
078000
078000
0F8000
0F0600
0FFC00
0F0400
0F0C00
1E0000
1E0000
1E0000
1E0000
1E0600
3E0600
FFFE00
000000
03C000
07E000
0E6000
183000
ENDCHAR
STARTCHAR uni1E19
ENCODING 7705
SWIDTH 548 0
DWIDTH 14 0
BBX 13 19 2 -5
BITMAP
03E0
0470
1C78
3878
3870
7070
70E0
F3C0
FF00
F000
F000
F010
7870
1F80
0000
0F00
1F80
3980
60C0
ENDCHAR
STARTCHAR uni1E1A
ENCODING 7706
SWIDTH 630 0
DWIDTH 16 0
BBX 18 23 1 -4
BITMAP
0FFFC0
07C0C0
078180
078000
078000
078000
078000
0F8000
0F0600
0FFC00
0F0400
0F0C00
1E0000
1E0000
1E0000
1E0000
1E0600
3E0600
FFFE00
000000
071000
0FE000
11C000
ENDCHAR
STARTCHAR uni1E1B
ENCODING 7707
SWIDTH 548 0
DWIDTH 14 0
BBX 13 18 2 -4
BITMAP
03E0
0470
1C78
3878
3870
7070
70E0
F3C0
FF00
F000
F000
F010
7870
1F80
0000
1C40
3F80
4700
ENDCHAR
STARTCHAR uni1E1C
ENCODING 7708
SWIDTH 630 0
DWIDTH 16 0
BBX 18 29 1 -5
BITMAP
040C00
071800
03F000
01E000
000000
0FFFC0
07C0C0
078180
078000
078000
078000
078000
0F8000
0F0600
0FFC00
0F0400
0F0C00
1E0000
1E0000
1E0000
1E0000
1E0600
3E0600
FFFE00
030000
01C000
00C000
00C000
078000
ENDCHAR
STARTCHAR uni1E1D
ENCODING 7709
SWIDTH 548 0
DWIDTH 14 0
BBX 13 24 2 -5
BITMAP
1030
1C60
0FC0
0780
0000
03E0
0470
1C78
3878
3870
7070
70E0
F3C0
FF00
F000
F000
F010
7870
1F80
0C00
0700
0300
0300
1E00
ENDCHAR
STARTCHAR uni1E1E
ENCODING 7710
SWIDTH 602 0
DWIDTH 16 0
BBX 17 23 1 0
BITMAP
00E000
01E000
01C000
000000
1FFF80
078180
078300
078000
078000
070000
0F0000
0F0000
0F0C00
0FF800
0E0800
1E0000
1E0000
1E0000
1E0000
1C0000
3C0000
3C0000
FF0000
ENDCHAR
STARTCHAR uni1E1F
ENCODING 7711
SWIDTH 415 0
DWIDTH 11 0
BBX 14 29 2 -5
BITMAP
01C0
03C0
0380
0000
00FC
038C
070C
0708
0F00
0F00
3FE0
1E00
1E00
1E00
1E00
1C00
3C00
3C00
3C00
3C00
3800
7800
7800
7800
7800
7000
F000
F000
F000
ENDCHAR
STARTCHAR uni1E20
ENCODING 7712
SWIDTH 780 0
DWIDTH 20 0
BBX 18 21 3 0
BITMAP
01FE00
000000
00FF80
03C3C0
0701C0
0E0180
1C0180
3C0000
380000
780000
780000
F00000
F03FC0
F00F00
F00F00
F00E00
F01E00
781E00
781E00
3E1E00
0FF000
ENDCHAR
STARTCHAR uni1E21
ENCODING 7713
SWIDTH 628 0
DWIDTH 16 0
BBX 16 21 1 -5
BITMAP
03FC
0000
00FF
031F
060F
0C0E
1C0E
3C1E
383E
783E
785C
78FC
79BC
7F3C
7E38
3C38
0078
8070
C070
70C0
7F00
ENDCHAR
STARTCHAR uni1E22
ENCODING 7714
SWIDTH 827 0
DWIDTH 22 0
BBX 23 23 1 0
BITMAP
000E00
001E00
001C00
000000
1FF1FE
07C078
078078
0780F0
0780F0
0780F0
0F00F0
0F00F0
0F00E0
0FFFE0
0F01E0
1E01E0
1E01E0
1E01C0
1E03C0
1E03C0
3C03C0
3C07C0
FF1FF0
ENDCHAR
STARTCHAR uni1E23
ENCODING 7715
SWIDTH 656 0
DWIDTH 17 0
BBX 15 24 2 0
BITMAP
0700
0F00
0E00
0000
3F00
1F00
0E00
1E00
1E00
1E00
1E1C
1C7E
3CFE
3D9E
3F1E
3E1C
3C1C
7C3C
783C
783C
7838
7078
F078
F07E
ENDCHAR
STARTCHAR uni1E24
ENCODING 7716
SWIDTH 827 0
DWIDTH 22 0
BBX 23 23 1 -4
BITMAP
1FF1FE
07C078
078078
0780F0
0780F0
0780F0
0F00F0
0F00F0
0F00E0
0FFFE0
0F01E0
1E01E0
1E01E0
1E01C0
1E03C0
1E03C0
3C03C0
3C07C0
FF1FF0
000000
007000
00F000
00E000
ENDCHAR
STARTCHAR uni1E25
ENCODING 7717
SWIDTH 656 0
DWIDTH 17 0
BBX 15 24 2 -4
BITMAP
3F00
1F00
0E00
1E00
1E00
1E00
1E1C
1C7E
3CFE
3D9E
3F1E
3E1C
3C1C
7C3C
783C
783C
7838
7078
F078
F07E
0000
0380
0780
0700
ENDCHAR
STARTCHAR uni1E26
ENCODING 7718
SWIDTH 827 0
DWIDTH 22 0
BBX 23 23 1 0
BITMAP
00E700
00E700
00E700
000000
1FF1FE
07C078
078078
0780F0
0780F0
0780F0
0F00F0
0F00F0
0F00E0
0FFFE0
0F01E0
1E01E0
1E01E0
1E01C0
1E03C0
1E03C0
3C03C0
3C07C0
FF1FF0
ENDCHAR
STARTCHAR uni1E27
ENCODING 7719
SWIDTH 656 0
DWIDTH 17 0
BBX 15 24 2 0
BITMAP
39C0
39C0
39C0
0000
3F00
1F00
0E00
1E00
1E00
1E00
1E1C
1C7E
3CFE
3D9E
3F1E
3E1C
3C1C
7C3C
783C
783C
7838
7078
F078
F07E
ENDCHAR
STARTCHAR uni1E28
ENCODING 7720
SWIDTH 827 0
DWIDTH 22 0
BBX 23 24 1 -5
BITMAP
1FF1FE
07C078
078078
0780F0
0780F0
0780F0
0F00F0
0F00F0
0F00E0
0FFFE0
0F01E0
1E01E0
1E01E0
1E01C0
1E03C0
1E03C0
3C03C0
3C07C0
FF3FF0
006000
003800
001800
001800
00F000
ENDCHAR
STARTCHAR uni1E29
ENCODING 7721
SWIDTH 656 0
DWIDTH 17 0
BBX 15 25 2 -5
BITMAP
3F00
1F00
0E00
1E00
1E00
1E00
1E1C
1C7E
3CFE
3D9E
3F1E
3E1C
3C1C
7C3C
783C
783C
7838
7078
F078
F1FE
0300
01C0
00C0
00C0
0780
ENDCHAR
STARTCHAR uni1E2A
ENCODING 7722
SWIDTH 827 0
DWIDTH 22 0
BBX 23 24 1 -5
BITMAP
1FF1FE
07C078
078078
0780F0
0780F0
0780F0
0F00F0
0F00F0
0F00E0
0FFFE0
0F01E0
1E01E0
1E01E0
1E01C0
1E03C0
1E03C0
3C03C0
3C07C0
FF1FF0
000000
020600
038C00
01F800
00F000
ENDCHAR
STARTCHAR uni1E2B
ENCODING 7723
SWIDTH 656 0
DWIDTH 17 0
BBX 15 25 2 -5
BITMAP
3F00
1F00
0E00
1E00
1E00
1E00
1E1C
1C7E
3CFE
3D9E
3F1E
3E1C
3C1C
7C3C
783C
783C
7838
7078
F078
F07E
0000
1030
1C60
0FC0
0780
ENDCHAR
STARTCHAR uni1E2C
ENCODING 7724
SWIDTH 372 0
DWIDTH 10 0
BBX 12 23 1 -4
BITMAP
0FF0
07C0
0780
0780
0780
0780
0780
0F00
0F00
0F00
0F00
0F00
1E00
1E00
1E00
1E00
1E00
3E00
FF00
0000
3880
7F00
8E00
ENDCHAR
STARTCHAR uni1E2D
ENCODING 7725
SWIDTH 319 0
DWIDTH 8 0
BBX 9 23 1 -4
BITMAP
0780
0780
0F00
0000
0000
3F00
1E00
1E00
1E00
1E00
1E00
1C00
3C00
3C00
3C00
3C00
3800
7C00
7E00
0000
3880
7F00
8E00
ENDCHAR
STARTCHAR uni1E2E
ENCODING 7726
SWIDTH 372 0
DWIDTH 10 0
BBX 12 28 1 0
BITMAP
00F0
01C0
0380
0600
0000
0E70
0E70
0E70
0000
0FF0
07C0
0780
0780
0780
0780
0780
0F00
0F00
0F00
0F00
0F00
1E00
1E00
1E00
1E00
1E00
3E00
FF00
ENDCHAR
STARTCHAR uni1E2F
ENCODING 7727
SWIDTH 319 0
DWIDTH 8 0
BBX 10 23 2 0
BITMAP
03C0
0700
0E00
1800
0000
39C0
39C0
39C0
0000
7E00
3E00
3C00
3C00
3C00
3C00
3800
3800
7800
7800
7800
7800
F800
FC00
ENDCHAR
STARTCHAR uni1E30
ENCODING 7728
SWIDTH 746 0
DWIDTH 19 0
BBX 20 24 1 0
BITMAP
001E00
003800
007000
00C000
000000
1FE1F0
07C0C0
078180
078300
078400
070800
0F3000
0F6000
0FE000
0FF000
0EF000
0E7800
1E7C00
1E3C00
1E3E00
1C1F00
3C0F00
3C0F80
FF1FE0
ENDCHAR
STARTCHAR uni1E31
ENCODING 7729
SWIDTH 626 0
DWIDTH 16 0
BBX 14 25 2 0
BITMAP
03C0
0700
0E00
1800
0000
3F00
1E00
1E00
1E00
1E00
1C00
1C3C
3C3C
3C38
3C70
3CE0
3B80
7F80
7B80
7BC0
79E0
71E0
F0F0
F0F8
F07C
ENDCHAR
STARTCHAR uni1E32
ENCODING 7730
SWIDTH 746 0
DWIDTH 19 0
BBX 20 23 1 -4
BITMAP
1FE1F0
07C0C0
078180
078300
078400
070800
0F3000
0F6000
0FE000
0FF000
0EF000
0E7800
1E7C00
1E3C00
1E3E00
1C1F00
3C0F00
3C0F80
FF1FE0
000000
00E000
01E000
01C000
ENDCHAR
STARTCHAR uni1E33
ENCODING 7731
SWIDTH 626 0
DWIDTH 16 0
BBX 14 24 2 -4
BITMAP
3F00
1E00
1E00
1E00
1E00
1C00
1C3C
3C3C
3C38
3C70
3CE0
3B80
7F80
7B80
7BC0
79E0
71E0
F0F0
F0F8
F07C
0000
0700
0F00
0E00
ENDCHAR
STARTCHAR uni1E34
ENCODING 7732
SWIDTH 746 0
DWIDTH 19 0
BBX 20 21 1 -2
BITMAP
1FE1F0
07C0C0
078180
078300
078400
070800
0F3000
0F6000
0FE000
0FF000
0EF000
0E7800
1E7C00
1E3C00
1E3E00
1C1F00
3C0F00
3C0F80
FF1FE0
000000
03FC00
ENDCHAR
STARTCHAR uni1E35
ENCODING 7733
SWIDTH 626 0
DWIDTH 16 0
BBX 14 22 2 -2
BITMAP
3F00
1E00
1E00
1E00
1E00
1C00
1C3C
3C3C
3C38
3C70
3CE0
3B80
7F80
7B80
7BC0
79E0
71E0
F0F0
F0F8
F07C
0000
1FE0
ENDCHAR
STARTCHAR uni1E36
ENCODING 7734
SWIDTH 611 0
DWIDTH 16 0
BBX 15 23 1 -4
BITMAP
1FF0
07C0
0780
0780
0780
0780
0F00
0F00
0F00
0F00
0F00
1E00
1E00
1E00
1E00
1E06
3C06
3C0C
FFFC
0000
0380
0780
0700
ENDCHAR
STARTCHAR uni1E37
ENCODING 7735
SWIDTH 319 0
DWIDTH 8 0
BBX 8 24 2 -4
BITMAP
3F
0F
0E
1E
1E
1E
1E
1C
3C
3C
3C
3C
38
78
78
78
78
70
F0
FC
00
38
78
70
ENDCHAR
STARTCHAR uni1E38
ENCODING 7736
SWIDTH 611 0
DWIDTH 16 0
BBX 15 25 1 -4
BITMAP
1FE0
0000
1FF0
07C0
0780
0780
0780
0780
0F00
0F00
0F00
0F00
0F00
1E00
1E00
1E00
1E00
1E06
3C06
3C0C
FFFC
0000
0380
0780
0700
ENDCHAR
STARTCHAR uni1E39
ENCODING 7737
SWIDTH 319 0
DWIDTH 8 0
BBX 9 26 2 -4
BITMAP
7F80
0000
3F00
0F00
0E00
1E00
1E00
1E00
1E00
1C00
3C00
3C00
3C00
3C00
3800
7800
7800
7800
7800
7000
F000
FC00
0000
3800
7800
7000
ENDCHAR
STARTCHAR uni1E3A
ENCODING 7738
SWIDTH 611 0
DWIDTH 16 0
BBX 15 21 1 -2
BITMAP
1FF0
07C0
0780
0780
0780
0780
0F00
0F00
0F00
0F00
0F00
1E00
1E00
1E00
1E00
1E06
3C06
3C0C
FFFC
0000
1FE0
ENDCHAR
STARTCHAR uni1E3B
ENCODING 7739
SWIDTH 319 0
DWIDTH 8 0
BBX 9 22 1 -2
BITMAP
1F80
0780
0700
0F00
0F00
0F00
0F00
0E00
1E00
1E00
1E00
1E00
1C00
3C00
3C00
3C00
3C00
3800
7800
7E00
0000
FF00
ENDCHAR
STARTCHAR uni1E3C
ENCODING 7740
SWIDTH 611 0
DWIDTH 16 0
BBX 15 24 1 -5
BITMAP
1FF0
07C0
0780
0780
0780
0780
0F00
0F00
0F00
0F00
0F00
1E00
1E00
1E00
1E00
1E06
3C06
3C0C
FFFC
0000
0780
0FC0
1CC0
3060
ENDCHAR
STARTCHAR uni1E3D
ENCODING 7741
SWIDTH 319 0
DWIDTH 8 0
BBX 10 25 0 -5
BITMAP
0FC0
03C0
0380
0780
0780
0780
0780
0700
0F00
0F00
0F00
0F00
0E00
1E00
1E00
1E00
1E00
1C00
3C00
3F00
0000
1E00
3F00
7300
C180
ENDCHAR
STARTCHAR uni1E3E
ENCODING 7742
SWIDTH 926 0
DWIDTH 24 0
BBX 26 24 1 0
BITMAP
0001E000
00038000
00070000
000C0000
00000000
0F800FC0
07801F00
07C01F00
07C02E00
07C03E00
07C05E00
04E0DE00
0CE09C00
0CE11C00
0CE31C00
0C723C00
08763C00
18743C00
18783800
18383800
18307800
30207800
30007800
FC01FC00
ENDCHAR
STARTCHAR uni1E3F
ENCODING 7743
SWIDTH 969 0
DWIDTH 25 0
BBX 23 19 2 0
BITMAP
000780
000E00
001C00
003000
000000
7E381C
3C7C7E
3CFCFE
3D9D9E
3F3D1E
3E3E1C
7C3E1C
783C3C
78383C
70783C
707838
F07838
F07078
F0707E
ENDCHAR
STARTCHAR uni1E40
ENCODING 7744
SWIDTH 926 0
DWIDTH 24 0
BBX 26 23 1 0
BITMAP
00070000
000F0000
000E0000
00000000
0F800FC0
07801F00
07C01F00
07C02E00
07C03E00
07C05E00
04E0DE00
0CE09C00
0CE11C00
0CE31C00
0C723C00
08763C00
18743C00
18783800
18383800
18307800
30207800
30007800
FC01FC00
ENDCHAR
STARTCHAR uni1E41
ENCODING 7745
SWIDTH 969 0
DWIDTH 25 0
BBX 23 18 2 0
BITMAP
001C00
003C00
003800
000000
7E381C
3C7C7E
3CFCFE
3D9D9E
3F3D1E
3E3E1C
7C3E1C
783C3C
78383C
70783C
707838
F07838
F07078
F0707E
ENDCHAR
STARTCHAR uni1E42
ENCODING 7746
SWIDTH 926 0
DWIDTH 24 0
BBX 26 23 1 -4
BITMAP
0F800FC0
07801F00
07C01F00
07C02E00
07C03E00
07C05E00
04E0DE00
0CE09C00
0CE11C00
0CE31C00
0C723C00
08763C00
18743C00
18783800
18383800
18307800
30207800
30007800
FC01FC00
00000000
001C0000
003C0000
00380000
ENDCHAR
STARTCHAR uni1E43
ENCODING 7747
SWIDTH 969 0
DWIDTH 25 0
BBX 23 18 2 -4
BITMAP
7E381C
3C7C7E
3CFCFE
3D9D9E
3F3D1E
3E3E1C
7C3E1C
783C3C
78383C
70783C
707838
F07838
F07078
F0707E
000000
003800
007800
007000
ENDCHAR
STARTCHAR uni1E44
ENCODING 7748
SWIDTH 797 0
DWIDTH 21 0
BBX 23 23 1 0
BITMAP
001C00
003C00
003800
000000
0F807E
078038
07C030
07C030
07E030
07F030
06F030
0C7860
0C7860
0C3C60
0C3C60
0C1E60
181E40
180FC0
180FC0
1807C0
1803C0
380380
FC0180
ENDCHAR
STARTCHAR uni1E45
ENCODING 7749
SWIDTH 656 0
DWIDTH 17 0
BBX 15 18 2 0
BITMAP
01C0
03C0
0380
0000
7E1C
3C7E
3CFE
3D9E
3D1E
3E1C
3C1C
7C3C
783C
783C
7838
7078
F078
F07E
ENDCHAR
STARTCHAR uni1E46
ENCODING 7750
SWIDTH 797 0
DWIDTH 21 0
BBX 23 23 1 -4
BITMAP
0F807E
078038
07C030
07C030
07E030
07F030
06F030
0C7860
0C7860
0C3C60
0C3C60
0C1E60
181E40
180FC0
180FC0
1807C0
1803C0
380380
FC0180
000000
007000
00F000
00E000
ENDCHAR
STARTCHAR uni1E47
ENCODING 7751
SWIDTH 656 0
DWIDTH 17 0
BBX 15 18 2 -4
BITMAP
7E1C
3C7E
3CFE
3D9E
3D1E
3E1C
3C1C
7C3C
783C
783C
7838
7078
F078
F07E
0000
0380
0780
0700
ENDCHAR
STARTCHAR uni1E48
ENCODING 7752
SWIDTH 797 0
DWIDTH 21 0
BBX 23 21 1 -2
BITMAP
0F807E
078038
07C030
07C030
07E030
07F030
06F030
0C7860
0C7860
0C3C60
0C3C60
0C1E60
181E40
180FC0
180FC0
1807C0
1803C0
380380
FC0180
000000
01FE00
ENDCHAR
STARTCHAR uni1E49
ENCODING 7753
SWIDTH 656 0
DWIDTH 17 0
BBX 15 16 2 -2
BITMAP
7E1C
3C7E
3CFE
3D9E
3D1E
3E1C
3C1C
7C3C
783C
783C
7838
7078
F078
F07E
0000
1FE0
ENDCHAR
STARTCHAR uni1E4A
ENCODING 7754
SWIDTH 797 0
DWIDTH 21 0
BBX 23 24 1 -5
BITMAP
0F807E
078038
07C030
07C030
07E030
07F030
06F030
0C7860
0C7860
0C3C60
0C3C60
0C1E60
181E40
180FC0
180FC0
1807C0
1803C0
380380
FC0180
000000
007800
00FC00
01CC00
030600
ENDCHAR
STARTCHAR uni1E4B
ENCODING 7755
SWIDTH 656 0
DWIDTH 17 0
BBX 15 19 2 -5
BITMAP
7E1C
3C7E
3CFE
3D9E
3D1E
3E1C
3C1C
7C3C
783C
783C
7838
7078
F078
F07E
0000
0780
0FC0
1CC0
3060
ENDCHAR
STARTCHAR uni1E4C
ENCODING 7756
SWIDTH 831 0
DWIDTH 22 0
BBX 20 28 3 0
BITMAP
000F00
001C00
003800
006000
000000
003880
007F00
008E00
000000
007E00
01C380
0701C0
0E01E0
1C01E0
3C00F0
7800F0
7800F0
7800F0
F801E0
F001E0
F001E0
F001C0
F003C0
F00780
780700
780E00
3C3800
0FE000
ENDCHAR
STARTCHAR uni1E4D
ENCODING 7757
SWIDTH 599 0
DWIDTH 16 0
BBX 14 23 2 0
BITMAP
0078
00E0
01C0
0300
0000
01C4
03F8
0470
0000
01F0
0638
1C3C
3C3C
383C
783C
703C
F03C
F038
F038
F070
F060
78C0
3F00
ENDCHAR
STARTCHAR uni1E4E
ENCODING 7758
SWIDTH 831 0
DWIDTH 22 0
BBX 20 27 3 0
BITMAP
00E700
00E700
00E700
000000
003880
007F00
008E00
000000
007E00
01C380
0701C0
0E01E0
1C01E0
3C00F0
7800F0
7800F0
7800F0
F801E0
F001E0
F001E0
F001C0
F003C0
F00780
780700
780E00
3C3800
0FE000
ENDCHAR
STARTCHAR uni1E4F
ENCODING 7759
SWIDTH 599 0
DWIDTH 16 0
BBX 14 22 2 0
BITMAP
0738
0738
0738
0000
01C4
03F8
0470
0000
01F0
0638
1C3C
3C3C
383C
783C
703C
F03C
F038
F038
F070
F060
78C0
3F00
ENDCHAR
STARTCHAR uni1E50
ENCODING 7760
SWIDTH 831 0
DWIDTH 22 0
BBX 20 26 3 0
BITMAP
00E000
007000
003000
001800
000000
01FE00
000000
007E00
01C380
0701C0
0E01E0
1C01E0
3C00F0
7800F0
7800F0
7800F0
F801E0
F001E0
F001E0
F001C0
F003C0
F00780
780700
780E00
3C3800
0FE000
ENDCHAR
STARTCHAR uni1E51
ENCODING 7761
SWIDTH 599 0
DWIDTH 16 0
BBX 14 21 2 0
BITMAP
0700
0380
0180
00C0
0000
0FF0
0000
01F0
0638
1C3C
3C3C
383C
783C
703C
F03C
F038
F038
F070
F060
78C0
3F00
ENDCHAR
STARTCHAR uni1E52
ENCODING 7762
SWIDTH 831 0
DWIDTH 22 0
BBX 20 26 3 0
BITMAP
000F00
001C00
003800
006000
000000
01FE00
000000
007E00
01C380
0701C0
0E01E0
1C01E0
3C00F0
7800F0
7800F0
7800F0
F801E0
F001E0
F001E0
F001C0
F003C0
F00780
780700
780E00
3C3800
0FE000
ENDCHAR
STARTCHAR uni1E53
ENCODING 7763
SWIDTH 599 0
DWIDTH 16 0
BBX 14 21 2 0
BITMAP
0078
00E0
01C0
0300
0000
0FF0
0000
01F0
0638
1C3C
3C3C
383C
783C
703C
F03C
F038
F038
F070
F060
78C0
3F00
ENDCHAR
STARTCHAR uni1E54
ENCODING 7764
SWIDTH 628 0
DWIDTH 16 0
BBX 18 24 1 0
BITMAP
001E00
003800
007000
00C000
000000
0FFF00
07C780
0783C0
0783C0
0783C0
0783C0
078380
0F0780
0F0F00
0F1E00
0FF000
0E0000
1E0000
1E0000
1E0000
1E0000
1E0000
3E0000
FF8000
ENDCHAR
STARTCHAR uni1E55
ENCODING 7765
SWIDTH 639 0
DWIDTH 17 0
BBX 16 24 1 -5
BITMAP
0078
00E0
01C0
0300
0000
7E1E
1E3F
1E7F
1ECF
1F8F
1D0F
3E0F
3C0E
3C1E
3C1C
3818
7830
7C60
7F80
7800
7000
F000
F000
F000
ENDCHAR
STARTCHAR uni1E56
ENCODING 7766
SWIDTH 628 0
DWIDTH 16 0
BBX 18 23 1 0
BITMAP
003800
007800
007000
000000
0FFF00
07C780
0783C0
0783C0
0783C0
0783C0
078380
0F0780
0F0F00
0F1E00
0FF000
0E0000
1E0000
1E0000
1E0000
1E0000
1E0000
3E0000
FF8000
ENDCHAR
STARTCHAR uni1E57
ENCODING 7767
SWIDTH 639 0
DWIDTH 17 0
BBX 16 23 1 -5
BITMAP
00E0
01E0
01C0
0000
7E1E
1E3F
1E7F
1ECF
1F8F
1D0F
3E0F
3C0E
3C1E
3C1C
3818
7830
7C60
7F80
7800
7000
F000
F000
F000
ENDCHAR
STARTCHAR uni1E58
ENCODING 7768
SWIDTH 711 0
DWIDTH 18 0
BBX 18 23 1 0
BITMAP
003800
007800
007000
000000
0FFF00
078780
0783C0
0783C0
0783C0
0783C0
070780
0F0780
0F1F00
0FFC00
0F7800
0E3C00
1E3C00
1E1E00
1E1E00
1E0F00
1C0F00
3C0F80
FF07C0
ENDCHAR
STARTCHAR uni1E59
ENCODING 7769
SWIDTH 496 0
DWIDTH 13 0
BBX 13 18 2 0
BITMAP
0380
0780
0700
0000
7C38
3C70
3CF0
3D90
3F00
3A00
7C00
7800
7800
7800
7000
F000
F000
F000
ENDCHAR
STARTCHAR uni1E5A
ENCODING 7770
SWIDTH 711 0
DWIDTH 18 0
BBX 18 23 1 -4
BITMAP
0FFF00
078780
0783C0
0783C0
0783C0
0783C0
070780
0F0780
0F1F00
0FFC00
0F7800
0E3C00
1E3C00
1E1E00
1E1E00
1E0F00
1C0F00
3C0F80
FF07C0
000000
00E000
01E000
01C000
ENDCHAR
STARTCHAR uni1E5B
ENCODING 7771
SWIDTH 496 0
DWIDTH 13 0
BBX 13 18 2 -4
BITMAP
7C38
3C70
3CF0
3D90
3F00
3A00
7C00
7800
7800
7800
7000
F000
F000
F000
0000
3800
7800
7000
ENDCHAR
STARTCHAR uni1E5C
ENCODING 7772
SWIDTH 711 0
DWIDTH 18 0
BBX 18 25 1 -4
BITMAP
03FC00
000000
0FFF00
078780
0783C0
0783C0
0783C0
0783C0
070780
0F0780
0F1F00
0FFC00
0F7800
0E3C00
1E3C00
1E1E00
1E1E00
1E0F00
1C0F00
3C0F80
FF07C0
000000
00E000
01E000
01C000
ENDCHAR
STARTCHAR uni1E5D
ENCODING 7773
SWIDTH 496 0
DWIDTH 13 0
BBX 13 20 2 -4
BITMAP
3FC0
0000
7C38
3C70
3CF0
3D90
3F00
3A00
7C00
7800
7800
7800
7000
F000
F000
F000
0000
3800
7800
7000
ENDCHAR
STARTCHAR uni1E5E
ENCODING 7774
SWIDTH 711 0
DWIDTH 18 0
BBX 18 21 1 -2
BITMAP
0FFF00
078780
0783C0
0783C0
0783C0
0783C0
070780
0F0780
0F1F00
0FFC00
0F7800
0E3C00
1E3C00
1E1E00
1E1E00
1E0F00
1C0F00
3C0F80
FF07C0
000000
07F800
ENDCHAR
STARTCHAR uni1E5F
ENCODING 7775
SWIDTH 496 0
DWIDTH 13 0
BBX 13 16 2 -2
BITMAP
7C38
3C70
3CF0
3D90
3F00
3A00
7C00
7800
7800
7800
7000
F000
F000
F000
0000
FF00
ENDCHAR
STARTCHAR uni1E60
ENCODING 7776
SWIDTH 587 0
DWIDTH 15 0
BBX 15 23 2 0
BITMAP
00E0
01E0
01C0
0000
01FC
070E
0E06
1E0C
1E00
1E00
1F00
1F80
0FC0
07E0
03F0
00F8
0078
0078
0078
6078
C0F0
E1E0
7F80
ENDCHAR
STARTCHAR uni1E61
ENCODING 7777
SWIDTH 479 0
DWIDTH 12 0
BBX 12 18 1 0
BITMAP
0380
0780
0700
0000
07F0
0C30
1C30
1C30
1C00
1E00
0F80
07C0
03C0
01E0
41E0
C1C0
E380
7F00
ENDCHAR
STARTCHAR uni1E62
ENCODING 7778
SWIDTH 587 0
DWIDTH 15 0
BBX 15 23 2 -4
BITMAP
01FC
070E
0E06
1E0C
1E00
1E00
1F00
1F80
0FC0
07E0
03F0
00F8
0078
0078
0078
6078
C0F0
E1E0
7F80
0000
0380
0780
0700
ENDCHAR
STARTCHAR uni1E63
ENCODING 7779
SWIDTH 479 0
DWIDTH 12 0
BBX 12 18 1 -4
BITMAP
07F0
0C30
1C30
1C30
1C00
1E00
0F80
07C0
03C0
01E0
41E0
C1C0
E380
7F00
0000
0E00
1E00
1C00
ENDCHAR
STARTCHAR uni1E64
ENCODING 7780
SWIDTH 587 0
DWIDTH 15 0
BBX 15 28 2 0
BITMAP
00E0
01E0
01C0
0000
0078
00E0
01C0
0300
0000
01FC
070E
0E06
1E0C
1E00
1E00
1F00
1F80
0FC0
07E0
03F0
00F8
0078
0078
0078
6078
C0F0
E1E0
7F80
ENDCHAR
STARTCHAR uni1E65
ENCODING 7781
SWIDTH 479 0
DWIDTH 12 0
BBX 12 23 1 0
BITMAP
01C0
03C0
0380
0000
00F0
01C0
0380
0600
0000
07F0
0C30
1C30
1C30
1C00
1E00
0F80
07C0
03C0
01E0
41E0
C1C0
E380
7F00
ENDCHAR
STARTCHAR uni1E66
ENCODING 7782
SWIDTH 587 0
DWIDTH 15 0
BBX 15 28 2 0
BITMAP
0070
00F0
00E0
0000
0306
019C
01F8
00F0
0000
01FC
070E
0E06
1E0C
1E00
1E00
1F00
1F80
0FC0
07E0
03F0
00F8
0078
0078
0078
6078
C0F0
E1E0
7F80
ENDCHAR
STARTCHAR uni1E67
ENCODING 7783
SWIDTH 479 0
DWIDTH 12 0
BBX 14 23 1 0
BITMAP
00E0
01E0
01C0
0000
060C
0338
03F0
01E0
0000
07F0
0C30
1C30
1C30
1C00
1E00
0F80
07C0
03C0
01E0
41E0
C1C0
E380
7F00
ENDCHAR
STARTCHAR uni1E68
ENCODING 7784
SWIDTH 587 0
DWIDTH 15 0
BBX 15 27 2 -4
BITMAP
01C0
03C0
0380
0000
01FC
070E
0E06
1E0C
1E00
1E00
1F00
1F80
0FC0
07E0
03F0
00F8
0078
0078
0078
6078
C0F0
E1E0
7F80
0000
0380
0780
0700
ENDCHAR
STARTCHAR uni1E69
ENCODING 7785
SWIDTH 479 0
DWIDTH 12 0
BBX 12 22 1 -4
BITMAP
0380
0780
0700
0000
07F0
0C30
1C30
1C30
1C00
1E00
0F80
07C0
03C0
01E0
41E0
C1C0
E380
7F00
0000
0E00
1E00
1C00
ENDCHAR
STARTCHAR uni1E6A
ENCODING 7786
SWIDTH 716 0
DWIDTH 19 0
BBX 18 23 4 0
BITMAP
00E000
01E000
01C000
000000
7FFFC0
E1E0C0
C1E080
C1E180
01C000
03C000
03C000
03C000
03C000
03C000
078000
078000
078000
078000
078000
0F0000
0F0000
0F0000
7FC000
ENDCHAR
STARTCHAR uni1E6B
ENCODING 7787
SWIDTH 375 0
DWIDTH 10 0
BBX 9 22 3 0
BITMAP
0E00
1E00
1C00
0000
0C00
1C00
3C00
3C00
FF80
3C00
3800
7800
7800
7800
7800
7000
F000
F000
F000
F000
7200
3C00
ENDCHAR
STARTCHAR uni1E6C
ENCODING 7788
SWIDTH 716 0
DWIDTH 19 0
BBX 18 23 4 -4
BITMAP
7FFFC0
E1E0C0
C1E080
C1E180
01C000
03C000
03C000
03C000
03C000
03C000
078000
078000
078000
078000
078000
0F0000
0F0000
0F0000
7FC000
000000
038000
078000
070000
ENDCHAR
STARTCHAR uni1E6D
ENCODING 7789
SWIDTH 375 0
DWIDTH 10 0
BBX 9 22 3 -4
BITMAP
0C00
1C00
3C00
3C00
FF80
3C00
3800
7800
7800
7800
7800
7000
F000
F000
F000
F000
7200
3C00
0000
3800
7800
7000
ENDCHAR
STARTCHAR uni1E6E
ENCODING 7790
SWIDTH 716 0
DWIDTH 19 0
BBX 18 21 4 -2
BITMAP
7FFFC0
E1E0C0
C1E080
C1E180
01C000
03C000
03C000
03C000
03C000
03C000
078000
078000
078000
078000
078000
0F0000
0F0000
0F0000
7FC000
000000
1FE000
ENDCHAR
STARTCHAR uni1E6F
ENCODING 7791
SWIDTH 375 0
DWIDTH 10 0
BBX 10 20 2 -2
BITMAP
0600
0E00
1E00
1E00
7FC0
1E00
1C00
3C00
3C00
3C00
3C00
3800
7800
7800
7800
7800
3900
1E00
0000
FF00
ENDCHAR
STARTCHAR uni1E70
ENCODING 7792
SWIDTH 716 0
DWIDTH 19 0
BBX 18 24 4 -5
BITMAP
7FFFC0
E1E0C0
C1E080
C1E180
01C000
03C000
03C000
03C000
03C000
03C000
078000
078000
078000
078000
078000
0F0000
0F0000
0F0000
7FC000
000000
078000
0FC000
1CC000
306000
ENDCHAR
STARTCHAR uni1E71
ENCODING 7793
SWIDTH 375 0
DWIDTH 10 0
BBX 11 23 1 -5
BITMAP
0300
0700
0F00
0F00
3FE0
0F00
0E00
1E00
1E00
1E00
1E00
1C00
3C00
3C00
3C00
3C00
1C80
0F00
0000
1E00
3F00
7300
C180
ENDCHAR
STARTCHAR uni1E72
ENCODING 7794
SWIDTH 775 0
DWIDTH 20 0
BBX 19 23 4 -4
BITMAP
FF07E0
3E0180
3C0180
3C0100
3C0100
780100
780300
780200
780200
780200
F00200
F00600
F00400
F00400
F00400
F00800
701800
383000
1FC000
000000
1CE000
1CE000
1CE000
ENDCHAR
STARTCHAR uni1E73
ENCODING 7795
SWIDTH 655 0
DWIDTH 17 0
BBX 15 18 3 -4
BITMAP
FC7E
3C1E
3C1C
383C
783C
783C
787C
7078
70F8
F1F8
F378
FE78
FC78
70FC
0000
1CE0
1CE0
1CE0
ENDCHAR
STARTCHAR uni1E74
ENCODING 7796
SWIDTH 775 0
DWIDTH 20 0
BBX 19 23 4 -4
BITMAP
FF07E0
3E0180
3C0180
3C0100
3C0100
780100
780300
780200
780200
780200
F00200
F00600
F00400
F00400
F00400
F00800
701800
383000
1FC000
000000
0E2000
1FC000
238000
ENDCHAR
STARTCHAR uni1E75
ENCODING 7797
SWIDTH 655 0
DWIDTH 17 0
BBX 15 18 3 -4
BITMAP
FC7E
3C1E
3C1C
383C
783C
783C
787C
7078
70F8
F1F8
F378
FE78
FC78
70FC
0000
0E20
1FC0
2380
ENDCHAR
STARTCHAR uni1E76
ENCODING 7798
SWIDTH 775 0
DWIDTH 20 0
BBX 19 24 4 -5
BITMAP
FF07E0
3E0180
3C0180
3C0100
3C0100
780100
780300
780200
780200
780200
F00200
F00600
F00400
F00400
F00400
F00800
701800
383000
1FC000
000000
078000
0FC000
1CC000
306000
ENDCHAR
STARTCHAR uni1E77
ENCODING 7799
SWIDTH 655 0
DWIDTH 17 0
BBX 15 19 3 -5
BITMAP
FC7E
3C1E
3C1C
383C
783C
783C
787C
7078
70F8
F1F8
F378
FE78
FC78
70FC
0000
0780
0FC0
1CC0
3060
ENDCHAR
STARTCHAR uni1E78
ENCODING 7800
SWIDTH 775 0
DWIDTH 20 0
BBX 19 28 4 0
BITMAP
007800
00E000
01C000
030000
000000
038800
07F000
08E000
000000
FF07E0
3E0180
3C0180
3C0100
3C0100
780100
780300
780200
780200
780200
F00200
F00600
F00400
F00400
F00400
F00800
701800
383000
1FC000
ENDCHAR
STARTCHAR uni1E79
ENCODING 7801
SWIDTH 655 0
DWIDTH 17 0
BBX 15 23 3 0
BITMAP
00F0
01C0
0380
0600
0000
0710
0FE0
11C0
0000
FC7E
3C1E
3C1C
383C
783C
783C
787C
7078
70F8
F1F8
F378
FE78
FC78
70FC
ENDCHAR
STARTCHAR uni1E7A
ENCODING 7802
SWIDTH 775 0
DWIDTH 20 0
BBX 19 25 4 0
BITMAP
073800
073800
073800
000000
0FF000
000000
FF07E0
3E0180
3C0180
3C0100
3C0100
780100
780300
780200
780200
780200
F00200
F00600
F00400
F00400
F00400
F00800
701800
383000
1FC000
ENDCHAR
STARTCHAR uni1E7B
ENCODING 7803
SWIDTH 655 0
DWIDTH 17 0
BBX 15 20 3 0
BITMAP
0E70
0E70
0E70
0000
0FF0
0000
FC7E
3C1E
3C1C
383C
783C
783C
787C
7078
70F8
F1F8
F378
FE78
FC78
70FC
ENDCHAR
STARTCHAR uni1E7C
ENCODING 7804
SWIDTH 741 0
DWIDTH 19 0
BBX 20 23 3 0
BITMAP
038800
07F000
08E000
000000
FF01F0
7C00C0
3C0080
3C0080
3C0100
1E0300
1E0200
1E0400
1E0C00
1E0800
0F1000
0F1000
0F2000
0F6000
0F4000
078000
078000
070000
060000
ENDCHAR
STARTCHAR uni1E7D
ENCODING 7805
SWIDTH 584 0
DWIDTH 15 0
BBX 15 18 2 0
BITMAP
0710
0FE0
11C0
0000
F83E
7C1E
3C0E
3C0C
3C1C
1E18
1E30
1E60
1EC0
0E80
0F80
0F00
0E00
0C00
ENDCHAR
STARTCHAR uni1E7E
ENCODING 7806
SWIDTH 741 0
DWIDTH 19 0
BBX 20 23 3 -4
BITMAP
FF01F0
7C00C0
3C0080
3C0080
3C0100
1E0300
1E0200
1E0400
1E0C00
1E0800
0F1000
0F1000
0F2000
0F6000
0F4000
078000
078000
070000
060000
000000
038000
078000
070000
ENDCHAR
STARTCHAR uni1E7F
ENCODING 7807
SWIDTH 584 0
DWIDTH 15 0
BBX 15 18 2 -4
BITMAP
F83E
7C1E
3C0E
3C0C
3C1C
1E18
1E30
1E60
1EC0
0E80
0F80
0F00
0E00
0C00
0000
0700
0F00
0E00
ENDCHAR
STARTCHAR Wgrave
ENCODING 7808
SWIDTH 922 0
DWIDTH 24 0
BBX 24 24 4 0
BITMAP
00E000
007000
003000
001800
000000
FE0C1F
781C06
781C0C
383C08
383C18
387C10
385C30
38DC20
389C60
399C40
3D1EC0
3D1E80
3E1F80
3E1F00
3C1F00
3C0E00
3C0E00
380C00
380C00
ENDCHAR
STARTCHAR wgrave
ENCODING 7809
SWIDTH 822 0
DWIDTH 21 0
BBX 21 19 2 0
BITMAP
01C000
00E000
006000
003000
000000
F81078
783078
383830
3C3830
3C7860
1C7840
1CFCC0
1C9C80
1F1D00
1F1F00
1E1E00
1C1C00
0C1800
081800
ENDCHAR
STARTCHAR Wacute
ENCODING 7810
SWIDTH 922 0
DWIDTH 24 0
BBX 24 24 4 0
BITMAP
000F00
001C00
003800
006000
000000
FE0C1F
781C06
781C0C
383C08
383C18
387C10
385C30
38DC20
389C60
399C40
3D1EC0
3D1E80
3E1F80
3E1F00
3C1F00
3C0E00
3C0E00
380C00
380C00
ENDCHAR
STARTCHAR wacute
ENCODING 7811
SWIDTH 822 0
DWIDTH 21 0
BBX 21 19 2 0
BITMAP
001E00
003800
007000
00C000
000000
F81078
783078
383830
3C3830
3C7860
1C7840
1CFCC0
1C9C80
1F1D00
1F1F00
1E1E00
1C1C00
0C1800
081800
ENDCHAR
STARTCHAR Wdieresis
ENCODING 7812
SWIDTH 922 0
DWIDTH 24 0
BBX 24 23 4 0
BITMAP
01CE00
01CE00
01CE00
000000
FE0C1F
781C06
781C0C
383C08
383C18
387C10
385C30
38DC20
389C60
399C40
3D1EC0
3D1E80
3E1F80
3E1F00
3C1F00
3C0E00
3C0E00
380C00
380C00
ENDCHAR
STARTCHAR wdieresis
ENCODING 7813
SWIDTH 822 0
DWIDTH 21 0
BBX 21 18 2 0
BITMAP
039C00
039C00
039C00
000000
F81078
783078
383830
3C3830
3C7860
1C7840
1CFCC0
1C9C80
1F1D00
1F1F00
1E1E00
1C1C00
0C1800
081800
ENDCHAR
STARTCHAR uni1E86
ENCODING 7814
SWIDTH 922 0
DWIDTH 24 0
BBX 24 23 4 0
BITMAP
003800
007800
007000
000000
FE0C1F
781C06
781C0C
383C08
383C18
387C10
385C30
38DC20
389C60
399C40
3D1EC0
3D1E80
3E1F80
3E1F00
3C1F00
3C0E00
3C0E00
380C00
380C00
ENDCHAR
STARTCHAR uni1E87
ENCODING 7815
SWIDTH 822 0
DWIDTH 21 0
BBX 21 18 2 0
BITMAP
003800
007800
007000
000000
F81078
783078
383830
3C3830
3C7860
1C7840
1CFCC0
1C9C80
1F1D00
1F1F00
1E1E00
1C1C00
0C1800
081800
ENDCHAR
STARTCHAR uni1E88
ENCODING 7816
SWIDTH 922 0
DWIDTH 24 0
BBX 24 23 4 -4
BITMAP
FE0C1F
781C06
781C0C
383C08
383C18
387C10
385C30
38DC20
389C60
399C40
3D1EC0
3D1E80
3E1F80
3E1F00
3C1F00
3C0E00
3C0E00
380C00
380C00
000000
00E000
01E000
01C000
ENDCHAR
STARTCHAR uni1E89
ENCODING 7817
SWIDTH 822 0
DWIDTH 21 0
BBX 21 18 2 -4
BITMAP
F81078
783078
383830
3C3830
3C7860
1C7840
1CFCC0
1C9C80
1F1D00
1F1F00
1E1E00
1C1C00
0C1800
081800
000000
00E000
01E000
01C000
ENDCHAR
STARTCHAR uni1E8A
ENCODING 7818
SWIDTH 672 0
DWIDTH 17 0
BBX 20 23 0 0
BITMAP
003800
007800
007000
000000
0FE1F0
07C0C0
03C180
03C100
01E300
01E600
01EC00
00F800
00F000
007800
00F800
01F800
033C00
063C00
0C1E00
081E00
101E00
300F00
F83F80
ENDCHAR
STARTCHAR uni1E8B
ENCODING 7819
SWIDTH 534 0
DWIDTH 14 0
BBX 14 18 1 0
BITMAP
01C0
03C0
0380
0000
3E3C
1E1C
0E1C
0F18
0730
07E0
0780
07C0
0FC0
19E0
71E0
60F0
E0F0
E078
ENDCHAR
STARTCHAR uni1E8C
ENCODING 7820
SWIDTH 672 0
DWIDTH 17 0
BBX 20 23 0 0
BITMAP
01CE00
01CE00
01CE00
000000
0FE1F0
07C0C0
03C180
03C100
01E300
01E600
01EC00
00F800
00F000
007800
00F800
01F800
033C00
063C00
0C1E00
081E00
101E00
300F00
F83F80
ENDCHAR
STARTCHAR uni1E8D
ENCODING 7821
SWIDTH 534 0
DWIDTH 14 0
BBX 14 18 1 0
BITMAP
0E70
0E70
0E70
0000
3E3C
1E1C
0E1C
0F18
0730
07E0
0780
07C0
0FC0
19E0
71E0
60F0
E0F0
E078
ENDCHAR
STARTCHAR uni1E8E
ENCODING 7822
SWIDTH 669 0
DWIDTH 17 0
BBX 18 23 3 0
BITMAP
01C000
03C000
038000
000000
FF07C0
7C0300
3C0200
3C0600
1E0C00
1E1800
1E3000
0F2000
0F6000
07C000
078000
078000
078000
0F0000
0F0000
0F0000
0F0000
1F0000
7FC000
ENDCHAR
STARTCHAR uni1E8F
ENCODING 7823
SWIDTH 586 0
DWIDTH 15 0
BBX 18 23 0 -5
BITMAP
007000
00F000
00E000
000000
1F07C0
0F03C0
0781C0
078180
078380
038300
03C600
03CC00
03D800
03F000
01E000
01E000
01C000
018000
030000
060000
0C0000
1C0000
F80000
ENDCHAR
STARTCHAR uni1E90
ENCODING 7824
SWIDTH 684 0
DWIDTH 18 0
BBX 18 24 2 0
BITMAP
007800
00FC00
01CC00
030600
000000
0FFFC0
0C0780
0C0F80
001F00
001E00
003C00
007C00
00F800
01F000
01E000
03C000
07C000
0F8000
0F0000
1E0000
3E0000
7C0600
F80E00
FFFE00
ENDCHAR
STARTCHAR uni1E91
ENCODING 7825
SWIDTH 567 0
DWIDTH 15 0
BBX 15 19 1 0
BITMAP
01E0
03F0
0730
0C18
0000
1FFE
183C
1878
3078
00F0
01E0
03C0
0780
0F00
1E00
3E00
7C08
7818
FFF8
ENDCHAR
STARTCHAR uni1E92
ENCODING 7826
SWIDTH 684 0
DWIDTH 18 0
BBX 18 23 2 -4
BITMAP
0FFFC0
0C0780
0C0F80
001F00
001E00
003C00
007C00
00F800
01F000
01E000
03C000
07C000
0F8000
0F0000
1E0000
3E0000
7C0600
F80E00
FFFE00
000000
038000
078000
070000
ENDCHAR
STARTCHAR uni1E93
ENCODING 7827
SWIDTH 567 0
DWIDTH 15 0
BBX 15 18 1 -4
BITMAP
1FFE
183C
1878
3078
00F0
01E0
03C0
0780
0F00
1E00
3E00
7C08
7818
FFF8
0000
0700
0F00
0E00
ENDCHAR
STARTCHAR uni1E94
ENCODING 7828
SWIDTH 684 0
DWIDTH 18 0
BBX 18 21 2 -2
BITMAP
0FFFC0
0C0780
0C0F80
001F00
001E00
003C00
007C00
00F800
01F000
01E000
03C000
07C000
0F8000
0F0000
1E0000
3E0000
7C0600
F80E00
FFFE00
000000
1FE000
ENDCHAR
STARTCHAR uni1E95
ENCODING 7829
SWIDTH 567 0
DWIDTH 15 0
BBX 15 16 1 -2
BITMAP
1FFE
183C
1878
3078
00F0
01E0
03C0
0780
0F00
1E00
3E00
7C08
7818
FFF8
0000
3FC0
ENDCHAR
STARTCHAR uni1E96
ENCODING 7830
SWIDTH 656 0
DWIDTH 17 0
BBX 15 22 2 -2
BITMAP
3F00
1F00
0E00
1E00
1E00
1E00
1E1C
1C7E
3CFE
3D9E
3F1E
3E1C
3C1C
7C3C
783C
783C
7838
7078
F078
F07E
0000
1FE0
ENDCHAR
STARTCHAR uni1E97
ENCODING 7831
SWIDTH 375 0
DWIDTH 10 0
BBX 9 22 3 0
BITMAP
E700
E700
E700
0000
0C00
1C00
3C00
3C00
FF80
3C00
3800
7800
7800
7800
7800
7000
F000
F000
F000
F000
7200
3C00
ENDCHAR
STARTCHAR uni1E98
ENCODING 7832
SWIDTH 822 0
DWIDTH 21 0
BBX 21 19 2 0
BITMAP
006000
009000
009000
006000
000000
F81078
783078
383830
3C3830
3C7860
1C7840
1CFCC0
1C9C80
1F1D00
1F1F00
1E1E00
1C1C00
0C1800
081800
ENDCHAR
STARTCHAR uni1E99
ENCODING 7833
SWIDTH 586 0
DWIDTH 15 0
BBX 18 24 0 -5
BITMAP
006000
009000
009000
006000
000000
1F07C0
0F03C0
0781C0
078180
078380
038300
03C600
03CC00
03D800
03F000
01E000
01E000
01C000
018000
030000
060000
0C0000
1C0000
F80000
ENDCHAR
STARTCHAR uni1EA0
ENCODING 7840
SWIDTH 765 0
DWIDTH 20 0
BBX 20 23 0 -4
BITMAP
000E00
000E00
001E00
003E00
002F00
006F00
004F00
00CF00
018700
010780
030780
020780
07FF80
0C03C0
0803C0
1803C0
1003C0
3003E0
F80FF0
000000
003800
007800
007000
ENDCHAR
STARTCHAR uni1EA1
ENCODING 7841
SWIDTH 634 0
DWIDTH 16 0
BBX 15 18 2 -4
BITMAP
01FE
063E
0C1E
181C
383C
783C
707C
707C
F0B8
F1F8
F378
FE78
FC78
787C
0000
0380
0780
0700
ENDCHAR
STARTCHAR uni1EA4
ENCODING 7844
SWIDTH 765 0
DWIDTH 20 0
BBX 20 29 0 0
BITMAP
000780
000E00
001C00
003000
000000
000F00
001F80
003980
0060C0
000000
000E00
000E00
001E00
003E00
002F00
006F00
004F00
00CF00
018700
010780
030780
020780
07FF80
0C03C0
0803C0
1803C0
1003C0
3003E0
F80FF0
ENDCHAR
STARTCHAR uni1EA5
ENCODING 7845
SWIDTH 634 0
DWIDTH 16 0
BBX 15 24 2 0
BITMAP
003C
0070
00E0
0180
0000
0078
00FC
01CC
0306
0000
01FE
063E
0C1E
181C
383C
783C
707C
707C
F0B8
F1F8
F378
FE78
FC78
787C
ENDCHAR
STARTCHAR uni1EA6
ENCODING 7846
SWIDTH 765 0
DWIDTH 20 0
BBX 20 29 0 0
BITMAP
007000
003800
001800
000C00
000000
000F00
001F80
003980
0060C0
000000
000E00
000E00
001E00
003E00
002F00
006F00
004F00
00CF00
018700
010780
030780
020780
07FF80
0C03C0
0803C0
1803C0
1003C0
3003E0
F80FF0
ENDCHAR
STARTCHAR uni1EA7
ENCODING 7847
SWIDTH 634 0
DWIDTH 16 0
BBX 15 24 2 0
BITMAP
0380
01C0
00C0
0060
0000
0078
00FC
01CC
0306
0000
01FE
063E
0C1E
181C
383C
783C
707C
707C
F0B8
F1F8
F378
FE78
FC78
787C
ENDCHAR
STARTCHAR uni1EAA
ENCODING 7850
SWIDTH 765 0
DWIDTH 20 0
BBX 20 28 0 0
BITMAP
003880
007F00
008E00
000000
000F00
001F80
003980
0060C0
000000
000E00
000E00
001E00
003E00
002F00
006F00
004F00
00CF00
018700
010780
030780
020780
07FF80
0C03C0
0803C0
1803C0
1003C0
3003E0
F80FF0
ENDCHAR
STARTCHAR uni1EAB
ENCODING 7851
SWIDTH 634 0
DWIDTH 16 0
BBX 15 23 2 0
BITMAP
01C4
03F8
0470
0000
0078
00FC
01CC
0306
0000
01FE
063E
0C1E
181C
383C
783C
707C
707C
F0B8
F1F8
F378
FE78
FC78
787C
ENDCHAR
STARTCHAR uni1EAC
ENCODING 7852
SWIDTH 765 0
DWIDTH 20 0
BBX 20 28 0 -4
BITMAP
001E00
003F00
007300
00C180
000000
000E00
000E00
001E00
003E00
002F00
006F00
004F00
00CF00
018700
010780
030780
020780
07FF80
0C03C0
0803C0
1803C0
1003C0
3003E0
F80FF0
000000
003800
007800
007000
ENDCHAR
STARTCHAR uni1EAD
ENCODING 7853
SWIDTH 634 0
DWIDTH 16 0
BBX 15 23 2 -4
BITMAP
00F0
01F8
0398
060C
0000
01FE
063E
0C1E
181C
383C
783C
707C
707C
F0B8
F1F8
F378
FE78
FC78
787C
0000
0380
0780
0700
ENDCHAR
STARTCHAR uni1EAE
ENCODING 7854
SWIDTH 765 0
DWIDTH 20 0
BBX 20 29 0 0
BITMAP
000F00
001C00
003800
006000
000000
008180
00E300
007E00
003C00
000000
000E00
000E00
001E00
003E00
002F00
006F00
004F00
00CF00
018700
010780
030780
020780
07FF80
0C03C0
0803C0
1803C0
1003C0
3003E0
F80FF0
ENDCHAR
STARTCHAR uni1EAF
ENCODING 7855
SWIDTH 634 0
DWIDTH 16 0
BBX 15 24 2 0
BITMAP
0078
00E0
01C0
0300
0000
040C
0718
03F0
01E0
0000
01FE
063E
0C1E
181C
383C
783C
707C
707C
F0B8
F1F8
F378
FE78
FC78
787C
ENDCHAR
STARTCHAR uni1EB0
ENCODING 7856
SWIDTH 765 0
DWIDTH 20 0
BBX 20 29 0 0
BITMAP
007000
003800
001800
000C00
000000
008180
00E300
007E00
003C00
000000
000E00
000E00
001E00
003E00
002F00
006F00
004F00
00CF00
018700
010780
030780
020780
07FF80
0C03C0
0803C0
1803C0
1003C0
3003E0
F80FF0
ENDCHAR
STARTCHAR uni1EB1
ENCODING 7857
SWIDTH 634 0
DWIDTH 16 0
BBX 15 24 2 0
BITMAP
0700
0380
0180
00C0
0000
040C
0718
03F0
01E0
0000
01FE
063E
0C1E
181C
383C
783C
707C
707C
F0B8
F1F8
F378
FE78
FC78
787C
ENDCHAR
STARTCHAR uni1EB4
ENCODING 7860
SWIDTH 765 0
DWIDTH 20 0
BBX 20 28 0 0
BITMAP
007100
00FE00
011C00
000000
008180
00E300
007E00
003C00
000000
000E00
000E00
001E00
003E00
002F00
006F00
004F00
00CF00
018700
010780
030780
020780
07FF80
0C03C0
0803C0
1803C0
1003C0
3003E0
F80FF0
ENDCHAR
STARTCHAR uni1EB5
ENCODING 7861
SWIDTH 634 0
DWIDTH 16 0
BBX 15 23 2 0
BITMAP
0388
07F0
08E0
0000
040C
0718
03F0
01E0
0000
01FE
063E
0C1E
181C
383C
783C
707C
707C
F0B8
F1F8
F378
FE78
FC78
787C
ENDCHAR
STARTCHAR uni1EB6
ENCODING 7862
SWIDTH 765 0
DWIDTH 20 0
BBX 20 28 0 -4
BITMAP
008180
00E300
007E00
003C00
000000
000E00
000E00
001E00
003E00
002F00
006F00
004F00
00CF00
018700
010780
030780
020780
07FF80
0C03C0
0803C0
1803C0
1003C0
3003E0
F80FF0
000000
003800
007800
007000
ENDCHAR
STARTCHAR uni1EB7
ENCODING 7863
SWIDTH 634 0
DWIDTH 16 0
BBX 15 23 2 -4
BITMAP
040C
0718
03F0
01E0
0000
01FE
063E
0C1E
181C
383C
783C
707C
707C
F0B8
F1F8
F378
FE78
FC78
787C
0000
0380
0780
0700
ENDCHAR
STARTCHAR uni1EB8
ENCODING 7864
SWIDTH 630 0
DWIDTH 16 0
BBX 18 23 1 -4
BITMAP
0FFFC0
07C0C0
078180
078000
078000
078000
078000
0F8000
0F0600
0FFC00
0F0400
0F0C00
1E0000
1E0000
1E0000
1E0000
1E0600
3E0600
FFFE00
000000
038000
078000
070000
ENDCHAR
STARTCHAR uni1EB9
ENCODING 7865
SWIDTH 548 0
DWIDTH 14 0
BBX 13 18 2 -4
BITMAP
03E0
0470
1C78
3878
3870
7070
70E0
F3C0
FF00
F000
F000
F010
7870
1F80
0000
0E00
1E00
1C00
ENDCHAR
STARTCHAR uni1EBC
ENCODING 7868
SWIDTH 630 0
DWIDTH 16 0
BBX 18 23 1 0
BITMAP
01C400
03F800
047000
000000
0FFFC0
07C0C0
078180
078000
078000
078000
078000
0F8000
0F0600
0FFC00
0F0400
0F0C00
1E0000
1E0000
1E0000
1E0000
1E0600
3E0600
FFFE00
ENDCHAR
STARTCHAR uni1EBD
ENCODING 7869
SWIDTH 548 0
DWIDTH 14 0
BBX 13 18 2 0
BITMAP
0710
0FE0
11C0
0000
03E0
0470
1C78
3878
3870
7070
70E0
F3C0
FF00
F000
F000
F010
7870
1F80
ENDCHAR
STARTCHAR uni1EBE
ENCODING 7870
SWIDTH 630 0
DWIDTH 16 0
BBX 18 29 1 0
BITMAP
001E00
003800
007000
00C000
000000
003C00
007E00
00E600
018300
000000
0FFFC0
07C0C0
078180
078000
078000
078000
078000
0F8000
0F0600
0FFC00
0F0400
0F0C00
1E0000
1E0000
1E0000
1E0000
1E0600
3E0600
FFFE00
ENDCHAR
STARTCHAR uni1EBF
ENCODING 7871
SWIDTH 548 0
DWIDTH 14 0
BBX 13 24 2 0
BITMAP
0078
00E0
01C0
0300
0000
01E0
03F0
0730
0C18
0000
03E0
0470
1C78
3878
3870
7070
70E0
F3C0
FF00
F000
F000
F010
7870
1F80
ENDCHAR
STARTCHAR uni1EC0
ENCODING 7872
SWIDTH 630 0
DWIDTH 16 0
BBX 18 29 1 0
BITMAP
01C000
00E000
006000
003000
000000
003C00
007E00
00E600
018300
000000
0FFFC0
07C0C0
078180
078000
078000
078000
078000
0F8000
0F0600
0FFC00
0F0400
0F0C00
1E0000
1E0000
1E0000
1E0000
1E0600
3E0600
FFFE00
ENDCHAR
STARTCHAR uni1EC1
ENCODING 7873
SWIDTH 548 0
DWIDTH 14 0
BBX 13 24 2 0
BITMAP
0700
0380
0180
00C0
0000
01E0
03F0
0730
0C18
0000
03E0
0470
1C78
3878
3870
7070
70E0
F3C0
FF00
F000
F000
F010
7870
1F80
ENDCHAR
STARTCHAR uni1EC4
ENCODING 7876
SWIDTH 630 0
DWIDTH 16 0
BBX 18 28 1 0
BITMAP
00E200
01FC00
023800
000000
003C00
007E00
00E600
018300
000000
0FFFC0
07C0C0
078180
078000
078000
078000
078000
0F8000
0F0600
0FFC00
0F0400
0F0C00
1E0000
1E0000
1E0000
1E0000
1E0600
3E0600
FFFE00
ENDCHAR
STARTCHAR uni1EC5
ENCODING 7877
SWIDTH 548 0
DWIDTH 14 0
BBX 13 23 2 0
BITMAP
0388
07F0
08E0
0000
01E0
03F0
0730
0C18
0000
03E0
0470
1C78
3878
3870
7070
70E0
F3C0
FF00
F000
F000
F010
7870
1F80
ENDCHAR
STARTCHAR uni1EC6
ENCODING 7878
SWIDTH 630 0
DWIDTH 16 0
BBX 18 28 1 -4
BITMAP
00F000
01F800
039800
060C00
000000
0FFFC0
07C0C0
078180
078000
078000
078000
078000
0F8000
0F0600
0FFC00
0F0400
0F0C00
1E0000
1E0000
1E0000
1E0000
1E0600
3E0600
FFFE00
000000
038000
078000
070000
ENDCHAR
STARTCHAR uni1EC7
ENCODING 7879
SWIDTH 548 0
DWIDTH 14 0
BBX 13 23 2 -4
BITMAP
03C0
07E0
0E60
1830
0000
03E0
0470
1C78
3878
3870
7070
70E0
F3C0
FF00
F000
F000
F010
7870
1F80
0000
0E00
1E00
1C00
ENDCHAR
STARTCHAR uni1ECA
ENCODING 7882
SWIDTH 372 0
DWIDTH 10 0
BBX 12 23 1 -4
BITMAP
0FF0
07C0
0780
0780
0780
0780
0780
0F00
0F00
0F00
0F00
0F00
1E00
1E00
1E00
1E00
1E00
3E00
FF00
0000
0E00
1E00
1C00
ENDCHAR
STARTCHAR uni1ECB
ENCODING 7883
SWIDTH 319 0
DWIDTH 8 0
BBX 8 23 2 -4
BITMAP
0F
0F
1E
00
00
7E
3C
3C
3C
3C
3C
38
78
78
78
78
70
F8
FC
00
38
78
70
ENDCHAR
STARTCHAR uni1ECC
ENCODING 7884
SWIDTH 831 0
DWIDTH 22 0
BBX 20 23 3 -4
BITMAP
007E00
01C380
0701C0
0E01E0
1C01E0
3C00F0
7800F0
7800F0
7800F0
F801E0
F001E0
F001E0
F001C0
F003C0
F00780
780700
780E00
3C3800
0FE000
000000
01C000
03C000
038000
ENDCHAR
STARTCHAR uni1ECD
ENCODING 7885
SWIDTH 599 0
DWIDTH 16 0
BBX 14 18 2 -4
BITMAP
01F0
0638
1C3C
3C3C
383C
783C
703C
F03C
F038
F038
F070
F060
78C0
3F00
0000
0E00
1E00
1C00
ENDCHAR
STARTCHAR uni1ED0
ENCODING 7888
SWIDTH 831 0
DWIDTH 22 0
BBX 20 29 3 0
BITMAP
000F00
001C00
003800
006000
000000
003C00
007E00
00E600
018300
000000
007E00
01C380
0701C0
0E01E0
1C01E0
3C00F0
7800F0
7800F0
7800F0
F801E0
F001E0
F001E0
F001C0
F003C0
F00780
780700
780E00
3C3800
0FE000
ENDCHAR
STARTCHAR uni1ED1
ENCODING 7889
SWIDTH 599 0
DWIDTH 16 0
BBX 14 24 2 0
BITMAP
0078
00E0
01C0
0300
0000
00F0
01F8
0398
060C
0000
01F0
0638
1C3C
3C3C
383C
783C
703C
F03C
F038
F038
F070
F060
78C0
3F00
ENDCHAR
STARTCHAR uni1ED2
ENCODING 7890
SWIDTH 831 0
DWIDTH 22 0
BBX 20 29 3 0
BITMAP
00E000
007000
003000
001800
000000
003C00
007E00
00E600
018300
000000
007E00
01C380
0701C0
0E01E0
1C01E0
3C00F0
7800F0
7800F0
7800F0
F801E0
F001E0
F001E0
F001C0
F003C0
F00780
780700
780E00
3C3800
0FE000
ENDCHAR
STARTCHAR uni1ED3
ENCODING 7891
SWIDTH 599 0
DWIDTH 16 0
BBX 14 24 2 0
BITMAP
0380
01C0
00C0
0060
0000
00F0
01F8
0398
060C
0000
01F0
0638
1C3C
3C3C
383C
783C
703C
F03C
F038
F038
F070
F060
78C0
3F00
ENDCHAR
STARTCHAR uni1ED6
ENCODING 7894
SWIDTH 831 0
DWIDTH 22 0
BBX 20 28 3 0
BITMAP
007100
00FE00
011C00
000000
003C00
007E00
00E600
018300
000000
007E00
01C380
0701C0
0E01E0
1C01E0
3C00F0
7800F0
7800F0
7800F0
F801E0
F001E0
F001E0
F001C0
F003C0
F00780
780700
780E00
3C3800
0FE000
ENDCHAR
STARTCHAR uni1ED7
ENCODING 7895
SWIDTH 599 0
DWIDTH 16 0
BBX 14 23 2 0
BITMAP
0388
07F0
08E0
0000
00F0
01F8
0398
060C
0000
01F0
0638
1C3C
3C3C
383C
783C
703C
F03C
F038
F038
F070
F060
78C0
3F00
ENDCHAR
STARTCHAR uni1ED8
ENCODING 7896
SWIDTH 831 0
DWIDTH 22 0
BBX 20 28 3 -4
BITMAP
003C00
007E00
00E600
018300
000000
007E00
01C380
0701C0
0E01E0
1C01E0
3C00F0
7800F0
7800F0
7800F0
F801E0
F001E0
F001E0
F001C0
F003C0
F00780
780700
780E00
3C3800
0FE000
000000
01C000
03C000
038000
ENDCHAR
STARTCHAR uni1ED9
ENCODING 7897
SWIDTH 599 0
DWIDTH 16 0
BBX 14 23 2 -4
BITMAP
01E0
03F0
0730
0C18
0000
01F0
0638
1C3C
3C3C
383C
783C
703C
F03C
F038
F038
F070
F060
78C0
3F00
0000
0E00
1E00
1C00
ENDCHAR
STARTCHAR uni1EDA
ENCODING 7898
SWIDTH 831 0
DWIDTH 22 0
BBX 24 24 3 0
BITMAP
0001E0
000380
000700
000C00
000000
007E0F
01C39F
0701DE
0E01FE
1C01EE
3C00FE
7800FC
7800FC
7800F0
F801E0
F001E0
F001E0
F001C0
F003C0
F00780
780700
780E00
3C3800
0FE000
ENDCHAR
STARTCHAR uni1EDB
ENCODING 7899
SWIDTH 599 0
DWIDTH 16 0
BBX 19 19 2 0
BITMAP
000F00
001C00
003800
006000
000000
01F1E0
063BE0
1C3FC0
3C3FC0
383DC0
783DC0
703F80
F03F80
F03E00
F03800
F07000
F06000
78C000
3F0000
ENDCHAR
STARTCHAR uni1EDC
ENCODING 7900
SWIDTH 831 0
DWIDTH 22 0
BBX 24 24 3 0
BITMAP
001C00
000E00
000600
000300
000000
007E0F
01C39F
0701DE
0E01FE
1C01EE
3C00FE
7800FC
7800FC
7800F0
F801E0
F001E0
F001E0
F001C0
F003C0
F00780
780700
780E00
3C3800
0FE000
ENDCHAR
STARTCHAR uni1EDD
ENCODING 7901
SWIDTH 599 0
DWIDTH 16 0
BBX 19 19 2 0
BITMAP
00E000
007000
003000
001800
000000
01F1E0
063BE0
1C3FC0
3C3FC0
383DC0
783DC0
703F80
F03F80
F03E00
F03800
F07000
F06000
78C000
3F0000
ENDCHAR
STARTCHAR uni1EE0
ENCODING 7904
SWIDTH 831 0
DWIDTH 22 0
BBX 24 23 3 0
BITMAP
000E20
001FC0
002380
000000
007E0F
01C39F
0701DE
0E01FE
1C01EE
3C00FE
7800FC
7800FC
7800F0
F801E0
F001E0
F001E0
F001C0
F003C0
F00780
780700
780E00
3C3800
0FE000
ENDCHAR
STARTCHAR uni1EE1
ENCODING 7905
SWIDTH 599 0
DWIDTH 16 0
BBX 19 18 2 0
BITMAP
007100
00FE00
011C00
000000
01F1E0
063BE0
1C3FC0
3C3FC0
383DC0
783DC0
703F80
F03F80
F03E00
F03800
F07000
F06000
78C000
3F0000
ENDCHAR
STARTCHAR uni1EE2
ENCODING 7906
SWIDTH 831 0
DWIDTH 22 0
BBX 24 23 3 -4
BITMAP
007E0F
01C39F
0701DE
0E01FE
1C01EE
3C00FE
7800FC
7800FC
7800F0
F801E0
F001E0
F001E0
F001C0
F003C0
F00780
780700
780E00
3C3800
0FE000
000000
00E000
01E000
01C000
ENDCHAR
STARTCHAR uni1EE3
ENCODING 7907
SWIDTH 599 0
DWIDTH 16 0
BBX 19 18 2 -4
BITMAP
01F1E0
063BE0
1C3FC0
3C3FC0
383DC0
783DC0
703F80
F03F80
F03E00
F03800
F07000
F06000
78C000
3F0000
000000
070000
0F0000
0E0000
ENDCHAR
STARTCHAR uni1EE4
ENCODING 7908
SWIDTH 775 0
DWIDTH 20 0
BBX 19 23 4 -4
BITMAP
FF07E0
3E0180
3C0180
3C0100
3C0100
780100
780300
780200
780200
780200
F00200
F00600
F00400
F00400
F00400
F00800
701800
383000
1FC000
000000
038000
078000
070000
ENDCHAR
STARTCHAR uni1EE5
ENCODING 7909
SWIDTH 655 0
DWIDTH 17 0
BBX 15 18 3 -4
BITMAP
FC7E
3C1E
3C1C
383C
783C
783C
787C
7078
70F8
F1F8
F378
FE78
FC78
70FC
0000
0380
0780
0700
ENDCHAR
STARTCHAR uni1EE8
ENCODING 7912
SWIDTH 775 0
DWIDTH 20 0
BBX 23 24 4 0
BITMAP
000780
000E00
001C00
003000
000000
FF07FE
3E01BE
3C01BC
3C013C
3C011C
78011C
780338
780278
780260
780200
F00200
F00600
F00400
F00400
F00400
F00800
701800
383000
1FC000
ENDCHAR
STARTCHAR uni1EE9
ENCODING 7913
SWIDTH 655 0
DWIDTH 17 0
BBX 20 19 3 0
BITMAP
001E00
003800
007000
00C000
000000
FC7EF0
3C1FF0
3C1DE0
383DE0
783CE0
783CE0
787DC0
707BC0
70FB00
F1F800
F37800
FE7800
FC7800
70FC00
ENDCHAR
STARTCHAR uni1EEA
ENCODING 7914
SWIDTH 775 0
DWIDTH 20 0
BBX 23 24 4 0
BITMAP
007000
003800
001800
000C00
000000
FF07FE
3E01BE
3C01BC
3C013C
3C011C
78011C
780338
780278
780260
780200
F00200
F00600
F00400
F00400
F00400
F00800
701800
383000
1FC000
ENDCHAR
STARTCHAR uni1EEB
ENCODING 7915
SWIDTH 655 0
DWIDTH 17 0
BBX 20 19 3 0
BITMAP
00E000
007000
003000
001800
000000
FC7EF0
3C1FF0
3C1DE0
383DE0
783CE0
783CE0
787DC0
707BC0
70FB00
F1F800
F37800
FE7800
FC7800
70FC00
ENDCHAR
STARTCHAR uni1EEE
ENCODING 7918
SWIDTH 775 0
DWIDTH 20 0
BBX 23 23 4 0
BITMAP
003880
007F00
008E00
000000
FF07FE
3E01BE
3C01BC
3C013C
3C011C
78011C
780338
780278
780260
780200
F00200
F00600
F00400
F00400
F00400
F00800
701800
383000
1FC000
ENDCHAR
STARTCHAR uni1EEF
ENCODING 7919
SWIDTH 655 0
DWIDTH 17 0
BBX 20 18 3 0
BITMAP
00E200
01FC00
023800
000000
FC7EF0
3C1FF0
3C1DE0
383DE0
783CE0
783CE0
787DC0
707BC0
70FB00
F1F800
F37800
FE7800
FC7800
70FC00
ENDCHAR
STARTCHAR uni1EF0
ENCODING 7920
SWIDTH 775 0
DWIDTH 20 0
BBX 23 23 4 -4
BITMAP
FF07FE
3E01BE
3C01BC
3C013C
3C011C
78011C
780338
780278
780260
780200
F00200
F00600
F00400
F00400
F00400
F00800
701800
383000
1FC000
000000
038000
078000
070000
ENDCHAR
STARTCHAR uni1EF1
ENCODING 7921
SWIDTH 655 0
DWIDTH 17 0
BBX 20 18 3 -4
BITMAP
FC7EF0
3C1FF0
3C1DE0
383DE0
783CE0
783CE0
787DC0
707BC0
70FB00
F1F800
F37800
FE7800
FC7800
70FC00
000000
01C000
03C000
038000
ENDCHAR
STARTCHAR Ygrave
ENCODING 7922
SWIDTH 669 0
DWIDTH 17 0
BBX 18 24 3 0
BITMAP
070000
038000
018000
00C000
000000
FF07C0
7C0300
3C0200
3C0600
1E0C00
1E1800
1E3000
0F2000
0F6000
07C000
078000
078000
078000
0F0000
0F0000
0F0000
0F0000
1F0000
7FC000
ENDCHAR
STARTCHAR ygrave
ENCODING 7923
SWIDTH 586 0
DWIDTH 15 0
BBX 18 24 0 -5
BITMAP
01C000
00E000
006000
003000
000000
1F07C0
0F03C0
0781C0
078180
078380
038300
03C600
03CC00
03D800
03F000
01E000
01E000
01C000
018000
030000
060000
0C0000
1C0000
F80000
ENDCHAR
STARTCHAR uni1EF4
ENCODING 7924
SWIDTH 669 0
DWIDTH 17 0
BBX 18 23 3 -4
BITMAP
FF07C0
7C0300
3C0200
3C0600
1E0C00
1E1800
1E3000
0F2000
0F6000
07C000
078000
078000
078000
0F0000
0F0000
0F0000
0F0000
1F0000
7FC000
000000
070000
0F0000
0E0000
ENDCHAR
STARTCHAR uni1EF5
ENCODING 7925
SWIDTH 586 0
DWIDTH 15 0
BBX 18 23 0 -9
BITMAP
1F07C0
0F03C0
0781C0
078180
078380
038300
03C600
03CC00
03D800
03F000
01E000
01E000
01C000
018000
030000
060000
0C0000
1C0000
F80000
000000
070000
0F0000
0E0000
ENDCHAR
STARTCHAR uni1EF8
ENCODING 7928
SWIDTH 669 0
DWIDTH 17 0
BBX 18 23 3 0
BITMAP
038800
07F000
08E000
000000
FF07C0
7C0300
3C0200
3C0600
1E0C00
1E1800
1E3000
0F2000
0F6000
07C000
078000
078000
078000
0F0000
0F0000
0F0000
0F0000
1F0000
7FC000
ENDCHAR
STARTCHAR uni1EF9
ENCODING 7929
SWIDTH 586 0
DWIDTH 15 0
BBX 18 23 0 -5
BITMAP
00E200
01FC00
023800
000000
1F07C0
0F03C0
0781C0
078180
078380
038300
03C600
03CC00
03D800
03F000
01E000
01E000
01C000
018000
030000
060000
0C0000
1C0000
F80000
ENDCHAR
STARTCHAR uni2000
ENCODING 8192
SWIDTH 500 0
DWIDTH 13 0
BBX 1 1 0 0
BITMAP
00
ENDCHAR
STARTCHAR uni2001
ENCODING 8193
SWIDTH 1000 0
DWIDTH 26 0
BBX 1 1 0 0
BITMAP
00
ENDCHAR
STARTCHAR uni2002
ENCODING 8194
SWIDTH 500 0
DWIDTH 13 0
BBX 1 1 0 0
BITMAP
00
ENDCHAR
STARTCHAR uni2003
ENCODING 8195
SWIDTH 1000 0
DWIDTH 26 0
BBX 1 1 0 0
BITMAP
00
ENDCHAR
STARTCHAR uni2004
ENCODING 8196
SWIDTH 333 0
DWIDTH 9 0
BBX 1 1 0 0
BITMAP
00
ENDCHAR
STARTCHAR uni2005
ENCODING 8197
SWIDTH 250 0
DWIDTH 7 0
BBX 1 1 0 0
BITMAP
00
ENDCHAR
STARTCHAR uni2006
ENCODING 8198
SWIDTH 167 0
DWIDTH 4 0
BBX 1 1 0 0
BITMAP
00
ENDCHAR
STARTCHAR uni2007
ENCODING 8199
SWIDTH 623 0
DWIDTH 17 0
BBX 1 1 0 0
BITMAP
00
ENDCHAR
STARTCHAR uni2008
ENCODING 8200
SWIDTH 265 0
DWIDTH 7 0
BBX 1 1 0 0
BITMAP
00
ENDCHAR
STARTCHAR uni2009
ENCODING 8201
SWIDTH 200 0
DWIDTH 5 0
BBX 1 1 0 0
BITMAP
00
ENDCHAR
STARTCHAR uni200A
ENCODING 8202
SWIDTH 100 0
DWIDTH 3 0
BBX 1 1 0 0
BITMAP
00
ENDCHAR
STARTCHAR uni200B
ENCODING 8203
SWIDTH 0 0
DWIDTH 0 0
BBX 1 1 0 0
BITMAP
00
ENDCHAR
STARTCHAR uni2010
ENCODING 8208
SWIDTH 289 0
DWIDTH 8 0
BBX 6 1 2 9
BITMAP
FC
ENDCHAR
STARTCHAR uni2011
ENCODING 8209
SWIDTH 289 0
DWIDTH 8 0
BBX 6 1 2 9
BITMAP
FC
ENDCHAR
STARTCHAR figuredash
ENCODING 8210
SWIDTH 500 0
DWIDTH 13 0
BBX 11 1 3 9
BITMAP
FFE0
ENDCHAR
STARTCHAR endash
ENCODING 8211
SWIDTH 500 0
DWIDTH 13 0
BBX 11 1 3 9
BITMAP
FFE0
ENDCHAR
STARTCHAR emdash
ENCODING 8212
SWIDTH 1000 0
DWIDTH 26 0
BBX 24 1 3 8
BITMAP
FFFFFF
ENDCHAR
STARTCHAR afii00208
ENCODING 8213
SWIDTH 1000 0
DWIDTH 26 0
BBX 24 1 3 8
BITMAP
FFFFFF
ENDCHAR
STARTCHAR quoteleft
ENCODING 8216
SWIDTH 265 0
DWIDTH 7 0
BBX 6 9 4 11
BITMAP
0C
3C
30
70
70
78
78
F8
F0
ENDCHAR
STARTCHAR quoteright
ENCODING 8217
SWIDTH 265 0
DWIDTH 7 0
BBX 6 9 4 11
BITMAP
3C
7C
78
78
38
38
70
F0
C0
ENDCHAR
STARTCHAR quotesinglbase
ENCODING 8218
SWIDTH 265 0
DWIDTH 7 0
BBX 6 10 0 -5
BITMAP
3C
7C
7C
78
78
38
38
30
E0
C0
ENDCHAR
STARTCHAR quotereversed
ENCODING 8219
SWIDTH 265 0
DWIDTH 7 0
BBX 6 9 4 11
BITMAP
F0
F8
78
78
70
70
38
3C
0C
ENDCHAR
STARTCHAR quotedblleft
ENCODING 8220
SWIDTH 464 0
DWIDTH 12 0
BBX 11 8 4 12
BITMAP
0820
38E0
31C0
6180
6380
7BC0
F3C0
F3C0
ENDCHAR
STARTCHAR quotedblright
ENCODING 8221
SWIDTH 464 0
DWIDTH 12 0
BBX 11 8 4 12
BITMAP
39E0
79E0
79E0
7BC0
38C0
30C0
7180
C300
ENDCHAR
STARTCHAR quotedblbase
ENCODING 8222
SWIDTH 464 0
DWIDTH 12 0
BBX 11 9 0 -5
BITMAP
39E0
79E0
79E0
7BC0
38C0
30C0
7180
E380
8200
ENDCHAR
STARTCHAR uni201F
ENCODING 8223
SWIDTH 464 0
DWIDTH 12 0
BBX 11 8 4 12
BITMAP
F380
F3C0
F3C0
7BC0
6380
6180
31C0
1860
ENDCHAR
STARTCHAR dagger
ENCODING 8224
SWIDTH 636 0
DWIDTH 17 0
BBX 13 23 4 -4
BITMAP
03C0
03C0
0380
0380
0380
0780
E718
FFF8
C738
0700
0F00
0E00
0E00
0E00
1E00
1E00
1E00
1C00
1C00
3C00
3C00
3C00
3C00
ENDCHAR
STARTCHAR daggerdbl
ENCODING 8225
SWIDTH 636 0
DWIDTH 17 0
BBX 14 23 3 -4
BITMAP
01E0
01E0
01E0
01C0
01C0
01C0
33CC
3FFC
739C
0380
0380
0780
0700
0700
E738
FFF0
C730
0F00
0E00
0E00
0E00
1E00
1E00
ENDCHAR
STARTCHAR bullet
ENCODING 8226
SWIDTH 636 0
DWIDTH 17 0
BBX 9 9 5 4
BITMAP
3E00
7F00
FF80
FF80
FF80
FF80
FF80
7F00
3E00
ENDCHAR
STARTCHAR ellipsis
ENCODING 8230
SWIDTH 1000 0
DWIDTH 26 0
BBX 21 3 3 0
BITMAP
E07038
E07038
E07038
ENDCHAR
STARTCHAR perthousand
ENCODING 8240
SWIDTH 1156 0
DWIDTH 30 0
BBX 31 19 1 0
BITMAP
0F003800
39806000
31C0C000
71C18000
61C30000
E1C70000
618E0000
639C0000
73380000
3E700000
00E3E078
01C671CC
038E338E
071C338E
0E1C330E
1C1C770E
381C731C
700CE398
E00781F0
ENDCHAR
STARTCHAR guilsinglleft
ENCODING 8249
SWIDTH 310 0
DWIDTH 8 0
BBX 8 12 2 1
BITMAP
02
07
0E
1C
38
70
F0
70
38
38
1C
08
ENDCHAR
STARTCHAR guilsinglright
ENCODING 8250
SWIDTH 310 0
DWIDTH 8 0
BBX 8 12 1 1
BITMAP
10
38
1C
1C
0E
0F
0E
1C
38
70
E0
40
ENDCHAR
STARTCHAR fraction
ENCODING 8260
SWIDTH 55 0
DWIDTH 1 0
BBX 21 19 -7 0
BITMAP
000038
000060
0000C0
000180
000300
000600
000C00
001800
003800
007000
00E000
00C000
018000
030000
060000
0C0000
180000
300000
E00000
ENDCHAR
STARTCHAR oneinferior
ENCODING 8321
SWIDTH 381 0
DWIDTH 10 0
BBX 6 11 -17 -6
BITMAP
3C
0C
1C
18
18
18
18
38
30
30
FC
ENDCHAR
STARTCHAR twoinferior
ENCODING 8322
SWIDTH 381 0
DWIDTH 10 0
BBX 9 11 -16 -6
BITMAP
1F00
2380
2180
0380
0300
0E00
1800
2000
4000
FF00
FE00
ENDCHAR
STARTCHAR threeinferior
ENCODING 8323
SWIDTH 381 0
DWIDTH 10 0
BBX 9 11 -16 -6
BITMAP
3F00
3380
2380
0300
0600
3E00
0700
0300
8700
8600
FC00
ENDCHAR
STARTCHAR uni20A5
ENCODING 8357
SWIDTH 969 0
DWIDTH 25 0
BBX 23 24 2 -5
BITMAP
000010
000030
000020
000040
0000C0
7E389C
3C7D7E
3CFFFE
3D9F9E
3F3D1E
3E3E1C
7C3E1C
783C3C
78383C
70783C
707838
F0F838
F0F078
F1707E
030000
020000
040000
0C0000
080000
ENDCHAR
STARTCHAR uni20A6
ENCODING 8358
SWIDTH 797 0
DWIDTH 21 0
BBX 23 19 1 0
BITMAP
0F807E
078038
07C030
07C030
07E030
07F030
07FFF0
0C7860
0C7860
0C3C60
0C3C60
0C1E60
1FFFE0
180FC0
180FC0
1807C0
1803C0
380380
FC0180
ENDCHAR
STARTCHAR uni20A9
ENCODING 8361
SWIDTH 922 0
DWIDTH 24 0
BBX 24 19 4 0
BITMAP
FE0C1F
781C06
781C0C
383C08
383C18
387C10
3FFFF0
38DC20
389C60
399C40
3D1EC0
3D1E80
3FFFE0
3E1F00
3C1F00
3C0E00
3C0E00
380C00
380C00
ENDCHAR
STARTCHAR Euro
ENCODING 8364
SWIDTH 740 0
DWIDTH 19 0
BBX 22 19 -1 0
BITMAP
0007F8
00383C
00701C
00E018
01C018
03C000
7FFF00
078000
078000
0F0000
0F0000
0F0000
FFFE00
0F0000
0F8000
078000
07C000
03E060
00FF80
ENDCHAR
STARTCHAR uni20AD
ENCODING 8365
SWIDTH 746 0
DWIDTH 19 0
BBX 20 19 1 0
BITMAP
1FE1F0
07C0C0
078180
078300
078400
070800
0F3000
0F6000
0FE000
FFFFF0
0EF000
0E7800
1E7C00
1E3C00
1E3E00
1C1F00
3C0F00
3C0F80
FF1FE0
ENDCHAR
STARTCHAR uni2103
ENCODING 8451
SWIDTH 986 0
DWIDTH 26 0
BBX 23 19 5 0
BITMAP
6003FC
901C1E
90380E
90700C
60E00C
01E000
01C000
03C000
03C000
078000
078000
078000
078000
078000
07C000
03C000
03E000
01F030
007FC0
ENDCHAR
STARTCHAR uni2109
ENCODING 8457
SWIDTH 848 0
DWIDTH 23 0
BBX 20 19 5 0
BITMAP
63FFF0
90F030
90F060
90F000
60F000
00E000
01E000
01E000
01E180
01FF00
01C100
03C000
03C000
03C000
03C000
038000
078000
078000
1FE000
ENDCHAR
STARTCHAR trademark
ENCODING 8482
SWIDTH 1044 0
DWIDTH 27 0
BBX 26 10 4 9
BITMAP
FFEF87C0
CE23C700
8E67CF00
0E07DF00
0C07D700
1C06F600
1C06EE00
1C06CE00
1C0CCE00
7E1C0F00
ENDCHAR
STARTCHAR uni212A
ENCODING 8490
SWIDTH 746 0
DWIDTH 19 0
BBX 20 19 1 0
BITMAP
1FE1F0
07C0C0
078180
078300
078400
070800
0F3000
0F6000
0FE000
0FF000
0EF000
0E7800
1E7C00
1E3C00
1E3E00
1C1F00
3C0F00
3C0F80
FF1FE0
ENDCHAR
STARTCHAR uni212B
ENCODING 8491
SWIDTH 765 0
DWIDTH 20 0
BBX 20 24 0 0
BITMAP
000600
000900
000900
000600
000000
000E00
000E00
001E00
003E00
002F00
006F00
004F00
00CF00
018700
010780
030780
020780
07FF80
0C03C0
0803C0
1803C0
1003C0
3003E0
F80FF0
ENDCHAR
STARTCHAR uni2132
ENCODING 8498
SWIDTH 602 0
DWIDTH 16 0
BBX 17 19 1 0
BITMAP
007F80
001E00
001E00
001C00
003C00
003C00
003C00
003C00
083800
0FF800
187800
007800
007800
007000
00F000
00F000
60F000
C0F000
FFFC00
ENDCHAR
STARTCHAR minus
ENCODING 8722
SWIDTH 636 0
DWIDTH 16 0
BBX 15 1 2 8
BITMAP
FFFE
ENDCHAR
STARTCHAR fraction
ENCODING 8725
SWIDTH 55 0
DWIDTH 1 0
BBX 21 19 -7 0
BITMAP
000038
000060
0000C0
000180
000300
000600
000C00
001800
003800
007000
00E000
00C000
018000
030000
060000
0C0000
180000
300000
E00000
ENDCHAR
STARTCHAR periodcentered
ENCODING 8729
SWIDTH 636 0
DWIDTH 16 0
BBX 4 3 8 7
BITMAP
70
F0
E0
ENDCHAR
STARTCHAR uni2236
ENCODING 8758
SWIDTH 265 0
DWIDTH 7 0
BBX 7 14 1 0
BITMAP
1E
1E
3C
3C
00
00
00
00
00
00
78
78
F0
F0
ENDCHAR
STARTCHAR uni2259
ENCODING 8793
SWIDTH 636 0
DWIDTH 16 0
BBX 16 12 2 4
BITMAP
01E0
03F0
0730
0C18
0000
7FFF
0000
0000
0000
0000
0000
FFFE
ENDCHAR
STARTCHAR uni225A
ENCODING 8794
SWIDTH 636 0
DWIDTH 16 0
BBX 16 12 2 4
BITMAP
0C18
0670
07E0
03C0
0000
7FFF
0000
0000
0000
0000
0000
FFFE
ENDCHAR
STARTCHAR notequal
ENCODING 8800
SWIDTH 636 0
DWIDTH 16 0
BBX 16 24 2 -4
BITMAP
0001
0003
0002
0004
000C
0008
0010
0030
0020
7FFF
00C0
0080
0100
0300
0200
FFFE
0C00
0800
1000
3000
2000
4000
C000
8000
ENDCHAR
STARTCHAR equivalence
ENCODING 8801
SWIDTH 636 0
DWIDTH 16 0
BBX 16 5 0 5
BITMAP
FFFF
0000
FFFF
0000
FFFF
ENDCHAR
STARTCHAR uni2262
ENCODING 8802
SWIDTH 636 0
DWIDTH 16 0
BBX 16 24 0 -4
BITMAP
0001
0003
0002
0004
000C
0008
0010
0030
0020
0040
FFFF
0080
FFFF
0300
FFFF
0400
0C00
0800
1000
3000
2000
4000
C000
8000
ENDCHAR
STARTCHAR lessequal
ENCODING 8804
SWIDTH 636 0
DWIDTH 16 0
BBX 17 18 2 -2
BITMAP
000080
000380
000F00
003C00
00E000
038000
0E0000
F80000
780000
1E0000
0F8000
03C000
00F000
003C00
001C00
000400
000000
FFFF80
ENDCHAR
STARTCHAR greaterequal
ENCODING 8805
SWIDTH 636 0
DWIDTH 16 0
BBX 17 18 0 -2
BITMAP
100000
1C0000
1E0000
078000
01E000
00F800
003C00
000F00
000F80
003800
00E000
038000
1E0000
780000
E00000
800000
000000
FFFF80
ENDCHAR
STARTCHAR uni226E
ENCODING 8814
SWIDTH 636 0
DWIDTH 16 0
BBX 17 24 2 -4
BITMAP
000080
000180
000100
000200
000680
000780
000F00
003C00
00F000
03A000
0E6000
F84000
788000
1F8000
0F8000
03C000
06F000
043C00
081C00
180400
100000
200000
600000
400000
ENDCHAR
STARTCHAR uni226F
ENCODING 8815
SWIDTH 636 0
DWIDTH 16 0
BBX 17 24 0 -4
BITMAP
000080
000180
000100
000200
100600
1C0400
1E0800
079800
01F000
00F800
007C00
004F00
008F80
01B800
01E000
038000
1E0000
7C0000
E80000
980000
100000
200000
600000
400000
ENDCHAR
STARTCHAR uni2270
ENCODING 8816
SWIDTH 636 0
DWIDTH 16 0
BBX 17 24 2 -5
BITMAP
000080
000180
000100
000280
000780
000F00
003C00
00F800
039000
0E2000
F86000
784000
1E8000
0F8000
03C000
02F000
063C00
041C00
080400
180000
FFFF80
200000
600000
400000
ENDCHAR
STARTCHAR uni2271
ENCODING 8817
SWIDTH 636 0
DWIDTH 16 0
BBX 17 24 0 -5
BITMAP
000080
000180
000100
100200
1C0600
1E0400
078800
01F800
00F800
003C00
006F00
004F80
00B800
01E000
038000
1E0000
7E0000
E40000
880000
180000
FFFF80
200000
600000
400000
ENDCHAR
STARTCHAR fi
ENCODING -1
SWIDTH 662 0
DWIDTH 17 0
BBX 17 25 2 -5
BITMAP
00F800
03B380
071780
073700
0F0000
0F0000
3FFF00
1E0F00
1E0E00
1E0E00
1C1E00
1C1E00
3C1E00
3C1C00
3C1C00
383C00
383C00
783C00
783C00
783E00
780000
700000
F00000
F00000
F00000
ENDCHAR
STARTCHAR fl
ENCODING -1
SWIDTH 668 0
DWIDTH 17 0
BBX 18 25 1 -5
BITMAP
00FFC0
0187C0
038380
070780
0F0780
0F0780
3FE780
0E0700
1E0F00
1E0F00
1E0F00
1E0F00
1C0E00
3C1E00
3C1E00
3C1E00
3C1E00
381C00
783C00
783F00
780000
780000
700000
F00000
F00000
ENDCHAR
ENDFONT
